<svg xmlns="http://www.w3.org/2000/svg" viewBox="0 0 500 500"><g id="freepik--Mountains--inject-14"><g id="freepik--mountains--inject-14"><path d="M83.42,261.31,202.66,59.45a5.23,5.23,0,0,1,9,0l50.54,85.43,31.55-40.42a5.24,5.24,0,0,1,8.36.14L416.58,261.31Z" style="fill:#e6e6e6"></path><path d="M177.34,125.56a6.19,6.19,0,0,0,8.6-.29l14.74-15.33a6.19,6.19,0,0,1,9.07.17l3.35,3.76a6.18,6.18,0,0,0,9,.22,6.17,6.17,0,0,1,9.53.86l2.15,3.18a6.18,6.18,0,0,0,11.14-2.08l.06-.26L211.67,59.45a5.23,5.23,0,0,0-9,0l-34.26,58Z" style="fill:#f5f5f5"></path><path d="M274.17,131.44l8.39-3.43a4,4,0,0,1,4.92,1.61l1.5,2.44a4,4,0,0,0,6.14.84l1.77-1.65a4,4,0,0,1,6.16.88L306,137a4,4,0,0,0,7.14-.55l1.09-2.7a4,4,0,0,1,5.31-2.16,3.94,3.94,0,0,0,2.51.23L302.12,104.6a5.24,5.24,0,0,0-8.36-.14l-21.29,27.28A4,4,0,0,0,274.17,131.44Z" style="fill:#f5f5f5"></path><polygon points="272.17 144.88 293.76 104.46 262.21 144.88 287.7 182.27 272.17 144.88" style="opacity:0.1"></polygon></g></g><g id="freepik--Floor--inject-14"><ellipse id="freepik--Grass--inject-14" cx="250" cy="344.33" rx="241.39" ry="137.47" style="fill:#5F4799"></ellipse></g><g id="freepik--Shadows--inject-14"><path id="freepik--Shadow--inject-14" d="M384.33,304.61c5.39,3.11,5.39,8.15,0,11.26s-14.13,3.12-19.52,0-5.39-8.15,0-11.26S378.94,301.49,384.33,304.61Z" style="opacity:0.15"></path><path id="freepik--shadow--inject-14" d="M469,302c5.39,3.11,5.39,8.16,0,11.27s-14.12,3.11-19.51,0-5.39-8.16,0-11.27S463.63,298.87,469,302Z" style="opacity:0.15"></path><path id="freepik--shadow--inject-14" d="M421.53,258.62c5.39,3.11,5.39,8.15,0,11.26s-14.13,3.11-19.52,0-5.39-8.15,0-11.26S416.14,255.5,421.53,258.62Z" style="opacity:0.15"></path><ellipse id="freepik--shadow--inject-14" cx="276.68" cy="327.11" rx="19.3" ry="11.14" style="opacity:0.15"></ellipse><ellipse id="freepik--shadow--inject-14" cx="224.38" cy="352.22" rx="21.95" ry="12.67" style="opacity:0.15"></ellipse><ellipse id="freepik--shadow--inject-14" cx="334.47" cy="343.6" rx="21.95" ry="12.67" style="opacity:0.15"></ellipse><path id="freepik--shadow--inject-14" d="M295.8,352.77c3.46,2,3.46,5.24,0,7.23a13.83,13.83,0,0,1-12.53,0c-3.46-2-3.46-5.23,0-7.23A13.83,13.83,0,0,1,295.8,352.77Z" style="opacity:0.15"></path><path id="freepik--shadow--inject-14" d="M353,224.94c5.39,3.11,5.39,8.15,0,11.27s-14.13,3.11-19.52,0-5.39-8.16,0-11.27S347.59,221.83,353,224.94Z" style="opacity:0.15"></path><path id="freepik--shadow--inject-14" d="M144.11,234.7c4.81,2.78,4.81,7.29,0,10.07s-12.63,2.78-17.45,0-4.82-7.29,0-10.07S139.29,231.92,144.11,234.7Z" style="opacity:0.15"></path><path id="freepik--shadow--inject-14" d="M83.15,265.13c4.81,2.78,4.81,7.29,0,10.07s-12.63,2.79-17.45,0-4.82-7.29,0-10.07S78.33,262.35,83.15,265.13Z" style="opacity:0.15"></path><ellipse id="freepik--shadow--inject-14" cx="288.39" cy="440.31" rx="23.51" ry="12.78" style="opacity:0.15"></ellipse><path id="freepik--shadow--inject-14" d="M239.66,419.63l-45.91,26.51a4.72,4.72,0,0,1-4.27,0l-49.92-28.82a1.3,1.3,0,0,1,0-2.47l45.9-26.51a4.74,4.74,0,0,1,4.28,0l49.92,28.82A1.3,1.3,0,0,1,239.66,419.63Z" style="opacity:0.15"></path><path id="freepik--shadow--inject-14" d="M340.39,398.59l51.35,29.65a5.25,5.25,0,0,0,4.79,0L452.38,396c1.32-.76,1.32-2,0-2.77L401,363.58a5.3,5.3,0,0,0-4.78,0l-55.85,32.25C339.07,396.59,339.07,397.83,340.39,398.59Z" style="opacity:0.15"></path></g><g id="freepik--Clouds--inject-14"><g id="freepik--clouds--inject-14"><path d="M381,73.6l4.64,2.68a4.26,4.26,0,0,1,0-.61V74.32c0-2.39,1.68-3.36,3.75-2.16a7.11,7.11,0,0,1,2.23,2.15c.34-3,2.7-4.13,5.57-2.48a12.4,12.4,0,0,1,5.61,9.72v2a5.19,5.19,0,0,1-.48,2.33l3.86,2.23a4.58,4.58,0,0,1,2.08,3.6c0,1.33-.93,1.87-2.08,1.2L381,78.41a4.61,4.61,0,0,1-2.08-3.61C378.9,73.48,379.83,72.94,381,73.6Z" style="fill:#ebebeb"></path><path d="M414.84,54.58l2.56,1V49.93c0-4.47,3.57-5.54,7.44-3.31h0a15.5,15.5,0,0,1,7,12.14v.82a3.77,3.77,0,0,1,3.25.5h0a11.16,11.16,0,0,1,5,8.74v.37l3.57,2.06A7.32,7.32,0,0,1,447,77c0,2.12-1.48,3-3.32,1.92L414.84,62.25a7.35,7.35,0,0,1-3.32-5.75C411.52,54.38,413,53.52,414.84,54.58Z" style="fill:#ebebeb"></path></g></g><g id="freepik--Sun--inject-14"><circle id="freepik--sun--inject-14" cx="90.06" cy="69.35" r="19.81" transform="translate(-22.66 83.99) rotate(-45)" style="fill:#f0997a"></circle></g><g id="freepik--Trees--inject-14"><g id="freepik--Pine--inject-14"><path d="M347,179.9v50.31a1.86,1.86,0,0,1-1.09,1.52,5.83,5.83,0,0,1-5.27,0,1.86,1.86,0,0,1-1.1-1.52V179.9Z" style="fill:#455a64"></path><path d="M311.38,195.35l29.77-71.88h4.14l29.77,71.88a3.81,3.81,0,0,1-2.78,5.19l-.48.1a3.8,3.8,0,0,0-3,4.2h0a3.8,3.8,0,0,1-4.89,4.11l-1.47-.46a3.8,3.8,0,0,0-4.58,2.07l-1.48,3.26a3.8,3.8,0,0,1-5.4,1.7l-5.78-3.42a3.8,3.8,0,0,0-3.88,0l-5.77,3.42a3.81,3.81,0,0,1-5.41-1.7l-1.48-3.26a3.8,3.8,0,0,0-4.58-2.07l-1.47.45a3.79,3.79,0,0,1-4.89-4.1h0a3.81,3.81,0,0,0-3-4.21l-.49-.1A3.8,3.8,0,0,1,311.38,195.35Z" style="fill:#5F4799"></path><path d="M311.38,195.35l29.77-71.88h4.14l29.77,71.88a3.81,3.81,0,0,1-2.78,5.19l-.48.1a3.8,3.8,0,0,0-3,4.2h0a3.8,3.8,0,0,1-4.89,4.11l-1.47-.46a3.8,3.8,0,0,0-4.58,2.07l-1.48,3.26a3.8,3.8,0,0,1-5.4,1.7l-5.78-3.42a3.8,3.8,0,0,0-3.88,0l-5.77,3.42a3.81,3.81,0,0,1-5.41-1.7l-1.48-3.26a3.8,3.8,0,0,0-4.58-2.07l-1.47.45a3.79,3.79,0,0,1-4.89-4.1h0a3.81,3.81,0,0,0-3-4.21l-.49-.1A3.8,3.8,0,0,1,311.38,195.35Z" style="opacity:0.30000000000000004"></path><path d="M355.17,147.34l-9.88-22.45h-4.14l-16.34,38-7.18,17.33a2.32,2.32,0,0,0,1.93,2.59h0A2.86,2.86,0,0,1,322,186l-.06.55a2.88,2.88,0,0,0,3.88,3l1.47-.56a2.87,2.87,0,0,1,3.65,1.51l1.82,4.1a2.88,2.88,0,0,0,4.1,1.3l4.94-3.29a2.87,2.87,0,0,1,2.94,0l5.51,3.29a2.87,2.87,0,0,0,4.1-1.3l1.83-4.1a2.87,2.87,0,0,1,3.65-1.51l1.47.56a2.88,2.88,0,0,0,3.88-3l-.06-.55a2.87,2.87,0,0,1,2.39-3.17,2.19,2.19,0,0,0,1.79-1.51Z" style="opacity:0.1"></path><path d="M318,174.45l23.13-53.85h4.14L369,174.45c.85,1.73.36,3.8-1.54,4.11a2.87,2.87,0,0,0-2.39,3.17l.06.55a2.87,2.87,0,0,1-3.88,3l-1.47-.56a2.87,2.87,0,0,0-3.65,1.52l-1.83,4.1a2.87,2.87,0,0,1-4.1,1.29l-5.51-3.28a2.87,2.87,0,0,0-2.94,0l-4.94,3.28a2.87,2.87,0,0,1-4.1-1.29l-1.82-4.1a2.88,2.88,0,0,0-3.65-1.52l-1.47.56a2.87,2.87,0,0,1-3.88-3l.06-.55a2.87,2.87,0,0,0-2.39-3.17h0C317.65,178.25,317.17,176.18,318,174.45Z" style="fill:#5F4799"></path><path d="M318,174.45l23.13-53.85h4.14L369,174.45c.85,1.73.36,3.8-1.54,4.11a2.87,2.87,0,0,0-2.39,3.17l.06.55a2.87,2.87,0,0,1-3.88,3l-1.47-.56a2.87,2.87,0,0,0-3.65,1.52l-1.83,4.1a2.87,2.87,0,0,1-4.1,1.29l-5.51-3.28a2.87,2.87,0,0,0-2.94,0l-4.94,3.28a2.87,2.87,0,0,1-4.1-1.29l-1.82-4.1a2.88,2.88,0,0,0-3.65-1.52l-1.47.56a2.87,2.87,0,0,1-3.88-3l.06-.55a2.87,2.87,0,0,0-2.39-3.17h0C317.65,178.25,317.17,176.18,318,174.45Z" style="opacity:0.2"></path><path d="M362.46,159.6l-17.17-39h-4.14l-16.88,39.3a2.18,2.18,0,0,0,.45.33l.13.07a2.6,2.6,0,0,1,1.31,2.48h0a2.59,2.59,0,0,0,3.24,2.72l1-.26a2.57,2.57,0,0,1,2.94,1.28l1.38,2.57a2.6,2.6,0,0,0,3.49,1.08l3.8-2a2.61,2.61,0,0,1,2.4,0l3.81,2a2.59,2.59,0,0,0,3.48-1.08l1.38-2.57a2.57,2.57,0,0,1,2.94-1.28l1,.26a2.59,2.59,0,0,0,3.24-2.72,2.6,2.6,0,0,1,1.31-2.48l.13-.07A2.53,2.53,0,0,0,362.46,159.6Z" style="opacity:0.1"></path><path d="M323.78,153.27l17.39-36.54.13-.22a2.22,2.22,0,0,1,3.84,0l.14.23,17.38,36.53a2.59,2.59,0,0,1-.94,3.62l-.13.08a2.58,2.58,0,0,0-1.31,2.48,2.59,2.59,0,0,1-3.24,2.72l-1-.26a2.57,2.57,0,0,0-2.94,1.28l-1.38,2.57a2.59,2.59,0,0,1-3.48,1.07l-3.81-2a2.61,2.61,0,0,0-2.4,0l-3.8,2a2.6,2.6,0,0,1-3.49-1.07l-1.38-2.57a2.57,2.57,0,0,0-2.94-1.28l-1,.26a2.59,2.59,0,0,1-3.24-2.72h0a2.57,2.57,0,0,0-1.31-2.47l-.13-.08A2.59,2.59,0,0,1,323.78,153.27Z" style="fill:#5F4799"></path><path d="M323.78,153.27l17.39-36.54.13-.22a2.22,2.22,0,0,1,3.84,0l.14.23,17.38,36.53a2.59,2.59,0,0,1-.94,3.62l-.13.08a2.58,2.58,0,0,0-1.31,2.48,2.59,2.59,0,0,1-3.24,2.72l-1-.26a2.57,2.57,0,0,0-2.94,1.28l-1.38,2.57a2.59,2.59,0,0,1-3.48,1.07l-3.81-2a2.61,2.61,0,0,0-2.4,0l-3.8,2a2.6,2.6,0,0,1-3.49-1.07l-1.38-2.57a2.57,2.57,0,0,0-2.94-1.28l-1,.26a2.59,2.59,0,0,1-3.24-2.72h0a2.57,2.57,0,0,0-1.31-2.47l-.13-.08A2.59,2.59,0,0,1,323.78,153.27Z" style="opacity:0.1"></path></g><g id="freepik--pine--inject-14"><path d="M77.81,224.12v45.71a1.68,1.68,0,0,1-1,1.38,5.25,5.25,0,0,1-4.79,0,1.68,1.68,0,0,1-1-1.38V224.12Z" style="fill:#455a64"></path><path d="M42.59,234.77,72.35,162.9h4.14l29.77,71.88a3.8,3.8,0,0,1-2.78,5.18l-.48.1a3.81,3.81,0,0,0-3,4.2h0a3.8,3.8,0,0,1-4.89,4.11l-1.47-.45A3.79,3.79,0,0,0,89,250l-1.48,3.26a3.79,3.79,0,0,1-5.4,1.7l-5.78-3.42a3.8,3.8,0,0,0-3.88,0l-5.77,3.42a3.8,3.8,0,0,1-5.41-1.7L59.82,250a3.81,3.81,0,0,0-4.58-2.07l-1.47.46a3.8,3.8,0,0,1-4.89-4.11h0a3.81,3.81,0,0,0-3-4.21l-.49-.09A3.81,3.81,0,0,1,42.59,234.77Z" style="fill:#5F4799"></path><path d="M42.59,234.77,72.35,162.9h4.14l29.77,71.88a3.8,3.8,0,0,1-2.78,5.18l-.48.1a3.81,3.81,0,0,0-3,4.2h0a3.8,3.8,0,0,1-4.89,4.11l-1.47-.45A3.79,3.79,0,0,0,89,250l-1.48,3.26a3.79,3.79,0,0,1-5.4,1.7l-5.78-3.42a3.8,3.8,0,0,0-3.88,0l-5.77,3.42a3.8,3.8,0,0,1-5.41-1.7L59.82,250a3.81,3.81,0,0,0-4.58-2.07l-1.47.46a3.8,3.8,0,0,1-4.89-4.11h0a3.81,3.81,0,0,0-3-4.21l-.49-.09A3.81,3.81,0,0,1,42.59,234.77Z" style="opacity:0.30000000000000004"></path><path d="M86.37,186.76l-9.88-22.45H72.35L56,202.35l-7.18,17.34a2.31,2.31,0,0,0,1.93,2.58h0a2.87,2.87,0,0,1,2.39,3.17l-.06.55A2.88,2.88,0,0,0,57,229l1.47-.56A2.87,2.87,0,0,1,62.09,230l1.82,4.1a2.87,2.87,0,0,0,4.1,1.29L73,232.08a2.84,2.84,0,0,1,3,0l5.5,3.28a2.87,2.87,0,0,0,4.1-1.3L87.33,230A2.87,2.87,0,0,1,91,228.45l1.47.56a2.88,2.88,0,0,0,3.88-3l-.06-.55a2.87,2.87,0,0,1,2.39-3.17,2.17,2.17,0,0,0,1.79-1.51Z" style="opacity:0.1"></path><path d="M49.22,213.87,72.35,160h4.14l23.71,53.85c.85,1.74.36,3.8-1.54,4.11a2.87,2.87,0,0,0-2.39,3.17l.06.55a2.87,2.87,0,0,1-3.88,3L91,224.16a2.88,2.88,0,0,0-3.65,1.52l-1.83,4.1a2.88,2.88,0,0,1-4.1,1.3l-5.5-3.29a2.89,2.89,0,0,0-3,0L68,231.08a2.88,2.88,0,0,1-4.1-1.3l-1.82-4.1a2.88,2.88,0,0,0-3.65-1.52l-1.47.56a2.87,2.87,0,0,1-3.88-3l.06-.55A2.87,2.87,0,0,0,50.76,218h0C48.86,217.67,48.37,215.6,49.22,213.87Z" style="fill:#5F4799"></path><path d="M49.22,213.87,72.35,160h4.14l23.71,53.85c.85,1.74.36,3.8-1.54,4.11a2.87,2.87,0,0,0-2.39,3.17l.06.55a2.87,2.87,0,0,1-3.88,3L91,224.16a2.88,2.88,0,0,0-3.65,1.52l-1.83,4.1a2.88,2.88,0,0,1-4.1,1.3l-5.5-3.29a2.89,2.89,0,0,0-3,0L68,231.08a2.88,2.88,0,0,1-4.1-1.3l-1.82-4.1a2.88,2.88,0,0,0-3.65-1.52l-1.47.56a2.87,2.87,0,0,1-3.88-3l.06-.55A2.87,2.87,0,0,0,50.76,218h0C48.86,217.67,48.37,215.6,49.22,213.87Z" style="opacity:0.2"></path><path d="M93.66,199,76.49,160H72.35L55.47,199.33a2.14,2.14,0,0,0,.45.32l.13.07a2.58,2.58,0,0,1,1.31,2.48h0a2.6,2.6,0,0,0,3.25,2.73l1-.27a2.6,2.6,0,0,1,2.94,1.28l1.38,2.58a2.6,2.6,0,0,0,3.49,1.07l3.8-2a2.61,2.61,0,0,1,2.4,0l3.81,2a2.59,2.59,0,0,0,3.48-1.07l1.38-2.58a2.6,2.6,0,0,1,2.94-1.28l1,.27a2.59,2.59,0,0,0,3.24-2.73,2.6,2.6,0,0,1,1.31-2.48l.13-.07A2.39,2.39,0,0,0,93.66,199Z" style="opacity:0.1"></path><path d="M55,192.69l17.39-36.54.13-.22a2.22,2.22,0,0,1,3.84,0l.14.23,17.38,36.53a2.59,2.59,0,0,1-.94,3.63l-.13.07a2.6,2.6,0,0,0-1.31,2.48,2.59,2.59,0,0,1-3.24,2.72l-1-.26a2.58,2.58,0,0,0-2.94,1.28l-1.38,2.57a2.59,2.59,0,0,1-3.48,1.07l-3.81-2a2.55,2.55,0,0,0-2.4,0l-3.8,2a2.6,2.6,0,0,1-3.49-1.07l-1.38-2.57a2.57,2.57,0,0,0-2.94-1.28l-1,.26a2.59,2.59,0,0,1-3.25-2.72h0a2.56,2.56,0,0,0-1.31-2.48l-.13-.07A2.6,2.6,0,0,1,55,192.69Z" style="fill:#5F4799"></path><path d="M55,192.69l17.39-36.54.13-.22a2.22,2.22,0,0,1,3.84,0l.14.23,17.38,36.53a2.59,2.59,0,0,1-.94,3.63l-.13.07a2.6,2.6,0,0,0-1.31,2.48,2.59,2.59,0,0,1-3.24,2.72l-1-.26a2.58,2.58,0,0,0-2.94,1.28l-1.38,2.57a2.59,2.59,0,0,1-3.48,1.07l-3.81-2a2.55,2.55,0,0,0-2.4,0l-3.8,2a2.6,2.6,0,0,1-3.49-1.07l-1.38-2.57a2.57,2.57,0,0,0-2.94-1.28l-1,.26a2.59,2.59,0,0,1-3.25-2.72h0a2.56,2.56,0,0,0-1.31-2.48l-.13-.07A2.6,2.6,0,0,1,55,192.69Z" style="opacity:0.1"></path></g><g id="freepik--pine--inject-14"><path d="M462.88,258.41v48.82a1.79,1.79,0,0,1-1.06,1.48,5.61,5.61,0,0,1-5.11,0,1.79,1.79,0,0,1-1.06-1.48V258.41Z" style="fill:#455a64"></path><path d="M427.43,272.31l29.76-71.88h4.15l29.76,71.88a3.81,3.81,0,0,1-2.77,5.19l-.49.09a3.8,3.8,0,0,0-3,4.21h0a3.8,3.8,0,0,1-4.9,4.1l-1.47-.45a3.8,3.8,0,0,0-4.58,2.07l-1.48,3.26a3.8,3.8,0,0,1-5.4,1.7l-5.78-3.42a3.8,3.8,0,0,0-3.88,0l-5.77,3.42a3.8,3.8,0,0,1-5.4-1.7l-1.48-3.27a3.82,3.82,0,0,0-4.59-2.06l-1.47.45a3.81,3.81,0,0,1-4.89-4.11h0a3.79,3.79,0,0,0-3-4.2l-.49-.1A3.8,3.8,0,0,1,427.43,272.31Z" style="fill:#5F4799"></path><path d="M427.43,272.31l29.76-71.88h4.15l29.76,71.88a3.81,3.81,0,0,1-2.77,5.19l-.49.09a3.8,3.8,0,0,0-3,4.21h0a3.8,3.8,0,0,1-4.9,4.1l-1.47-.45a3.8,3.8,0,0,0-4.58,2.07l-1.48,3.26a3.8,3.8,0,0,1-5.4,1.7l-5.78-3.42a3.8,3.8,0,0,0-3.88,0l-5.77,3.42a3.8,3.8,0,0,1-5.4-1.7l-1.48-3.27a3.82,3.82,0,0,0-4.59-2.06l-1.47.45a3.81,3.81,0,0,1-4.89-4.11h0a3.79,3.79,0,0,0-3-4.2l-.49-.1A3.8,3.8,0,0,1,427.43,272.31Z" style="opacity:0.30000000000000004"></path><path d="M471.22,224.29l-9.88-22.44h-4.15l-16.34,38-7.17,17.33a2.3,2.3,0,0,0,1.92,2.58h0A2.87,2.87,0,0,1,438,263l-.06.56a2.88,2.88,0,0,0,3.88,3l1.47-.56a2.87,2.87,0,0,1,3.65,1.51l1.83,4.1a2.88,2.88,0,0,0,4.1,1.3l4.93-3.29a2.89,2.89,0,0,1,2.95,0l5.51,3.29a2.88,2.88,0,0,0,4.1-1.3l1.82-4.1a2.87,2.87,0,0,1,3.65-1.51l1.47.56a2.88,2.88,0,0,0,3.88-3l-.06-.55a2.86,2.86,0,0,1,2.39-3.17,2.2,2.2,0,0,0,1.8-1.51Z" style="opacity:0.1"></path><path d="M434.06,251.41l23.13-53.85h4.15L485,251.41c.85,1.73.37,3.8-1.54,4.11a2.87,2.87,0,0,0-2.39,3.17l.06.55a2.88,2.88,0,0,1-3.88,3l-1.47-.56a2.88,2.88,0,0,0-3.65,1.52l-1.82,4.09a2.87,2.87,0,0,1-4.1,1.3l-5.51-3.29a2.89,2.89,0,0,0-2.95,0l-4.93,3.29a2.87,2.87,0,0,1-4.1-1.3l-1.83-4.09a2.87,2.87,0,0,0-3.65-1.52l-1.47.56a2.88,2.88,0,0,1-3.88-3l.06-.55a2.87,2.87,0,0,0-2.39-3.17h0C433.7,255.2,433.21,253.14,434.06,251.41Z" style="fill:#5F4799"></path><path d="M434.06,251.41l23.13-53.85h4.15L485,251.41c.85,1.73.37,3.8-1.54,4.11a2.87,2.87,0,0,0-2.39,3.17l.06.55a2.88,2.88,0,0,1-3.88,3l-1.47-.56a2.88,2.88,0,0,0-3.65,1.52l-1.82,4.09a2.87,2.87,0,0,1-4.1,1.3l-5.51-3.29a2.89,2.89,0,0,0-2.95,0l-4.93,3.29a2.87,2.87,0,0,1-4.1-1.3l-1.83-4.09a2.87,2.87,0,0,0-3.65-1.52l-1.47.56a2.88,2.88,0,0,1-3.88-3l.06-.55a2.87,2.87,0,0,0-2.39-3.17h0C433.7,255.2,433.21,253.14,434.06,251.41Z" style="opacity:0.2"></path><path d="M478.5,236.56l-17.16-39h-4.15l-16.88,39.3a3.72,3.72,0,0,0,.45.33l.13.07a2.59,2.59,0,0,1,1.32,2.48h0a2.58,2.58,0,0,0,3.24,2.72l1-.26a2.59,2.59,0,0,1,2.95,1.28l1.38,2.57a2.59,2.59,0,0,0,3.48,1.07l3.8-2a2.55,2.55,0,0,1,2.4,0l3.81,2a2.59,2.59,0,0,0,3.48-1.07l1.38-2.57a2.59,2.59,0,0,1,2.95-1.28l1,.26a2.59,2.59,0,0,0,3.24-2.72,2.6,2.6,0,0,1,1.32-2.48l.13-.07A2.79,2.79,0,0,0,478.5,236.56Z" style="opacity:0.1"></path><path d="M439.83,230.23l17.38-36.54.13-.22a2.22,2.22,0,0,1,1.92-1.12,2.2,2.2,0,0,1,1.92,1.12l.14.22,17.38,36.54a2.59,2.59,0,0,1-.93,3.62l-.13.07a2.61,2.61,0,0,0-1.32,2.48,2.59,2.59,0,0,1-3.24,2.73l-1-.27a2.61,2.61,0,0,0-2.95,1.29l-1.38,2.57a2.59,2.59,0,0,1-3.48,1.07l-3.81-2a2.61,2.61,0,0,0-2.4,0l-3.8,2a2.59,2.59,0,0,1-3.48-1.07l-1.38-2.57a2.61,2.61,0,0,0-2.95-1.29l-1,.27a2.59,2.59,0,0,1-3.24-2.73h0a2.61,2.61,0,0,0-1.32-2.48l-.13-.07A2.59,2.59,0,0,1,439.83,230.23Z" style="fill:#5F4799"></path><path d="M439.83,230.23l17.38-36.54.13-.22a2.22,2.22,0,0,1,1.92-1.12,2.2,2.2,0,0,1,1.92,1.12l.14.22,17.38,36.54a2.59,2.59,0,0,1-.93,3.62l-.13.07a2.61,2.61,0,0,0-1.32,2.48,2.59,2.59,0,0,1-3.24,2.73l-1-.27a2.61,2.61,0,0,0-2.95,1.29l-1.38,2.57a2.59,2.59,0,0,1-3.48,1.07l-3.81-2a2.61,2.61,0,0,0-2.4,0l-3.8,2a2.59,2.59,0,0,1-3.48-1.07l-1.38-2.57a2.61,2.61,0,0,0-2.95-1.29l-1,.27a2.59,2.59,0,0,1-3.24-2.73h0a2.61,2.61,0,0,0-1.32-2.48l-.13-.07A2.59,2.59,0,0,1,439.83,230.23Z" style="opacity:0.1"></path></g><g id="freepik--Tree--inject-14"><g id="freepik--tree--inject-14"><path d="M394.89,195.86l15,29.77v-13.7h3.75v9.21l16.49-28.84-16.49,35.41v37.17a1,1,0,0,1-.55.76,2.94,2.94,0,0,1-2.65,0,.93.93,0,0,1-.55-.76V233.22Z" style="fill:#455a64"></path><path d="M438.32,147.74a26.6,26.6,0,1,0-53.15-1.65c0,.34,0,.67,0,1A29.2,29.2,0,0,1,381.3,163a35.24,35.24,0,1,0,60.85-.16A26.64,26.64,0,0,1,438.32,147.74Z" style="fill:#5F4799"></path><path d="M438.32,147.74a26.6,26.6,0,1,0-53.15-1.65c0,.34,0,.67,0,1A29.2,29.2,0,0,1,381.3,163a35.24,35.24,0,1,0,60.85-.16A26.64,26.64,0,0,1,438.32,147.74Z" style="opacity:0.2"></path><path d="M411.24,215.87a35.23,35.23,0,0,0,30.91-53.08,26.64,26.64,0,0,1-3.83-15,26.56,26.56,0,0,0-13.93-25.05c4.44,2.78,6.88,7.9,8,12.47,1.61,6.66-1.17,11-.07,18,.84,5.39,3.38,8.79,4.21,15.2.56,4.35,0,10.75-2,14.65-6,11.53-15.25,17.17-30.53,17.12a39.68,39.68,0,0,1-17.66-4.62,35.18,35.18,0,0,1-6.95-4.93,18.72,18.72,0,0,1-2.27-3.62A35.41,35.41,0,0,0,411.24,215.87Z" style="opacity:0.1"></path></g></g><g id="freepik--tree--inject-14"><g id="freepik--tree--inject-14"><path d="M120,183.75l2.28-1.16,10.9,21.46V177.69h4.29v20.65l11.14-18,2.17,1.35-13.31,21.5v36.42a1.05,1.05,0,0,1-.63.87,3.31,3.31,0,0,1-3,0,1.05,1.05,0,0,1-.63-.87V209.71Z" style="fill:#455a64"></path><circle cx="118.75" cy="163.85" r="23.81" transform="translate(-34.47 31.67) rotate(-13.28)" style="fill:#5F4799"></circle><circle cx="118.75" cy="163.85" r="23.81" transform="translate(-34.47 31.67) rotate(-13.28)" style="opacity:0.4"></circle><path d="M104.63,164.84c-3.07-9.67.31-20.53,2.39-21.71A23.81,23.81,0,1,1,100.38,179C107.44,181.07,108.62,177.38,104.63,164.84Z" style="opacity:0.1"></path><circle cx="156.26" cy="170.59" r="16.73" transform="translate(-61.15 249.68) rotate(-67.5)" style="fill:#5F4799"></circle><circle cx="156.26" cy="170.59" r="16.73" transform="translate(-61.15 249.68) rotate(-67.5)" style="opacity:0.4"></circle><path d="M156.26,153.86A16.63,16.63,0,0,1,166,157c.45,10.22-8.23,20.19-5.8,23.54s8.4,1.29,10.48-1.55a16.73,16.73,0,1,1-14.46-25.15Z" style="opacity:0.1"></path><circle cx="135.33" cy="152.55" r="30.7" transform="translate(-59.99 93.93) rotate(-31.72)" style="fill:#5F4799"></circle><g style="opacity:0.30000000000000004"><circle cx="135.33" cy="152.55" r="30.7" transform="translate(-59.99 93.93) rotate(-31.72)"></circle></g><path d="M105.45,159.57a30.7,30.7,0,1,0,45-33.75,31,31,0,0,1,7.19,5.64,31.06,31.06,0,0,1,.81,7,30.69,30.69,0,0,1-53,21.1Z" style="opacity:0.1"></path></g></g></g><g id="freepik--Lake--inject-14"><g id="freepik--lake--inject-14"><g id="freepik--Bullrush--inject-14"><path d="M251.08,219.27a33.22,33.22,0,0,0-1.47,5.58,37.17,37.17,0,0,0-.49,5.54h0a39.48,39.48,0,0,0,.15,4.42c0,.16,0,.32,0,.49s0,.23,0,.34l-.07,0-.08,0-.15-.08-.42-.24-.13-.07v-.26c0-.44,0-.89-.05-1.35h0c0-.95,0-1.93,0-2.93h0a35.55,35.55,0,0,1,.76-5.86,28.2,28.2,0,0,1,1.69-5.45,11.12,11.12,0,0,1,.69-1.42C251.66,217.88,251.38,218.36,251.08,219.27Z" style="fill:#5F4799"></path><path d="M251.08,219.27a33.22,33.22,0,0,0-1.47,5.58,37.17,37.17,0,0,0-.49,5.54h0a39.48,39.48,0,0,0,.15,4.42c0,.16,0,.32,0,.49s0,.23,0,.34l-.07,0-.08,0-.15-.08-.42-.24-.13-.07v-.26c0-.44,0-.89-.05-1.35h0c0-.95,0-1.93,0-2.93h0a35.55,35.55,0,0,1,.76-5.86,28.2,28.2,0,0,1,1.69-5.45,11.12,11.12,0,0,1,.69-1.42C251.66,217.88,251.38,218.36,251.08,219.27Z" style="opacity:0.30000000000000004"></path><path d="M248.63,235.23l-.13-.07a3.3,3.3,0,0,0-.32-.18l-.08,0-.6-.32a38.08,38.08,0,0,1-2.38-10,27.91,27.91,0,0,1,0-5.71,11,11,0,0,1,.22-1.56c.06,0-.05.54-.07,1.51a33.47,33.47,0,0,0,.27,5.75,40,40,0,0,0,2.38,8.92c.11.3.24.6.37.91l.21.49Z" style="fill:#5F4799"></path><path d="M248.63,235.23l-.13-.07a3.3,3.3,0,0,0-.32-.18l-.08,0-.6-.32a38.08,38.08,0,0,1-2.38-10,27.91,27.91,0,0,1,0-5.71,11,11,0,0,1,.22-1.56c.06,0-.05.54-.07,1.51a33.47,33.47,0,0,0,.27,5.75,40,40,0,0,0,2.38,8.92c.11.3.24.6.37.91l.21.49Z" style="opacity:0.30000000000000004"></path><path d="M261.87,223.16c0,.05-.46.3-1.22.9a33.69,33.69,0,0,0-4.26,3.88,39.94,39.94,0,0,0-5.85,8.39L250,236l-.17-.11c.13-.21.25-.43.39-.65h0a37.47,37.47,0,0,1,5.88-7.64,28.22,28.22,0,0,1,4.39-3.64A11.15,11.15,0,0,1,261.87,223.16Z" style="fill:#5F4799"></path><path d="M261.87,223.16c0,.05-.46.3-1.22.9a33.69,33.69,0,0,0-4.26,3.88,39.94,39.94,0,0,0-5.85,8.39L250,236l-.17-.11c.13-.21.25-.43.39-.65h0a37.47,37.47,0,0,1,5.88-7.64,28.22,28.22,0,0,1,4.39-3.64A11.15,11.15,0,0,1,261.87,223.16Z" style="opacity:0.30000000000000004"></path><path d="M261.63,214.87c.05.06-.52.52-1.36,1.53l-.44.51a45.9,45.9,0,0,0-3.16,4.18c-.33.5-.67,1-1,1.6a54.15,54.15,0,0,0-5.43,12.57h0c-.08.25-.15.5-.22.76l-.17-.11-.5-.28-.07,0-.08,0-.15-.08.08-.24h0c.05-.13.09-.27.14-.41s.11-.35.17-.52h0a50.65,50.65,0,0,1,5.79-11.93c.34-.51.69-1,1-1.54a36.35,36.35,0,0,1,3.37-4.07h0l0,0,.36-.36A14.5,14.5,0,0,1,261.63,214.87Z" style="fill:#5F4799"></path><path d="M261.63,214.87c.05.06-.52.52-1.36,1.53l-.44.51a45.9,45.9,0,0,0-3.16,4.18c-.33.5-.67,1-1,1.6a54.15,54.15,0,0,0-5.43,12.57h0c-.08.25-.15.5-.22.76l-.17-.11-.5-.28-.07,0-.08,0-.15-.08.08-.24h0c.05-.13.09-.27.14-.41s.11-.35.17-.52h0a50.65,50.65,0,0,1,5.79-11.93c.34-.51.69-1,1-1.54a36.35,36.35,0,0,1,3.37-4.07h0l0,0,.36-.36A14.5,14.5,0,0,1,261.63,214.87Z" style="opacity:0.2"></path><path d="M259.88,216.87s.3.36-.18,1.1-1.84,2.46-2.38,3.07c-.34.38-1.5-.18-1.07-.87a22.79,22.79,0,0,1,2.29-3c.55-.56.84-.7,1.16-.48l0,0s0,.11,0,.16a.12.12,0,0,0,.14,0Z" style="fill:#b16668"></path><path d="M248.5,235.16a3.3,3.3,0,0,0-.32-.18l-.08,0c-.07-.46-.13-.94-.19-1.43a45.13,45.13,0,0,1,0-11.45c.08-.53.16-1.08.25-1.63h0a29.61,29.61,0,0,1,1.1-4.56h0c.05-.17.1-.33.16-.5a11.54,11.54,0,0,1,.69-1.77c.06,0-.22.62-.49,1.75l-.15.58a40.06,40.06,0,0,0-.9,4.57c-.07.53-.13,1.08-.18,1.67a48.83,48.83,0,0,0,.07,8.43h0c.06.57.13,1.17.21,1.76.12.93.27,1.89.46,2.85h0c0,.1,0,.21.07.32l-.15-.08-.42-.24Z" style="fill:#5F4799"></path><path d="M248.5,235.16a3.3,3.3,0,0,0-.32-.18l-.08,0c-.07-.46-.13-.94-.19-1.43a45.13,45.13,0,0,1,0-11.45c.08-.53.16-1.08.25-1.63h0a29.61,29.61,0,0,1,1.1-4.56h0c.05-.17.1-.33.16-.5a11.54,11.54,0,0,1,.69-1.77c.06,0-.22.62-.49,1.75l-.15.58a40.06,40.06,0,0,0-.9,4.57c-.07.53-.13,1.08-.18,1.67a48.83,48.83,0,0,0,.07,8.43h0c.06.57.13,1.17.21,1.76.12.93.27,1.89.46,2.85h0c0,.1,0,.21.07.32l-.15-.08-.42-.24Z" style="opacity:0.2"></path><path d="M249.49,215.87s.38.17.29.95-.51,2.68-.71,3.37c-.12.44-1.26.44-1.19-.27a19.35,19.35,0,0,1,.66-3.29c.21-.67.4-.89.73-.84v.05s0,.09.09.11.11,0,.13,0Z" style="fill:#b16668"></path><path d="M258.59,211.24c.05,0-.46.58-1.18,1.67a44.71,44.71,0,0,0-3.83,6.79,55,55,0,0,0-4.14,14.58h0c0,.33-.09.67-.13,1l0,.29-.08,0-.15-.08-.42-.24-.13-.07a3.3,3.3,0,0,0-.32-.18c0-.19.06-.38.1-.57s.1-.57.16-.86h0c.07-.38.15-.77.23-1.17q.2-1,.45-2h0a49.34,49.34,0,0,1,4-11,38.82,38.82,0,0,1,4.09-6.55A13.82,13.82,0,0,1,258.59,211.24Z" style="fill:#5F4799"></path><path d="M258.59,211.24c.05,0-.46.58-1.18,1.67a44.71,44.71,0,0,0-3.83,6.79,55,55,0,0,0-4.14,14.58h0c0,.33-.09.67-.13,1l0,.29-.08,0-.15-.08-.42-.24-.13-.07a3.3,3.3,0,0,0-.32-.18c0-.19.06-.38.1-.57s.1-.57.16-.86h0c.07-.38.15-.77.23-1.17q.2-1,.45-2h0a49.34,49.34,0,0,1,4-11,38.82,38.82,0,0,1,4.09-6.55A13.82,13.82,0,0,1,258.59,211.24Z" style="opacity:0.2"></path></g><g id="freepik--bullrush--inject-14"><path d="M54.71,286.49a36.42,36.42,0,0,1,1.6,6.1,42.2,42.2,0,0,1,.54,6h0a44.42,44.42,0,0,1-.17,4.82c0,.18,0,.36,0,.54s0,.25,0,.37l.07-.05.09-.05.16-.09.46-.26.14-.07v-.28c0-.48,0-1,.06-1.48h0c0-1,0-2.1,0-3.2h0a37.8,37.8,0,0,0-.82-6.39,31.18,31.18,0,0,0-1.85-6,11,11,0,0,0-.76-1.55C54.08,285,54.37,285.49,54.71,286.49Z" style="fill:#5F4799"></path><path d="M54.71,286.49a36.42,36.42,0,0,1,1.6,6.1,42.2,42.2,0,0,1,.54,6h0a44.42,44.42,0,0,1-.17,4.82c0,.18,0,.36,0,.54s0,.25,0,.37l.07-.05.09-.05.16-.09.46-.26.14-.07v-.28c0-.48,0-1,.06-1.48h0c0-1,0-2.1,0-3.2h0a37.8,37.8,0,0,0-.82-6.39,31.18,31.18,0,0,0-1.85-6,11,11,0,0,0-.76-1.55C54.08,285,54.37,285.49,54.71,286.49Z" style="opacity:0.30000000000000004"></path><path d="M57.38,303.92l.14-.07.35-.2.09,0,.65-.36a41.32,41.32,0,0,0,2.61-10.94,31,31,0,0,0,0-6.24,11.6,11.6,0,0,0-.25-1.71c-.06,0,.06.6.09,1.65a37.27,37.27,0,0,1-.3,6.29,43.89,43.89,0,0,1-2.6,9.74l-.4,1-.24.54Z" style="fill:#5F4799"></path><path d="M57.38,303.92l.14-.07.35-.2.09,0,.65-.36a41.32,41.32,0,0,0,2.61-10.94,31,31,0,0,0,0-6.24,11.6,11.6,0,0,0-.25-1.71c-.06,0,.06.6.09,1.65a37.27,37.27,0,0,1-.3,6.29,43.89,43.89,0,0,1-2.6,9.74l-.4,1-.24.54Z" style="opacity:0.30000000000000004"></path><path d="M42.92,290.74c0,.06.5.33,1.33,1A36.84,36.84,0,0,1,48.91,296a44.33,44.33,0,0,1,6.39,9.17c.18-.12.37-.23.56-.34l.19-.11-.42-.71h0a41.23,41.23,0,0,0-6.43-8.35,30.49,30.49,0,0,0-4.8-4A12.2,12.2,0,0,0,42.92,290.74Z" style="fill:#5F4799"></path><path d="M42.92,290.74c0,.06.5.33,1.33,1A36.84,36.84,0,0,1,48.91,296a44.33,44.33,0,0,1,6.39,9.17c.18-.12.37-.23.56-.34l.19-.11-.42-.71h0a41.23,41.23,0,0,0-6.43-8.35,30.49,30.49,0,0,0-4.8-4A12.2,12.2,0,0,0,42.92,290.74Z" style="opacity:0.30000000000000004"></path><path d="M43.18,281.68c-.06.07.57.58,1.49,1.67l.48.56a50.29,50.29,0,0,1,3.45,4.57c.36.54.73,1.12,1.1,1.74A60,60,0,0,1,55.63,304h0c.08.27.16.55.23.82l.19-.11.55-.31.07-.05.09-.05.16-.09-.08-.26h0c-.05-.14-.1-.3-.16-.45l-.19-.57h0a55.42,55.42,0,0,0-6.31-13c-.38-.56-.76-1.11-1.16-1.67a38.16,38.16,0,0,0-3.67-4.45h0l-.05-.06-.39-.39A17,17,0,0,0,43.18,281.68Z" style="fill:#5F4799"></path><path d="M43.18,281.68c-.06.07.57.58,1.49,1.67l.48.56a50.29,50.29,0,0,1,3.45,4.57c.36.54.73,1.12,1.1,1.74A60,60,0,0,1,55.63,304h0c.08.27.16.55.23.82l.19-.11.55-.31.07-.05.09-.05.16-.09-.08-.26h0c-.05-.14-.1-.3-.16-.45l-.19-.57h0a55.42,55.42,0,0,0-6.31-13c-.38-.56-.76-1.11-1.16-1.67a38.16,38.16,0,0,0-3.67-4.45h0l-.05-.06-.39-.39A17,17,0,0,0,43.18,281.68Z" style="opacity:0.2"></path><path d="M45.09,283.86s-.33.4.2,1.21a41.7,41.7,0,0,0,2.6,3.35c.37.42,1.63-.2,1.17-.95a24.63,24.63,0,0,0-2.51-3.28c-.59-.62-.92-.77-1.26-.53l0,0s0,.12,0,.18a.15.15,0,0,1-.16,0Z" style="fill:#b16668"></path><path d="M57.52,303.85l.35-.2.09,0c.08-.51.15-1,.21-1.57a49.23,49.23,0,0,0,0-12.5c-.09-.59-.17-1.18-.28-1.78h0a32.57,32.57,0,0,0-1.19-5h0l-.18-.54a13.63,13.63,0,0,0-.75-1.94c-.08,0,.23.68.53,1.92.06.2.11.41.17.63a46.87,46.87,0,0,1,1,5c.07.58.14,1.18.19,1.83a51.83,51.83,0,0,1-.08,9.2h0c-.06.64-.13,1.28-.22,1.93-.13,1-.3,2.06-.5,3.11h0c0,.11-.05.23-.08.35l.16-.09.46-.26Z" style="fill:#5F4799"></path><path d="M57.52,303.85l.35-.2.09,0c.08-.51.15-1,.21-1.57a49.23,49.23,0,0,0,0-12.5c-.09-.59-.17-1.18-.28-1.78h0a32.57,32.57,0,0,0-1.19-5h0l-.18-.54a13.63,13.63,0,0,0-.75-1.94c-.08,0,.23.68.53,1.92.06.2.11.41.17.63a46.87,46.87,0,0,1,1,5c.07.58.14,1.18.19,1.83a51.83,51.83,0,0,1-.08,9.2h0c-.06.64-.13,1.28-.22,1.93-.13,1-.3,2.06-.5,3.11h0c0,.11-.05.23-.08.35l.16-.09.46-.26Z" style="opacity:0.2"></path><path d="M56.44,282.77s-.42.19-.31,1,.55,2.93.77,3.69c.13.48,1.38.48,1.3-.3a21.34,21.34,0,0,0-.72-3.6c-.23-.72-.43-1-.8-.92l0,.06s0,.1-.11.12a.1.1,0,0,1-.13,0Z" style="fill:#b16668"></path><path d="M46.51,277.71c-.07.06.5.63,1.28,1.83A49.15,49.15,0,0,1,52,287a59.32,59.32,0,0,1,4.52,15.93h0q.09.56.15,1.11a3.16,3.16,0,0,1,0,.32l.09-.05.16-.09.46-.26.14-.07.35-.2c0-.21-.07-.42-.1-.62l-.18-.94h0c-.08-.41-.16-.84-.25-1.27-.15-.7-.31-1.42-.49-2.16h0a54,54,0,0,0-4.35-12A42.36,42.36,0,0,0,48,279.49,16.87,16.87,0,0,0,46.51,277.71Z" style="fill:#5F4799"></path><path d="M46.51,277.71c-.07.06.5.63,1.28,1.83A49.15,49.15,0,0,1,52,287a59.32,59.32,0,0,1,4.52,15.93h0q.09.56.15,1.11a3.16,3.16,0,0,1,0,.32l.09-.05.16-.09.46-.26.14-.07.35-.2c0-.21-.07-.42-.1-.62l-.18-.94h0c-.08-.41-.16-.84-.25-1.27-.15-.7-.31-1.42-.49-2.16h0a54,54,0,0,0-4.35-12A42.36,42.36,0,0,0,48,279.49,16.87,16.87,0,0,0,46.51,277.71Z" style="opacity:0.2"></path></g><g id="freepik--bullrush--inject-14"><path d="M46.32,299.35a36,36,0,0,1,1.6,6.09,42.2,42.2,0,0,1,.54,6h0a44.25,44.25,0,0,1-.16,4.82c0,.18,0,.36,0,.54s0,.25,0,.37l.08-.05.09-.05.15-.08.46-.26.14-.08,0-.28c0-.48,0-1,.05-1.48h0c0-1,0-2.11,0-3.21h0a38.87,38.87,0,0,0-.83-6.4,30.7,30.7,0,0,0-1.85-6,12,12,0,0,0-.75-1.55C45.69,297.83,46,298.34,46.32,299.35Z" style="fill:#5F4799"></path><path d="M46.32,299.35a36,36,0,0,1,1.6,6.09,42.2,42.2,0,0,1,.54,6h0a44.25,44.25,0,0,1-.16,4.82c0,.18,0,.36,0,.54s0,.25,0,.37l.08-.05.09-.05.15-.08.46-.26.14-.08,0-.28c0-.48,0-1,.05-1.48h0c0-1,0-2.11,0-3.21h0a38.87,38.87,0,0,0-.83-6.4,30.7,30.7,0,0,0-1.85-6,12,12,0,0,0-.75-1.55C45.69,297.83,46,298.34,46.32,299.35Z" style="opacity:0.30000000000000004"></path><path d="M49,316.78l.14-.08.36-.2.09-.05.65-.35a41.81,41.81,0,0,0,2.6-11,30.84,30.84,0,0,0,0-6.23,13.2,13.2,0,0,0-.25-1.71c-.07,0,.06.59.08,1.65a37.3,37.3,0,0,1-.3,6.29,43.63,43.63,0,0,1-2.6,9.74c-.12.32-.26.66-.4,1s-.15.36-.23.54S49.05,316.66,49,316.78Z" style="fill:#5F4799"></path><path d="M49,316.78l.14-.08.36-.2.09-.05.65-.35a41.81,41.81,0,0,0,2.6-11,30.84,30.84,0,0,0,0-6.23,13.2,13.2,0,0,0-.25-1.71c-.07,0,.06.59.08,1.65a37.3,37.3,0,0,1-.3,6.29,43.63,43.63,0,0,1-2.6,9.74c-.12.32-.26.66-.4,1s-.15.36-.23.54S49.05,316.66,49,316.78Z" style="opacity:0.30000000000000004"></path><path d="M34.53,303.59c0,.06.5.33,1.33,1a36.16,36.16,0,0,1,4.66,4.23A43.58,43.58,0,0,1,46.91,318l.56-.33.19-.12c-.13-.23-.27-.47-.42-.71h0a40.56,40.56,0,0,0-6.43-8.34,30.49,30.49,0,0,0-4.8-4A11.93,11.93,0,0,0,34.53,303.59Z" style="fill:#5F4799"></path><path d="M34.53,303.59c0,.06.5.33,1.33,1a36.16,36.16,0,0,1,4.66,4.23A43.58,43.58,0,0,1,46.91,318l.56-.33.19-.12c-.13-.23-.27-.47-.42-.71h0a40.56,40.56,0,0,0-6.43-8.34,30.49,30.49,0,0,0-4.8-4A11.93,11.93,0,0,0,34.53,303.59Z" style="opacity:0.30000000000000004"></path><path d="M34.79,294.53c0,.07.57.58,1.49,1.67l.48.57a49.93,49.93,0,0,1,3.45,4.56c.36.54.73,1.13,1.1,1.75a59.43,59.43,0,0,1,5.93,13.73h0c.08.27.16.55.23.83l.19-.12.55-.31.08-.05.09-.05.15-.08-.08-.27h0l-.15-.46c-.06-.18-.13-.37-.19-.56h0a55.88,55.88,0,0,0-6.32-13c-.37-.55-.76-1.11-1.16-1.67A37,37,0,0,0,37,296.58h0l-.05-.06-.39-.39A15.94,15.94,0,0,0,34.79,294.53Z" style="fill:#5F4799"></path><path d="M34.79,294.53c0,.07.57.58,1.49,1.67l.48.57a49.93,49.93,0,0,1,3.45,4.56c.36.54.73,1.13,1.1,1.75a59.43,59.43,0,0,1,5.93,13.73h0c.08.27.16.55.23.83l.19-.12.55-.31.08-.05.09-.05.15-.08-.08-.27h0l-.15-.46c-.06-.18-.13-.37-.19-.56h0a55.88,55.88,0,0,0-6.32-13c-.37-.55-.76-1.11-1.16-1.67A37,37,0,0,0,37,296.58h0l-.05-.06-.39-.39A15.94,15.94,0,0,0,34.79,294.53Z" style="opacity:0.2"></path><path d="M36.71,296.72s-.34.39.19,1.2,2,2.69,2.6,3.35c.37.42,1.64-.2,1.17-.95a25,25,0,0,0-2.5-3.28c-.6-.61-.92-.76-1.27-.53l.05.05s0,.11-.05.17-.12.06-.16,0Z" style="fill:#b16668"></path><path d="M49.13,316.7l.36-.2.09-.05c.07-.51.14-1,.2-1.56a48.85,48.85,0,0,0,0-12.51c-.08-.58-.17-1.18-.27-1.78h0a34.16,34.16,0,0,0-1.2-5h0c-.05-.18-.11-.37-.18-.55a13.63,13.63,0,0,0-.75-1.94c-.07,0,.23.68.54,1.92l.16.64a46.61,46.61,0,0,1,1,5c.07.58.14,1.19.19,1.83a52.83,52.83,0,0,1-.07,9.21h0c-.06.64-.14,1.28-.23,1.94-.13,1-.3,2-.5,3.11h0c0,.12-.05.23-.07.35l.15-.08.46-.26Z" style="fill:#5F4799"></path><path d="M49.13,316.7l.36-.2.09-.05c.07-.51.14-1,.2-1.56a48.85,48.85,0,0,0,0-12.51c-.08-.58-.17-1.18-.27-1.78h0a34.16,34.16,0,0,0-1.2-5h0c-.05-.18-.11-.37-.18-.55a13.63,13.63,0,0,0-.75-1.94c-.07,0,.23.68.54,1.92l.16.64a46.61,46.61,0,0,1,1,5c.07.58.14,1.19.19,1.83a52.83,52.83,0,0,1-.07,9.21h0c-.06.64-.14,1.28-.23,1.94-.13,1-.3,2-.5,3.11h0c0,.12-.05.23-.07.35l.15-.08.46-.26Z" style="opacity:0.2"></path><path d="M48.06,295.62s-.42.19-.32,1,.56,2.93.77,3.69c.14.48,1.38.48,1.31-.3a22.41,22.41,0,0,0-.72-3.6c-.24-.72-.44-1-.81-.91l0,0s0,.1-.1.12a.12.12,0,0,1-.14,0Z" style="fill:#b16668"></path><path d="M38.12,290.56c-.06.06.5.64,1.28,1.83a49.91,49.91,0,0,1,4.19,7.42,59.8,59.8,0,0,1,4.52,15.93h0c0,.36.1.73.14,1.1,0,.11,0,.22,0,.32l.09-.05.15-.08.46-.26.14-.08.36-.2c0-.2-.07-.41-.11-.62s-.11-.62-.18-.94h0c-.07-.42-.16-.84-.25-1.27-.14-.71-.31-1.43-.49-2.17h0a54.14,54.14,0,0,0-4.35-12,41.73,41.73,0,0,0-4.47-7.15A15.72,15.72,0,0,0,38.12,290.56Z" style="fill:#5F4799"></path><path d="M38.12,290.56c-.06.06.5.64,1.28,1.83a49.91,49.91,0,0,1,4.19,7.42,59.8,59.8,0,0,1,4.52,15.93h0c0,.36.1.73.14,1.1,0,.11,0,.22,0,.32l.09-.05.15-.08.46-.26.14-.08.36-.2c0-.2-.07-.41-.11-.62s-.11-.62-.18-.94h0c-.07-.42-.16-.84-.25-1.27-.14-.71-.31-1.43-.49-2.17h0a54.14,54.14,0,0,0-4.35-12,41.73,41.73,0,0,0-4.47-7.15A15.72,15.72,0,0,0,38.12,290.56Z" style="opacity:0.2"></path></g><g id="freepik--bullrush--inject-14"><path d="M240.22,218.41a34,34,0,0,0,.53,5.74,39.77,39.77,0,0,0,1.43,5.37h0a41.83,41.83,0,0,0,1.65,4.1l.21.44.15.31-.08,0H244l-.16,0-.47-.08-.15,0-.1-.24c-.17-.4-.34-.82-.51-1.25h0c-.36-.88-.68-1.81-1-2.77h0a35.46,35.46,0,0,1-1.3-5.76,28.23,28.23,0,0,1-.27-5.71,12.23,12.23,0,0,1,.16-1.57C240.29,216.91,240.2,217.44,240.22,218.41Z" style="fill:#5F4799"></path><path d="M240.22,218.41a34,34,0,0,0,.53,5.74,39.77,39.77,0,0,0,1.43,5.37h0a41.83,41.83,0,0,0,1.65,4.1l.21.44.15.31-.08,0H244l-.16,0-.47-.08-.15,0-.1-.24c-.17-.4-.34-.82-.51-1.25h0c-.36-.88-.68-1.81-1-2.77h0a35.46,35.46,0,0,1-1.3-5.76,28.23,28.23,0,0,1-.27-5.71,12.23,12.23,0,0,1,.16-1.57C240.29,216.91,240.2,217.44,240.22,218.41Z" style="opacity:0.30000000000000004"></path><path d="M243.39,234.24l-.15,0a2.25,2.25,0,0,0-.36-.06h-.1c-.22-.05-.44-.08-.67-.11a37.73,37.73,0,0,1-5.67-8.6,27.82,27.82,0,0,1-2-5.35,10.18,10.18,0,0,1-.32-1.55c.06,0,.13.53.44,1.44a34.27,34.27,0,0,0,2.23,5.32,39.63,39.63,0,0,0,5.29,7.56l.65.73.37.39Z" style="fill:#5F4799"></path><path d="M243.39,234.24l-.15,0a2.25,2.25,0,0,0-.36-.06h-.1c-.22-.05-.44-.08-.67-.11a37.73,37.73,0,0,1-5.67-8.6,27.82,27.82,0,0,1-2-5.35,10.18,10.18,0,0,1-.32-1.55c.06,0,.13.53.44,1.44a34.27,34.27,0,0,0,2.23,5.32,39.63,39.63,0,0,0,5.29,7.56l.65.73.37.39Z" style="opacity:0.30000000000000004"></path><path d="M251.69,218.37c.05,0-.32.44-.83,1.27a32.76,32.76,0,0,0-2.68,5.1,40.18,40.18,0,0,0-2.63,9.88l-.59-.11-.19,0c0-.25.09-.5.14-.75h0a37.8,37.8,0,0,1,2.92-9.19,28,28,0,0,1,2.88-4.93A13.53,13.53,0,0,1,251.69,218.37Z" style="fill:#5F4799"></path><path d="M251.69,218.37c.05,0-.32.44-.83,1.27a32.76,32.76,0,0,0-2.68,5.1,40.18,40.18,0,0,0-2.63,9.88l-.59-.11-.19,0c0-.25.09-.5.14-.75h0a37.8,37.8,0,0,1,2.92-9.19,28,28,0,0,1,2.88-4.93A13.53,13.53,0,0,1,251.69,218.37Z" style="opacity:0.30000000000000004"></path><path d="M248.63,210.66c.07,0-.31.67-.76,1.9-.07.21-.15.41-.23.64a44,44,0,0,0-1.54,5c-.14.58-.27,1.19-.4,1.84a54.94,54.94,0,0,0-.8,13.67h0c0,.26,0,.52.05.78l-.19,0-.57-.1-.08,0H244l-.16,0v-.25h0c0-.14,0-.29,0-.43s0-.37,0-.55h0a50.69,50.69,0,0,1,1.35-13.19c.15-.6.31-1.2.47-1.8a35.71,35.71,0,0,1,1.77-5h0l0-.07.21-.46A15.26,15.26,0,0,1,248.63,210.66Z" style="fill:#5F4799"></path><path d="M248.63,210.66c.07,0-.31.67-.76,1.9-.07.21-.15.41-.23.64a44,44,0,0,0-1.54,5c-.14.58-.27,1.19-.4,1.84a54.94,54.94,0,0,0-.8,13.67h0c0,.26,0,.52.05.78l-.19,0-.57-.1-.08,0H244l-.16,0v-.25h0c0-.14,0-.29,0-.43s0-.37,0-.55h0a50.69,50.69,0,0,1,1.35-13.19c.15-.6.31-1.2.47-1.8a35.71,35.71,0,0,1,1.77-5h0l0-.07.21-.46A15.26,15.26,0,0,1,248.63,210.66Z" style="opacity:0.2"></path><path d="M247.67,213.14s.41.24.21,1.09a37,37,0,0,1-1.19,3.7c-.19.48-1.47.34-1.3-.45a21.52,21.52,0,0,1,1.13-3.61c.31-.71.55-.94.92-.85l0,0c0,.05,0,.11.1.14a.11.11,0,0,0,.14,0Z" style="fill:#b16668"></path><path d="M243.24,234.22a2.25,2.25,0,0,0-.36-.06h-.1l-.66-1.29a44.56,44.56,0,0,1-3.92-10.75q-.16-.8-.33-1.62h0a30.35,30.35,0,0,1-.52-4.65h0c0-.18,0-.35,0-.53a12.35,12.35,0,0,1,0-1.9c.07,0,0,.66.13,1.81l.06.6a43.36,43.36,0,0,0,.72,4.6c.12.52.25,1.06.41,1.63a48.25,48.25,0,0,0,2.95,7.9h0c.25.53.51,1.06.79,1.6.44.83.9,1.67,1.41,2.51h0l.17.28-.16,0-.47-.08Z" style="fill:#5F4799"></path><path d="M243.24,234.22a2.25,2.25,0,0,0-.36-.06h-.1l-.66-1.29a44.56,44.56,0,0,1-3.92-10.75q-.16-.8-.33-1.62h0a30.35,30.35,0,0,1-.52-4.65h0c0-.18,0-.35,0-.53a12.35,12.35,0,0,1,0-1.9c.07,0,0,.66.13,1.81l.06.6a43.36,43.36,0,0,0,.72,4.6c.12.52.25,1.06.41,1.63a48.25,48.25,0,0,0,2.95,7.9h0c.25.53.51,1.06.79,1.6.44.83.9,1.67,1.41,2.51h0l.17.28-.16,0-.47-.08Z" style="opacity:0.2"></path><path d="M237.56,215.75s.43,0,.6.8.44,2.69.5,3.41c0,.46-1,.85-1.22.15a19.68,19.68,0,0,1-.51-3.32c0-.69.07-1,.4-1v.05s0,.08.12.08a.12.12,0,0,0,.11-.08Z" style="fill:#b16668"></path><path d="M244.53,208.29c.07,0-.23.7-.53,2a44.38,44.38,0,0,0-1.28,7.69,54.85,54.85,0,0,0,1.1,15.11h0c.07.33.15.66.23,1a2.46,2.46,0,0,0,.07.29H244l-.16,0-.47-.08-.15,0a2.25,2.25,0,0,0-.36-.06c0-.19-.07-.38-.11-.57s-.1-.57-.14-.86h0c-.07-.39-.13-.78-.19-1.17-.09-.66-.18-1.33-.25-2h0a49.41,49.41,0,0,1,0-11.67,38,38,0,0,1,1.61-7.56A14.06,14.06,0,0,1,244.53,208.29Z" style="fill:#5F4799"></path><path d="M244.53,208.29c.07,0-.23.7-.53,2a44.38,44.38,0,0,0-1.28,7.69,54.85,54.85,0,0,0,1.1,15.11h0c.07.33.15.66.23,1a2.46,2.46,0,0,0,.07.29H244l-.16,0-.47-.08-.15,0a2.25,2.25,0,0,0-.36-.06c0-.19-.07-.38-.11-.57s-.1-.57-.14-.86h0c-.07-.39-.13-.78-.19-1.17-.09-.66-.18-1.33-.25-2h0a49.41,49.41,0,0,1,0-11.67,38,38,0,0,1,1.61-7.56A14.06,14.06,0,0,1,244.53,208.29Z" style="opacity:0.2"></path></g><g id="freepik--lake--inject-14"><path d="M186.49,237.85c27.67-6,67.95-9,99.18,0,23.58,6.82,19.15,27.38-2.56,36s-52.73,20.76-73.7,34.81-66.08,56.61-116,57.91S41.33,328,48.54,313.37C61.13,287.84,113.87,253.67,186.49,237.85Z" style="fill:#5F4799"></path><path d="M186.49,237.85c27.67-6,67.95-9,99.18,0,23.58,6.82,19.15,27.38-2.56,36s-52.73,20.76-73.7,34.81-66.08,56.61-116,57.91S41.33,328,48.54,313.37C61.13,287.84,113.87,253.67,186.49,237.85Z" style="fill:#fff;opacity:0.7000000000000001"></path><g style="opacity:0.25"><path d="M76,353.74c-1.53-.61-3.86-.16-5.7.47-3.54,1.19-6.52,3-10.07,4.11l.28.21,2.68,1.55c2.44-1.08,5.52-1.69,7.44-2.38a3,3,0,0,1,1-.25,1.44,1.44,0,0,1,1.25,1,4.55,4.55,0,0,1,.16,1.74c-.06,1.35-.17,2.71-.32,4.07,1.25.36,2.56.69,3.92,1a4.29,4.29,0,0,1-.25-1.94,31.84,31.84,0,0,1,1.08-3.89,7.89,7.89,0,0,0,0-3.71A2.49,2.49,0,0,0,76,353.74ZM279.39,272c-3,.69-6.16,1.93-9,1.46s-3.9-2.59-6.71-3.21-6.74.57-9.84.14-4.6-2.77-2.83-4.58,5.54-2.6,7.84-4.19c2-1.37,2.63-3.28,1.6-4.72a7.8,7.8,0,0,1-1-1.4c-.75-1.8,2.29-3.65,4.84-5.12s5.31-3.34,5.89-5.38a15.64,15.64,0,0,1,.5-2.39,8.85,8.85,0,0,1,2.9-2.79,20.29,20.29,0,0,1,6.82-3.4q-3.42-.83-6.95-1.48l-.17.11c-1.42,1-2.9,2.18-4.51,2.3a6,6,0,0,1-3.51-1.17,3.39,3.39,0,0,1-1.89-2,2.12,2.12,0,0,1,0-.71q-4.74-.56-9.56-.87c-1.27.37-2.57.71-3.83,1-4.31,1.1-9.08,2.51-11,5-1.46,1.88-.92,3.94-2,5.88-1.4,2.4-4.67,3.58-7.07,4.15-3.3.79-6.52.21-9.7.06a26.94,26.94,0,0,0-7.35.86c-3.17.74-8.33,2.84-9.62,1.24-.82-1,3-1.82,4.66-2.67,2.92-1.5,4.31-3.81,4.07-5.85s-1.93-3.83-4.2-5.25a13.45,13.45,0,0,1-3.21-2.26.61.61,0,0,1-.07-.1c-6.36.89-12.39,2-17.91,3.17-2.41.53-4.78,1.07-7.14,1.63a59.27,59.27,0,0,0-8.07,3.5,18.23,18.23,0,0,0-4.27,2.89c-1.91,1.87-2.47,4.13-5.15,5.68-3.66,2.1-9.18,1.82-13.73,1.35a7.47,7.47,0,0,1-2.73-.61c-1.24-.68-.89-1.88,0-2.94q-2.58.9-5.11,1.81a15.91,15.91,0,0,1-1.38,3.33c-1,1.57-2.81,2.46-3.92,4a11.76,11.76,0,0,0-1.82,6c-.22,2.19-.44,4.51-1.8,6.44a8,8,0,0,1-3.34,2.71,25.19,25.19,0,0,1-9.63,1.5,12.85,12.85,0,0,1-2.81-.41c-2.69-.9-2.11-3.4-.28-5.17s4.59-3.27,5.85-5.15a4.29,4.29,0,0,0-.32-5.21l-.11-.13q-3.67,1.62-7.2,3.29a12.68,12.68,0,0,1-1.87,3.27c-1.26,1.8-2.53,3.59-3.8,5.39s-2.36,4-.11,5.12,6.67.43,7.53,2c.41.75-.33,1.66-1.19,2.42-4.82,4.28-13.21,6.77-19.82,10.21C92,292,89.8,293.38,88.92,295c-.53,1-.56,2-1,3a4.66,4.66,0,0,1-3.37,2.41c-2.52.47-4.41-.82-6.25-1.67-3.55-1.64-8.72-1.83-12.7-3.13a17.22,17.22,0,0,1-2.25-.92c-.86.82-1.71,1.63-2.52,2.44,1.82.55,3.71,1.22,3.61,2.43-.11,1.43-2.88,2.42-4.9,3.43-4,2-5.88,5.34-4.47,7.93.62,1.13,1.81,2.14,1.86,3.37s-1.08,2.53-2.63,3.55c-1.26.84-2.61,1.22-3.88,2A33.41,33.41,0,0,1,46.26,322l-.31.13c-.15,1-.27,2-.34,3.08a43.26,43.26,0,0,1,5.84-3.32,59.32,59.32,0,0,0,9.1-4.95c2.18-1.59,3.75-3.75,2.33-5.31a28.8,28.8,0,0,0-2.6-1.87c-2.38-2.09.32-5.51,4.56-7s9.29-1.44,13.6-.79a40.47,40.47,0,0,1,9.13,2.46c2.57,1.06,5,2.42,8.24,2.67,4.07.32,8.38-1.13,12.61-1.44a4.87,4.87,0,0,1,3,.43,1.41,1.41,0,0,1,.42,1.17c0,1.71.07,3.42.1,5.12a3.54,3.54,0,0,1-.91,3,12.63,12.63,0,0,1-3.93,2.07c-8.33,3.34-15.4,7.86-20.26,12.94a13,13,0,0,1-4.17,3.37c-1.91.86-4.91,1-6,0-.8-.81-.21-2.09-.64-3.05-.56-1.26-1.76-1.09-3-.76-3.41.88-6.78,2.08-10.17,3.17-3.68,1.19-7.56,2.53-11.22,2.38a28,28,0,0,1-5.66-.7,38.45,38.45,0,0,0,1.06,4.77,1.23,1.23,0,0,1,.8,1.15,1.59,1.59,0,0,1-.22.72A36.44,36.44,0,0,0,49.1,345c.45-.25.89-.49,1.36-.72a57.37,57.37,0,0,1,21.2-5.47,30,30,0,0,0,4.94-.53,28,28,0,0,1,4-1A8.27,8.27,0,0,1,86,339l4.85,3.13c3.07,2,7,4.09,12,3.38a17.16,17.16,0,0,0,7.06-2.87,9.81,9.81,0,0,1,2.31-1.28,3.68,3.68,0,0,1,2.74,0c1,.63-.13,1.73-.88,2.6a3.23,3.23,0,0,0-.36,4.22,3.5,3.5,0,0,1,.78,1.15c.18.81-.73,1.69-1.9,2.3a37.22,37.22,0,0,1-3.88,1.51c-4.72,1.79-8.22,4.76-9.16,7.81l-.31.9a15.22,15.22,0,0,1-4.64,4.71,94.56,94.56,0,0,0,11.66-1.18,3.64,3.64,0,0,1-1.75-3.62c.36-2.11,2.48-4.16,5-5.89A24,24,0,0,1,115,353c4.65-1.67,10.52-1.82,14.58-.37,2.65.93,4.47,2.44,6.72,3.65,1.12-.49,2.24-1,3.34-1.5a12.51,12.51,0,0,1-4.27-2.42c-3.1-2.89-2-7.53,3.34-10A23.51,23.51,0,0,1,146,340.6a29.12,29.12,0,0,1,11.88,1.17c1.14.4,2.2.87,3.32,1.29l3.48-2.19a7.65,7.65,0,0,1-4.6-1.36c-1-.93-1.13-2.18-2.06-3.16-2.4-2.52-9.78-2.62-10.89-5.51-.86-2.25,2.87-4.68,6.73-5.91s8.22-1.85,11.71-3.45c1.58-.73,3-1.7,3.33-2.77.53-1.7-1.6-3-3.07-4.33s-2.45-3.26-1.3-5c1.37-2.13,5.13-3.54,8.59-4.72a5.28,5.28,0,0,1,1.76-.38,3.29,3.29,0,0,1,1.2.26,6.17,6.17,0,0,1,3.93,4.4c.41,1.74.24,3.57.6,5.31.66,3.15,3.1,6,6.89,8.07.87.2,1.88.34,2.76.56q2.14-1.6,4.15-3.14l-.46.07c-3.16.34-6.44-.38-7.65-1.94a4.51,4.51,0,0,1-.78-2.61c-.12-1.45-.25-2.9-.37-4.34-.16-1.94-.34-3.93-1.6-5.63A9.24,9.24,0,0,0,176.4,302c-1.93,0-4.41.21-5.26-.72s.8-2.17,2.11-3.14a13.89,13.89,0,0,0,4.57-5.22,14.43,14.43,0,0,1,1.84-3.74c1.53-1.81,4.8-3.22,8.12-3.47s6.51.62,7.93,2.21a6,6,0,0,1,1.18,4.15c.12,3.87.23,7.73.35,11.6.06,2.22.15,4.51,1.79,6.39.7.8,1.67,1.5,2.33,2.31a13.7,13.7,0,0,1,1,1.33l2.44-1.79a9.85,9.85,0,0,1-1.68-1.5c-1-1.19-2-3.32-1.11-4.42a2.87,2.87,0,0,1,2-.65c2.75.08,4.29,1.89,6.54,2.55a194.67,194.67,0,0,1,17.65-10.17c-.83-.79-.27-2.15-.49-3.2-.28-1.36-2.06-2.34-2.67-3.63-.84-1.81.76-4,3.2-5.54a42.63,42.63,0,0,1,8.73-3.72,41,41,0,0,0,8.71-3.75c2-1.33,3.49-3,5.84-4.1,3.65-1.76,9.17-1.86,12.09-.2,1,.56,1.67,1.32,1.52,2.17-.22,1.14-1.84,2.11-3.34,3-2.53,1.43-5.05,2.86-7.57,4.27a6.63,6.63,0,0,0-2.5,1.95,1.46,1.46,0,0,0,.14,1.68c3.72-1.6,7.4-3.16,11-4.64a20.11,20.11,0,0,1,1.87-1.23,41,41,0,0,1,13.91-5.14l4.42-1.76a42.68,42.68,0,0,0,4.85-2.29l-.11,0A25.31,25.31,0,0,0,279.39,272Zm-112.5-3.93c2.37-1.89,4.38-4,4.75-6.19.5-2.93-2-5.47-4.68-7.72a3.23,3.23,0,0,1-1.1-1.33,2.11,2.11,0,0,1,.41-1.54c2.42-4,9.23-6.78,15.52-9.18,4.28-1.62,8.75-3.28,13.54-3.79s10,.49,11.41,3c.88,1.58.06,3.48-1.57,5.09a26,26,0,0,1-6.48,4.18,83.61,83.61,0,0,1-9.21,4.22c-2.78,1.32-4.09,3.61-3,5.34a4.18,4.18,0,0,1,.59,1.07c.28,1.5-2.73,2.71-4.95,3.78-3.36,1.63-5.71,4-6.36,6.33-.41,1.48-.2,3-1.32,4.43s-4.4,2.61-6.28,1.77c-2.19-1-.22-3.32-1.39-4.79-.51-.64-1.59-1.07-1.85-1.77C164.51,270,165.79,269,166.89,268.11ZM99.06,304.26c-2.86-.18-5.71-.86-6.88-2.32a3.11,3.11,0,0,1-.34-3.13c1.57-4.62,8.58-8.29,15.1-11.5l17.21-8.48c5.26-2.6,10.93-5.56,12.3-9.28,1.07-2.88-.68-5.77,1.18-8.56,2.16-3.25,8.62-5.28,14.37-5.46,4.17-.12,8.42.64,10.53,2.54a5.37,5.37,0,0,1,1.49,2.32,2.85,2.85,0,0,1-.4,3,15.34,15.34,0,0,1-2.49,1.9c-3.16,2.31-3.9,5.54-1.76,7.77.74.78,1.79,1.45,2.15,2.35.7,1.73-1.58,3.75-4.46,4.83a39.63,39.63,0,0,1-9.45,1.77,37.89,37.89,0,0,0-9.43,1.81,22.56,22.56,0,0,0-6.56,4.2c-1.34,1.13-2.7,2.32-3.06,3.61s.25,2.38-.23,3.59-2.05,2.35-3.77,3.26a26.86,26.86,0,0,1-7,2.53s-1,.24-1.33.35c-.59.21-1.88.5-3,.77C108,303.41,104.34,304.59,99.06,304.26ZM150.63,337a.64.64,0,0,1,0,.63c-.29.44-1.21.62-2,.7-3.7.39-8,.25-10.66,2l-.51.15a17.33,17.33,0,0,0-6.19,4.72,17.24,17.24,0,0,1-2.21,2.81,6.43,6.43,0,0,1-8.35.27c-1.54-1-3.14-2.13-2.83-3.57.35-1.65,3.11-3.06,3.56-4.71.52-1.9-3-3.4-6.17-2.64a19.34,19.34,0,0,0-4.87,2.3,24.5,24.5,0,0,1-5.78,2.19,16.38,16.38,0,0,1-6.63.44,10.52,10.52,0,0,1-4-1.81c-1.59-1.1-3.06-2.32-3.5-3.79-.86-2.78,2-5.79,5.06-8.37a88.48,88.48,0,0,1,12.51-8.7,20.05,20.05,0,0,1,8-3,34.34,34.34,0,0,1,4.42,0c2.28,0,4.64-.12,6.84.11s4.3,1,4.79,2.21c.79,2-2.88,4.22-3.13,6.4-.19,1.51,1.55,2.87,4,3.16a41.88,41.88,0,0,0,5.58-.11c1.88,0,3.93.28,4.46,1.26.36.65-.05,1.44.07,2.15C143.48,334.21,149.53,334.71,150.63,337Zm12.77-33.38c-1,.91-2.31,1.67-3.39,2.53-3.43,2.76-3.46,6.57,0,8.74,1.33.83,3.2,1.58,3.16,2.81,0,1-1.46,2-3.07,2.54s-3.71,1.19-5.27,1.8c-2.21.86-5.41,2.84-7.69,3.65a25.87,25.87,0,0,1-4.83,1,17.28,17.28,0,0,1-5.44-.54,7.05,7.05,0,0,1-3-1.26c-1.37-1.28-.14-3.12,1-4.68s2.27-3.43.73-4.63c-1.08-.82-3.15-1-5.09-1s-3.94.3-5.83.18c-4.36-.27-7.28-2.64-7.3-5.21s2.42-5.23,5.75-7.27a54.27,54.27,0,0,1,11.68-4.88c3.91-1.24,8.52-2.38,12.15-1.51s5.12,3.46,9,3.94c2.75.35,6.54-.39,8,.92C164.83,301.6,164.35,302.75,163.4,303.65ZM197.8,283c-2.6.25-5.13,0-7.71.07a48.93,48.93,0,0,0-8.14,1c-3.44.68-7.11,1.72-9,3.57-2.66,2.61-1.11,6.17-5.07,8.2-2.78,1.42-6.81,1.21-9.65.34s-5-2.27-8-3.06a28.79,28.79,0,0,0-8-.73,5.41,5.41,0,0,0-1.08.18c-1.93.78-4.48.93-5.48-.1s.18-2.8,1.46-3.93c1.83-1.63,4.83-2.77,7.92-3.39a47.6,47.6,0,0,1,9.37-.7c4.31,0,8.89.32,12.92-1a19.39,19.39,0,0,0,4.64-2.35,24.48,24.48,0,0,0,6.2-5.79c1.51-2.07,2.41-4.26,4.48-6.2a18.52,18.52,0,0,1,11.34-4.42c4.45-.18,8.61,1.63,8.63,4.18,0,2.16-2.57,4.72-.54,6.37,1.41,1.13,4.69,1.37,5.2,2.79.34,1-.86,2.06-2.25,2.83A19.37,19.37,0,0,1,197.8,283Zm42.9-6.81c-2.58,1.33-5.63,2.29-8.38,3.49a31.55,31.55,0,0,0-7.82,4.72c-1.84,1.55-3.3,3.29-3.48,5-.24,2.18,1.52,4.09,1.83,6.21s-1,4.67-3.65,6.61a13,13,0,0,1-8.6,2.47c-4.47-.58-5.81-3.63-8.21-5.79a2.06,2.06,0,0,1-.26-.54,8.4,8.4,0,0,1-.58-6.23c.43-1.51,1.19-3.23-.33-4.31a7.29,7.29,0,0,1-1.36-.9c-.91-1.07,1.23-2.49,3.37-3s4.51-.58,6.45-1.35c2.81-1.11,3.7-3.27,3.48-5.07a4.89,4.89,0,0,1,0-2.63c.5-1.24,2.2-2.28,3.94-3.13a46.55,46.55,0,0,1,15.55-4.27,25.3,25.3,0,0,1,8.15.26c2.45.56,4.38,1.82,4.51,3.42C245.44,273,243.28,274.87,240.7,276.18Zm4-12.28c-5.68.94-11.4.09-17.11.93A29.25,29.25,0,0,0,216,269.14a21.71,21.71,0,0,1-3.65,2.21,7,7,0,0,1-4.65.41c-1.42-.55-1.41-1.8-1-2.86s1.16-2.17.74-3.16c-.53-1.24-3.46-2.24-4.95-2.75a34.11,34.11,0,0,1-7.66-.16c-2.35-.44-4.34-1.58-4.28-3.08.1-2.2,4.22-3.92,7.91-4.89A86,86,0,0,1,220.72,252c4,0,8,.33,11.94-.59,5.93-1.39,9.61-5.22,10.74-8.75a7.22,7.22,0,0,1,.92-2.23c1.85-2.55,7.61-3.68,11.84-3.09,3.88.55,7,2.22,8.11,4.41s.35,4.83-2.11,7a34.1,34.1,0,0,1-6,3.71c-2.29,1.25-4.77,3-3.74,4.5.61.87,2.37,1.43,2.22,2.42-.09.56-.78,1.07-1.51,1.51A24.13,24.13,0,0,1,244.67,263.9Zm55.79-7.22c-2.06-.2-4.2,0-6.24-.21-1.76-.2-3.64-1-3.86-2.76a4.88,4.88,0,0,1,1.3-3.42c.81-1,1.81-1.87,2.67-2.85a12.77,12.77,0,0,0,2.33-3.92,22,22,0,0,0-4.36-3c.68,2.45-.9,5.23-3.37,7.6s-6.26,5.09-5.39,7.65c.8,2.38,5.21,3.42,9.22,4a45.57,45.57,0,0,1,6.56,1.32,17.14,17.14,0,0,0,1.76-4.34C300.87,256.72,300.66,256.7,300.46,256.68Z" style="fill:#fff"></path></g><path d="M301.34,255.41c-.85-5.78-5.81-11-15.67-13.88-31.23-9-71.51-6-99.18,0-72.62,15.82-125.36,50-138,75.52a33.64,33.64,0,0,0-3,13.09c-.29-6.6,1-12.67,3-16.76,12.59-25.54,65.33-59.71,138-75.52,27.67-6,67.95-9,99.18,0C297.59,241.31,302.35,248.26,301.34,255.41Z" style="opacity:0.1"></path></g></g></g><g id="freepik--Tents--inject-14"><g id="freepik--Tent--inject-14"><path d="M339.86,388.67v-7.78H333.5v7.78a1.58,1.58,0,0,0,.93,1.3,5,5,0,0,0,4.5,0A1.58,1.58,0,0,0,339.86,388.67Z" style="fill:#37474f"></path><path d="M334.43,379.6a5,5,0,0,1,4.5,0c1.24.71,1.24,1.87,0,2.59a5,5,0,0,1-4.5,0C333.19,381.47,333.19,380.31,334.43,379.6Z" style="fill:#455a64"></path><path d="M339.86,383v1.19h0a1.45,1.45,0,0,1-.87,1.17,5,5,0,0,1-4.6,0,1.45,1.45,0,0,1-.87-1.16h0V383a1.69,1.69,0,0,0-.55,1.19h0a2,2,0,0,0,1.15,1.64,5.68,5.68,0,0,0,5.16,0,2,2,0,0,0,1.15-1.65A1.69,1.69,0,0,0,339.86,383Z" style="fill:#f0f0f0"></path><path d="M347.74,390.14a.23.23,0,0,1-.14,0l-8.06-4.65a.27.27,0,0,1-.1-.37.27.27,0,0,1,.38-.1l8.05,4.64a.27.27,0,0,1,.1.38A.27.27,0,0,1,347.74,390.14Z" style="fill:#fff"></path><polygon points="394.14 424.44 394.14 416.66 448.04 385.54 448.04 393.32 394.14 424.44" style="fill:#5F4799"></polygon><g style="opacity:0.5"><polygon points="394.14 424.44 394.14 416.66 448.04 385.54 448.04 393.32 394.14 424.44" style="fill:#fff"></polygon></g><g style="opacity:0.1"><polygon points="394.14 424.44 394.14 416.66 448.04 385.54 448.04 393.32 394.14 424.44"></polygon></g><polygon points="344.73 395.91 394.14 424.44 394.14 416.66 369.44 350.53 344.73 388.13 344.73 395.91" style="fill:#5F4799"></polygon><polygon points="344.73 395.91 394.14 424.44 394.14 416.66 369.44 350.53 344.73 388.13 344.73 395.91" style="opacity:0.1"></polygon><polygon points="344.73 395.91 394.14 424.44 394.14 416.66 369.44 350.53 344.73 388.13 344.73 395.91" style="fill:#fff;opacity:0.6000000000000001"></polygon><path d="M369.44,350.53,343.5,390s7.86-9.75,13.82-18.47A200.66,200.66,0,0,0,369.44,350.53Z" style="fill:#5F4799"></path><path d="M380.66,416.66c-7.25-18.81-10.67-41.15-11.22-66.13-2.46,21.38-5.7,40.54-11.23,53.16Z" style="fill:#455a64"></path><path d="M395.15,418.67a382.26,382.26,0,0,1-25.71-68.14l53.89-31.11A384.39,384.39,0,0,0,449,387.56Z" style="fill:#5F4799"></path><path d="M395.15,418.67a382.26,382.26,0,0,1-25.71-68.14l53.89-31.11A384.39,384.39,0,0,0,449,387.56Z" style="fill:#fff;opacity:0.7000000000000001"></path><path d="M395.15,418.67l-25.71-68.14A382.26,382.26,0,0,0,395.15,418.67Z" style="fill:#5F4799"></path><path d="M369.44,350.53,343.5,390s7.86-9.75,13.82-18.47A200.66,200.66,0,0,0,369.44,350.53Z" style="fill:#fff;opacity:0.8"></path><path d="M395.15,418.67l-25.71-68.14A382.26,382.26,0,0,0,395.15,418.67Z" style="fill:#fff;opacity:0.8"></path><path d="M364.05,384.76a105.3,105.3,0,0,1-5.84,18.93l22.45,13a163.37,163.37,0,0,1-9-36.32Z" style="fill:#37474f"></path><path d="M407.61,424.71l-.14,0-11.22-6.49a.26.26,0,0,1-.1-.37.27.27,0,0,1,.37-.1l11.23,6.48a.27.27,0,0,1,.1.38A.28.28,0,0,1,407.61,424.71Z" style="fill:#f0f0f0"></path><path d="M410.79,429.62v-7.77h-6.35v7.77a1.58,1.58,0,0,0,.93,1.3,4.94,4.94,0,0,0,4.49,0A1.58,1.58,0,0,0,410.79,429.62Z" style="fill:#37474f"></path><ellipse cx="407.61" cy="421.84" rx="3.18" ry="1.83" style="fill:#455a64"></ellipse><path d="M410.79,423.92v1.19h0a1.46,1.46,0,0,1-.88,1.17,5.1,5.1,0,0,1-4.6,0,1.47,1.47,0,0,1-.87-1.17h0v-1.19a1.66,1.66,0,0,0-.55,1.2h0a2,2,0,0,0,1.14,1.65,5.32,5.32,0,0,0,2.58.61,5.26,5.26,0,0,0,2.58-.61,2,2,0,0,0,1.15-1.65A1.66,1.66,0,0,0,410.79,423.92Z" style="fill:#f0f0f0"></path><path d="M459.26,394.78a.22.22,0,0,1-.13,0l-11.23-6.48a.27.27,0,0,1-.1-.38.27.27,0,0,1,.37-.1l11.23,6.49a.27.27,0,0,1,.1.37A.27.27,0,0,1,459.26,394.78Z" style="fill:#f0f0f0"></path><path d="M462.44,399.69v-7.78h-6.35v7.78A1.58,1.58,0,0,0,457,401a5,5,0,0,0,4.49,0A1.58,1.58,0,0,0,462.44,399.69Z" style="fill:#37474f"></path><path d="M457,390.62a4.94,4.94,0,0,1,4.49,0c1.24.71,1.24,1.87,0,2.59a5,5,0,0,1-4.49,0C455.78,392.49,455.78,391.33,457,390.62Z" style="fill:#455a64"></path><path d="M462.44,394v1.19h0a1.45,1.45,0,0,1-.87,1.16,5.06,5.06,0,0,1-4.61,0,1.45,1.45,0,0,1-.87-1.16h0V394a1.66,1.66,0,0,0-.55,1.2h0a2,2,0,0,0,1.15,1.64,5.66,5.66,0,0,0,5.15,0,2,2,0,0,0,1.15-1.64A1.66,1.66,0,0,0,462.44,394Z" style="fill:#f0f0f0"></path></g><g id="freepik--tent--inject-14"><path d="M240.13,410.77v-7h5.68v7a1.42,1.42,0,0,1-.83,1.16,4.43,4.43,0,0,1-4,0A1.41,1.41,0,0,1,240.13,410.77Z" style="fill:#37474f"></path><path d="M245,402.65a4.43,4.43,0,0,0-4,0,1.22,1.22,0,0,0,0,2.32,4.43,4.43,0,0,0,4,0A1.22,1.22,0,0,0,245,402.65Z" style="fill:#455a64"></path><path d="M240.13,405.67v1.07h0a1.29,1.29,0,0,0,.77,1,4.53,4.53,0,0,0,4.12,0,1.31,1.31,0,0,0,.78-1h0v-1.06a1.5,1.5,0,0,1,.49,1.07h0a1.75,1.75,0,0,1-1,1.47,5.11,5.11,0,0,1-4.61,0,1.76,1.76,0,0,1-1-1.47A1.54,1.54,0,0,1,240.13,405.67Z" style="fill:#f0f0f0"></path><path d="M233.09,412.08a.24.24,0,0,0,.12,0l7.2-4.16a.25.25,0,0,0,.09-.34.26.26,0,0,0-.33-.09l-7.2,4.16a.25.25,0,0,0-.09.34A.24.24,0,0,0,233.09,412.08Z" style="fill:#fff"></path><polygon points="191.62 442.74 191.62 435.78 143.44 407.97 143.44 414.92 191.62 442.74" style="fill:#5F4799"></polygon><g style="opacity:0.5"><polygon points="191.62 442.74 191.62 435.78 143.44 407.97 143.44 414.92 191.62 442.74" style="fill:#fff"></polygon></g><g style="opacity:0.1"><polygon points="191.62 442.74 191.62 435.78 143.44 407.97 143.44 414.92 191.62 442.74"></polygon></g><polygon points="235.78 417.24 191.62 442.74 191.62 435.78 213.69 376.68 235.78 410.29 235.78 417.24" style="fill:#5F4799"></polygon><polygon points="235.78 417.24 191.62 442.74 191.62 435.78 213.69 376.68 235.78 410.29 235.78 417.24" style="opacity:0.1"></polygon><polygon points="235.78 417.24 191.62 442.74 191.62 435.78 213.69 376.68 235.78 410.29 235.78 417.24" style="fill:#fff;opacity:0.6000000000000001"></polygon><path d="M213.69,376.68,236.88,412s-7-8.72-12.36-16.52A179,179,0,0,1,213.69,376.68Z" style="fill:#5F4799"></path><path d="M203.66,435.78c6.48-16.81,9.54-36.77,10-59.1,2.2,19.1,5.09,36.23,10,47.51Z" style="fill:#455a64"></path><path d="M190.71,437.58a342.25,342.25,0,0,0,23-60.9l-48.17-27.81a342.25,342.25,0,0,1-23,60.9Z" style="fill:#5F4799"></path><path d="M190.71,437.58a342.25,342.25,0,0,0,23-60.9l-48.17-27.81a342.25,342.25,0,0,1-23,60.9Z" style="fill:#fff;opacity:0.7000000000000001"></path><path d="M190.71,437.58l23-60.9A342.25,342.25,0,0,1,190.71,437.58Z" style="fill:#5F4799"></path><path d="M213.69,376.68,236.88,412s-7-8.72-12.36-16.52A179,179,0,0,1,213.69,376.68Z" style="fill:#fff;opacity:0.8"></path><path d="M190.71,437.58l23-60.9A342.25,342.25,0,0,1,190.71,437.58Z" style="fill:#fff;opacity:0.8"></path><path d="M218.51,407.27a93.88,93.88,0,0,0,5.22,16.92l-20.07,11.59a145.1,145.1,0,0,0,8-32.46Z" style="fill:#37474f"></path><path d="M179.57,443a.31.31,0,0,0,.13,0l10-5.79a.25.25,0,0,0-.25-.43l-10,5.79a.25.25,0,0,0-.09.34A.24.24,0,0,0,179.57,443Z" style="fill:#f0f0f0"></path><path d="M176.73,447.37v-6.95h5.68v6.95a1.42,1.42,0,0,1-.83,1.16,4.45,4.45,0,0,1-4,0A1.42,1.42,0,0,1,176.73,447.37Z" style="fill:#37474f"></path><path d="M181.58,439.26a4.45,4.45,0,0,0-4,0,1.23,1.23,0,0,0,0,2.32,4.45,4.45,0,0,0,4,0A1.22,1.22,0,0,0,181.58,439.26Z" style="fill:#455a64"></path><path d="M176.73,442.27v1.07h0a1.31,1.31,0,0,0,.78,1.05,4.6,4.6,0,0,0,4.12,0,1.31,1.31,0,0,0,.78-1.05h0v-1.07a1.52,1.52,0,0,1,.49,1.07h0a1.76,1.76,0,0,1-1,1.47,5.11,5.11,0,0,1-4.61,0,1.76,1.76,0,0,1-1-1.48A1.52,1.52,0,0,1,176.73,442.27Z" style="fill:#f0f0f0"></path><path d="M133.4,416.23a.28.28,0,0,0,.13,0l10-5.8a.25.25,0,0,0,.09-.34.25.25,0,0,0-.33-.09l-10,5.8a.24.24,0,0,0-.09.33A.26.26,0,0,0,133.4,416.23Z" style="fill:#f0f0f0"></path><path d="M130.57,420.62v-7h5.67v7a1.4,1.4,0,0,1-.83,1.16,4.43,4.43,0,0,1-4,0A1.38,1.38,0,0,1,130.57,420.62Z" style="fill:#37474f"></path><path d="M135.41,412.5a4.43,4.43,0,0,0-4,0,1.22,1.22,0,0,0,0,2.32,4.43,4.43,0,0,0,4,0A1.22,1.22,0,0,0,135.41,412.5Z" style="fill:#455a64"></path><path d="M130.57,415.52v1.07h0a1.31,1.31,0,0,0,.78,1.05,4.58,4.58,0,0,0,4.11,0,1.33,1.33,0,0,0,.78-1.05h0v-1.06a1.51,1.51,0,0,1,.5,1.07h0a1.76,1.76,0,0,1-1,1.47,5.11,5.11,0,0,1-4.61,0,1.76,1.76,0,0,1-1-1.47A1.51,1.51,0,0,1,130.57,415.52Z" style="fill:#f0f0f0"></path></g></g><g id="freepik--Bonfire--inject-14"><g id="freepik--Fire--inject-14"><path d="M284.42,436.26l14.1-8.1h0a2,2,0,0,1,2,.21,6.33,6.33,0,0,1,2.88,5,2,2,0,0,1-.84,1.86h0l-14,8-.26-.42a3,3,0,0,1-.82-.32,6.37,6.37,0,0,1-2.88-5,3.24,3.24,0,0,1,.09-.73Z" style="fill:#455a64"></path><path d="M301.73,441.86,278,428.16h0a2,2,0,0,0-2,.21,6.35,6.35,0,0,0-2.87,5,2,2,0,0,0,.84,1.86h0l23.66,13.63.25-.42a2.93,2.93,0,0,0,.83-.33,6.32,6.32,0,0,0,2.87-5,2.75,2.75,0,0,0-.09-.73Z" style="fill:#37474f"></path><path d="M299.64,442a6.33,6.33,0,0,0-2.88,5c0,1.83,1.29,2.58,2.88,1.66a6.37,6.37,0,0,0,2.88-5C302.52,441.85,301.23,441.11,299.64,442Z" style="fill:#455a64"></path><path d="M274.79,441.85l9.66-5.57h0a2,2,0,0,1,2,.21,6.37,6.37,0,0,1,2.88,5,2,2,0,0,1-.84,1.86h0l-9.56,5.5-.25-.42a3.26,3.26,0,0,1-.83-.33,6.32,6.32,0,0,1-2.87-5,2.75,2.75,0,0,1,.09-.73Z" style="fill:#455a64"></path><path d="M276.88,442a6.37,6.37,0,0,1,2.88,5c0,1.83-1.29,2.58-2.88,1.66a6.37,6.37,0,0,1-2.88-5C274,441.84,275.29,441.1,276.88,442Z" style="fill:#37474f"></path><path d="M288.35,440.31c-4.11,0-10.34-2.31-10.78-9.6s3.93-10.34,3.93-10.34.48,2.93,2,3.73c0,0-1.71-8.61,2.88-11.67,0,0-.3,4.5,1.53,4.89s2.53-7.33.92-11.08c0,0,2.65,1.13,4.27,5.37s1,10.94,1,10.94a5.38,5.38,0,0,0,2.1-4.14s3.27,6.33,2.84,12.22A10.39,10.39,0,0,1,288.35,440.31Z" style="fill:#5F4799"></path><path d="M288.35,440.31c-4.11,0-10.34-2.31-10.78-9.6s3.93-10.34,3.93-10.34.48,2.93,2,3.73c0,0-1.71-8.61,2.88-11.67,0,0-.3,4.5,1.53,4.89s2.53-7.33.92-11.08c0,0,2.65,1.13,4.27,5.37s1,10.94,1,10.94a5.38,5.38,0,0,0,2.1-4.14s3.27,6.33,2.84,12.22A10.39,10.39,0,0,1,288.35,440.31Z" style="fill:#fff;opacity:0.6000000000000001"></path><path d="M288.31,436.83c-3.77,0-6.41-5.21-2.74-10.41,0,0,.21,3.5,2.11,3.55s2.09-6.67,1.85-8.19c0,0,3.43,4.29,3.43,8.81C293,433.84,291.85,436.83,288.31,436.83Z" style="fill:#fff;opacity:0.8"></path></g></g><g id="freepik--character-3--inject-14"><g id="freepik--Character--inject-14"><path d="M329.94,343.4a2.22,2.22,0,0,0,.17-.48,2.65,2.65,0,0,0-.23-1.59,3.93,3.93,0,0,1-.38-1.89c0-.69.11-1.28.21-2,.44-3.05,1.3-8.09,1.33-9.29a15.9,15.9,0,0,0-.33-4.67s1.43-4.66,2-7.31c.95-4.24,1.6-7.51,1.26-11.2-.3-3.32.06-4.72-1.88-6.95l-.36-.46s-6.73,7.24-7.11,8.49c-.23,4.11-.38,9-.51,12.91a42,42,0,0,0,.4,7.43c.3,3.11.62,6.55,1,10.2a9.44,9.44,0,0,1-.15,3.67c-.76,2.32-2.88,3.7-4.68,5.17a1.46,1.46,0,0,0-.66,1,1,1,0,0,0,.55.83,3.94,3.94,0,0,0,1.22.28,6.1,6.1,0,0,0,1.35.11,7.3,7.3,0,0,0,2.32-.45,6.77,6.77,0,0,0,1.59-1.53,8.18,8.18,0,0,1,1.42-1.34C328.94,344,329.66,343.89,329.94,343.4Z" style="fill:#ffbda7"></path><path d="M319.89,346.69a1.34,1.34,0,0,0,.15.87c.23.28,1,1,3.18.93a4.87,4.87,0,0,0,3.67-1.62c.42-.54.81-1.08,1.22-1.53a3.58,3.58,0,0,1,1.41-.77c.4-.13.52-.27.48-.86S319.89,346.69,319.89,346.69Z" style="fill:#37474f"></path><path d="M329.49,339.59c0,.12,0,.24,0,.36s0,.84-.51,1-.6-.24-1.09-.63c-1.06-.84-2.35-.77-2.66-.06a14.32,14.32,0,0,1-2.38,3.19,10.15,10.15,0,0,1-1.35,1.11c-.51.37-1.76,1-1.64,1.84s.88,1.25,1.91,1.42a6.11,6.11,0,0,0,4-.8,12.93,12.93,0,0,0,2.12-2.15c.64-.64,1.67-.77,2-1.09a2.62,2.62,0,0,0,.23-1.84c-.13-.72-.32-1.37-.34-1.73S329.75,339.62,329.49,339.59Z" style="fill:#455a64"></path><path d="M323.1,344.53a2.9,2.9,0,0,0-1.38-.09.81.81,0,0,0-.37.15c-.51.37-1.65,1-1.53,1.82s.86,1.3,1.89,1.47a5.71,5.71,0,0,0,3.78-.64A3.28,3.28,0,0,0,323.1,344.53Z" style="fill:#f0f0f0"></path><path d="M349.18,340.41a2.46,2.46,0,0,0-.7-1c-.34-.32-.72-.59-1-.94a4.41,4.41,0,0,1-.58-1.17c-.11-.25-.36-1.09-.68-2.2-.87-3-2.24-7.89-2.72-9a10,10,0,0,0-2.63-3.94s-.24-5.13-.34-7.85c-.14-4-.61-8.35-2.54-11.15s-3.5-3.64-6.2-4.84l-.52-.26s-.9,12.67-.35,12.12c.72,3.28,1.67,7.12,2.45,10.49.71,3,.9,3.59,3,6.8,1.71,2.61,3.76,5.73,5.64,8.89a13.55,13.55,0,0,1,1.91,4.84,8.88,8.88,0,0,1-1.64,6.19,1.27,1.27,0,0,0-.35.75c0,.39.42.65.8.77a4.14,4.14,0,0,0,2.82-.07,4,4,0,0,0,2.52-3.84,4.85,4.85,0,0,1,.53-2.7,3.55,3.55,0,0,0,.66-1.44A1.61,1.61,0,0,0,349.18,340.41Z" style="fill:#ffbda7"></path><path d="M341.93,349a1.3,1.3,0,0,0,1,.95,4.75,4.75,0,0,0,3.75-.81,3.68,3.68,0,0,0,1.9-3c.07-.87-.18-2.12.12-2.77a10.2,10.2,0,0,0,.8-1.58,2.75,2.75,0,0,0-.12-1.19Z" style="fill:#37474f"></path><path d="M347.45,338.45a3.93,3.93,0,0,1,.21.39,1.21,1.21,0,0,1-.35,1.56c-.25.22-.79,0-1.25,0a2.61,2.61,0,0,0-2.26.92,8.73,8.73,0,0,1-.33,3.53,12.87,12.87,0,0,1-1,1.78c-.4.51-1.1,1.33-.73,2.07a1.58,1.58,0,0,0,.91.7,4.53,4.53,0,0,0,3.69-.61,3.85,3.85,0,0,0,1.87-3.05c.12-1-.1-2,.27-2.73s.86-1,1-2a1.49,1.49,0,0,0-.56-1.21C348.13,339,347.68,338.16,347.45,338.45Z" style="fill:#455a64"></path><path d="M346.48,346.57a3.23,3.23,0,0,0-3.83-.24h0l-.25.27c-.39.51-1.09,1.29-.73,2a1.37,1.37,0,0,0,.94.74,4.71,4.71,0,0,0,3.74-.63,4.41,4.41,0,0,0,.88-.72l0,0,0,0A2.62,2.62,0,0,0,346.48,346.57Z" style="fill:#f0f0f0"></path><path d="M324.55,306.38c-.33,5-.58,11.47-.58,11.47s1.15,1.27,4.36,1.52,3.78,0,3.78,0l.37-1.32.37,1.6a8.79,8.79,0,0,0,4.43,0c3.42-.62,3.88-1.91,3.88-1.91s-.06-5-.31-7.76a33.47,33.47,0,0,0-2.11-7.25Z" style="fill:#455a64"></path><path d="M332.48,318.05l-1.1-4.56a7,7,0,0,1-3.25-.82,3.61,3.61,0,0,0,2.84,1.64l1,3.74.09,1.32Z" style="fill:#37474f"></path><path d="M316.59,277.51l2.46,6.74s6.78,3.4,9.9,4.61a6.91,6.91,0,0,0-2.41,3.42l-.59,1.83s-6.08-3.44-9.55-5.91a4.8,4.8,0,0,1-2.08-3.42c-.33-1.45-.48-2.3-1-5-.12-.67-.24-1.29-.35-1.86a28.56,28.56,0,0,0-.8-2.84,7.13,7.13,0,0,1-.28-2.83,3.27,3.27,0,0,1,2.55-3.22.88.88,0,0,1,1.07.29,1.2,1.2,0,0,1,.07.68,9.1,9.1,0,0,0,0,2.9c0,.12.07.26.18.31s.52-.64.66-.79a.87.87,0,0,1,1.17-.21c.15.12-.18.46-.36,1.2a9.57,9.57,0,0,1-.59,2.65A1.83,1.83,0,0,0,316.59,277.51Z" style="fill:#ffbda7"></path><path d="M328.73,288.55l-5.16-2.09s-.92,0-2,1.84a4.73,4.73,0,0,0-.47,3.62l4.49,2.58Z" style="fill:#455a64"></path><path d="M337.81,289.51c1.36.25,2,1.32,2.29,2.67a8.49,8.49,0,0,1-.13,2.88c-.19,1.41-.23,7.38-.23,7.38l.76,5c-2.18,2.37-11.35,4.29-16.12.8,0,0,.4-12,.76-14.43.48-3.25,1.68-4.93,3.15-5.26a6.59,6.59,0,0,1,1.25,0l5.32.29Z" style="fill:#fafafa"></path><path d="M340.71,309.09l.81-7.13s-1.86-2.59-3.81-5.27c-2.25-3.61.5-7.07.5-7.07,2.76.48,2.66,2.17,7.44,10,1,1.66.85,1.72.34,4-.33,1.45-.6,2.27-1.37,4.88q-.28,1-.51,1.83a25.86,25.86,0,0,0-.56,2.89,7,7,0,0,1-1,2.66,3.77,3.77,0,0,1-1.44,1.47,3.91,3.91,0,0,1-2.27.28.89.89,0,0,1-.83-.75,1.2,1.2,0,0,1,.24-.64,9,9,0,0,0,1.3-2.59.45.45,0,0,0,0-.36c-.14-.18-.75.35-.95.42a.87.87,0,0,1-1.13-.33c-.08-.18.36-.34.86-.92.64-.74.85-1.5,1.71-2.11A1.85,1.85,0,0,0,340.71,309.09Z" style="fill:#ffbda7"></path><path d="M337.81,289.51a3.63,3.63,0,0,1,2.36,1,8.63,8.63,0,0,1,1.7,2.35l1.94,3.41s-.43,2.31-4.13,3.36c0,0-2.57-3.38-2.85-3.93S335.27,291.55,337.81,289.51Z" style="fill:#455a64"></path><path d="M335.2,286.85a12,12,0,0,0,2-2.38c1-1.49,2.09-5.24.48-7.7s-5.53-4.12-8-3.18a7.33,7.33,0,0,0-3.57,3.71Z"></path><path d="M337.45,276.48c.67-1.58,2.94-2.08,4.47-1.45a4.43,4.43,0,0,1,2.48,3.13,9,9,0,0,1-.08,2.25,5.23,5.23,0,0,0,.12,2.23c.13.4.35.77.51,1.16a1.81,1.81,0,0,1,.12,1.23,1.78,1.78,0,0,1-1.63,1.06,3.34,3.34,0,0,1-3.58-2.84c-.27-1.8,1.28-3.85.43-5.54a1.29,1.29,0,0,0-.81-.72,3.88,3.88,0,0,0-1.22.25Z"></path><path d="M338.34,281.41a1.15,1.15,0,0,0-1.25-.47,1.8,1.8,0,0,0-1,.78,1.65,1.65,0,0,1-.19.27.36.36,0,0,1-.28.15c-.17,0-.29-.15-.37-.3a8.26,8.26,0,0,1-.33-.82,1.4,1.4,0,0,0-.46-.67,2.7,2.7,0,0,1-.56-.51,2.81,2.81,0,0,1-.6-1.39,4.64,4.64,0,0,0-.24-1.63,2.3,2.3,0,0,0-.91-.81,3.77,3.77,0,0,0-1.76-.72c-.36,0-.72-.09-1.08-.1a3.25,3.25,0,0,0-1.08.05,3.46,3.46,0,0,0-2.05,2,11.21,11.21,0,0,0-.7,4c-.09,3.53,1.11,5,1.7,5.35a6,6,0,0,0,2.89.42l-.13,2a2.75,2.75,0,0,0-.95,3.08,11.81,11.81,0,0,0,3.35-.72c2.4-1,2.7-2,2.7-2l.4-5s.74.8,2-.06C338.48,283.63,339,282.26,338.34,281.41Z" style="fill:#ffbda7"></path><path d="M326.13,277.25a4.29,4.29,0,0,1-1.3.83c-.5.12,2,.55,3,.08,0,0-.49.49.8.56a29.16,29.16,0,0,0,4.62-.61,7.53,7.53,0,0,0-3.66-1.78A5.79,5.79,0,0,0,326.13,277.25Z"></path><path d="M326.18,277.24a13.67,13.67,0,0,1,8.37,1.5,4.85,4.85,0,0,0-.51-1.08,5.53,5.53,0,0,0-3.37-2.29,7.44,7.44,0,0,0-2.49-.13A3.5,3.5,0,0,0,326.18,277.24Z" style="fill:#ffbda7"></path><path d="M330.61,280.82a.6.6,0,0,0,.47.68.56.56,0,0,0,.67-.46.6.6,0,0,0-.48-.67A.56.56,0,0,0,330.61,280.82Z"></path><path d="M326.16,279.66l1.18-.39a.6.6,0,0,0-.76-.41A.65.65,0,0,0,326.16,279.66Z"></path><path d="M331.15,279.48l1.14.49a.59.59,0,0,0-.3-.81A.64.64,0,0,0,331.15,279.48Z"></path><path d="M331.31,283.69l-2,.56a1,1,0,0,0,1.24.71A1.07,1.07,0,0,0,331.31,283.69Z" style="fill:#f0997a"></path><path d="M326.39,280.55a.6.6,0,0,0,.48.68.56.56,0,0,0,.66-.46.59.59,0,0,0-.48-.67A.56.56,0,0,0,326.39,280.55Z"></path><polygon points="329.14 280.09 328.88 283.32 327.12 282.75 329.14 280.09" style="fill:#f0997a"></polygon><path d="M330,287.06c1.26-.1,3.93-.59,4.45-1.53a1.91,1.91,0,0,1-.87,1.39,13.38,13.38,0,0,1-3.62.85Z" style="fill:#f0997a"></path><path d="M326.13,277.25h.05a13.67,13.67,0,0,1,8.37,1.5l.24.14h0a11.7,11.7,0,0,1,2.51,2,1.23,1.23,0,0,1,1.17.72,11.12,11.12,0,0,0,.61-1.49c.66-3.41.3-5.78-4.93-7.54-3.64-1.22-6.36-.1-7.29,2.65C326.69,275.73,326.28,276.73,326.13,277.25Z" style="fill:#5F4799"></path><path d="M326.13,277.25h.05a13.67,13.67,0,0,1,8.37,1.5l.24.14h0a11.7,11.7,0,0,1,2.51,2,1.23,1.23,0,0,1,1.17.72,11.12,11.12,0,0,0,.61-1.49c.66-3.41.3-5.78-4.93-7.54-3.64-1.22-6.36-.1-7.29,2.65C326.69,275.73,326.28,276.73,326.13,277.25Z" style="opacity:0.30000000000000004"></path><path d="M331.85,274.92a1.41,1.41,0,1,1-1.4-1.4A1.4,1.4,0,0,1,331.85,274.92Z" style="fill:#fafafa"></path><path d="M334.88,278.39a7,7,0,0,0-2.55-2.74c-1.22-.81-3.86-1.1-5-1.19-2.08-.17-2.9.33-3,.63,0,.08-.08.41-.09.48a.26.26,0,0,0,0,.2,8.25,8.25,0,0,0,1.86,1.48,13.62,13.62,0,0,1,8.66,1.63Z" style="fill:#5F4799"></path><path d="M334.88,278.39a7,7,0,0,0-2.55-2.74c-1.22-.81-3.86-1.1-5-1.19-2.08-.17-2.9.33-3,.63,0,.08-.08.41-.09.48a.26.26,0,0,0,0,.2,8.25,8.25,0,0,0,1.86,1.48,13.62,13.62,0,0,1,8.66,1.63Z" style="fill:#455a64"></path><path d="M334.79,278.88a13.62,13.62,0,0,0-8.66-1.63,8.25,8.25,0,0,1-1.86-1.48c-.14-.27.36-1,2.92-.82,1.19.09,3.82.37,5,1.18A7.11,7.11,0,0,1,334.79,278.88Z" style="fill:#5F4799"></path><path d="M334.79,278.88a13.62,13.62,0,0,0-8.66-1.63,8.25,8.25,0,0,1-1.86-1.48c-.14-.27.36-1,2.92-.82,1.19.09,3.82.37,5,1.18A7.11,7.11,0,0,1,334.79,278.88Z" style="opacity:0.4"></path></g></g><g id="freepik--character-2--inject-14"><g id="freepik--character--inject-14"><path d="M270.33,323.91c.4-1.25,3.29-9.86,4.39-12.78a57.53,57.53,0,0,0,2.19-7.46c.37-1.43.78-2.95,1.18-4.47.47,2.36,1.17,6.54,1.32,7.46,0,.14,0,.31-.05.51a16.51,16.51,0,0,0-.36,4.32c0,1.2.71,6.24,1.1,9.29.08.68.18,1.36.24,2a3.73,3.73,0,0,1-.5,1.86,2.53,2.53,0,0,0-.26,1.57,1.7,1.7,0,0,0,.15.48c.27.51.82.67,1.27,1a10.49,10.49,0,0,1,1.49,1.56,6,6,0,0,0,1.6,1.34,6.86,6.86,0,0,0,2.29.5,5.09,5.09,0,0,0,1.35-.08,3.63,3.63,0,0,0,1.22-.24,1,1,0,0,0,.58-.82,1.53,1.53,0,0,0-.64-1c-1.75-1.51-4.31-3.41-4.75-5.8,0,0,.29-1.93.41-3.09.4-3.92.59-7.09,1-10.18a41,41,0,0,0,.57-7.39c0-1.09,0-2.25-.09-3.44,0-3.75-.2-7.4-.15-10.2,0,0-5.2,0-9.32.23-4.44.48-6,1.46-5.85,2a38.8,38.8,0,0,0-.75,6c-.16,2.71-.72,9.75-.72,9.75a14.52,14.52,0,0,0-2,5.88c-.14,1.19-.74,9.23-.85,9.81a5.91,5.91,0,0,1-.75,1.51,2.36,2.36,0,0,0-.44,1.15,1.29,1.29,0,0,0,0,.44,3.44,3.44,0,0,0,1,1.24,4.83,4.83,0,0,1,1.14,2.49,4,4,0,0,0,3.34,3.13,4.12,4.12,0,0,0,2.76-.59c.33-.21.67-.55.59-.93a1.22,1.22,0,0,0-.52-.65,8.85,8.85,0,0,1-3.21-5.52,2.29,2.29,0,0,1,0-1" style="fill:#9e6767"></path><path d="M279.61,326.9s-.14,0-.13.35a.82.82,0,0,0,.41.77,6.72,6.72,0,0,1,2,1.55,5.08,5.08,0,0,0,2.19,2.13,6,6,0,0,0,4.55.16c.78-.37.95-.53,1-1.23Z" style="fill:#263238"></path><path d="M284.14,323.16c-.2.29-1.25.42-1.7.59S282,325,282,325c-.41,0-.44-.32-.57-.85-.23-.9-.89-.9-1.11-1v-.27s-.23-.07-.28.35a10.66,10.66,0,0,1-.41,1.7,3.82,3.82,0,0,0-.08,2.2,6.33,6.33,0,0,0,.92.7,6.52,6.52,0,0,1,1.83,1.65,4.76,4.76,0,0,0,4.07,2c2.55.06,3.28-.85,3.28-.85a1.39,1.39,0,0,0-.41-1.84c-1-.8-1.49-1.14-2.77-2.19C284.37,324.78,285,323,284.14,323.16Z" style="fill:#455a64"></path><path d="M283.75,330.73a4.16,4.16,0,0,1,2.57-2.61,2.57,2.57,0,0,1,2.53,0,1.72,1.72,0,0,1,.82,2.39s-.4,1-2.86,1S283.75,330.73,283.75,330.73Z" style="fill:#fafafa"></path><path d="M264.81,326a1.14,1.14,0,0,0,.14,1.25c.39.48.9.77,1.24,1.15a5.65,5.65,0,0,1,.67,1.91,4.47,4.47,0,0,0,1.87,2.51,4.31,4.31,0,0,0,3.14.67c1.24-.2,1.91-.57,2.23-1.62Z" style="fill:#263238"></path><path d="M270.57,323.76c.19-.51-1.09.25-2.5-.12-.25-.06-.37.05-.44.31s-.12.54-.44.43a.47.47,0,0,1-.26-.29,1.89,1.89,0,0,1-.08-.4c-.05-.36-.13-.9-.48-1.09l.07-.43s-.32-.3-.55.73-1.31,1.71-1.08,3.11a4.43,4.43,0,0,0,1,1.23,3.68,3.68,0,0,1,1.34,2.2,4.34,4.34,0,0,0,2.59,3.1,4.83,4.83,0,0,0,4.48-.76,1.34,1.34,0,0,0-.37-1.91,11,11,0,0,1-2.2-2.27A6,6,0,0,1,270.57,323.76Z" style="fill:#455a64"></path><path d="M268.25,331.57a4.83,4.83,0,0,1,3.06-2.43,2.65,2.65,0,0,1,2.7.83,1.22,1.22,0,0,1,.18,1.81,3.92,3.92,0,0,1-3.25,1.12A3.87,3.87,0,0,1,268.25,331.57Z" style="fill:#fafafa"></path><path d="M269.61,295c.16-2.36.91-6.45.91-6.45l15.33.36c.26,3.32,1.07,13.05.85,15.58-.08.85-.11,1.2-.2,2.1-2,1.52-4.51,1.27-7.49.81,0-.4.1-1.08.1-1.08l-1.05-6.18s-1.11,4.81-1.88,7.42c-3.62.89-7.54-1.55-7.54-1.55C268.87,303.33,269.49,296.8,269.61,295Z" style="fill:#455a64"></path><path d="M278.06,300.09l.47-2.52s3.38-.2,4.89-1.85c0,0-.54,2.21-4.08,2.47l-.51,2.43.28,5.65C278.89,304.43,278.36,302.09,278.06,300.09Z" style="fill:#37474f"></path><path d="M292.72,265.21c-2.34,4.45-5,6.5-6.74,10.5-3.39.42-4.61-3.81-3.22-6.1,0,0,5.29-5.92,5.66-7.7.51-2.42,1.38-6.58,1.16-8.54a1.32,1.32,0,0,0-.45-.83c-.7-.65-.74-1.2-1.22-1.94-.37-.57-.74-.77-.65-.91a.78.78,0,0,1,1-.16,3.84,3.84,0,0,1,.85.7,8.9,8.9,0,0,0-.82-2.6c-.85-1.55-.74-2.39,1.49-2,1.39.25,2.85,1.23,3.31,4.5.14.94.27,2.72.31,4.15.08,2.54.11,4.88,0,7A11.25,11.25,0,0,1,292.72,265.21Z" style="fill:#9e6767"></path><path d="M282,269.46s1.5-1.38,2.59-2.52a28.6,28.6,0,0,0,2.39-3,6.06,6.06,0,0,1,3.87,5.34s-1.12,1.6-2.1,3.13a45.45,45.45,0,0,0-2.66,4.82S281.44,274.16,282,269.46Z" style="fill:#455a64"></path><path d="M271.62,270.3a2.55,2.55,0,0,0-2.32,2.6,10.75,10.75,0,0,0,.37,4l.65,7.15-.34,7.74c3.52,2,11.36,3.18,16.19-.28,0,0,.1-14.07-.23-16.49-.59-4.2-2.31-5.7-4.33-5.56l-5.83.39A27.51,27.51,0,0,0,271.62,270.3Z" style="fill:#fafafa"></path><path d="M285.28,258.61a4.3,4.3,0,1,1-4.42-4.34A4.38,4.38,0,0,1,285.28,258.61Z" style="fill:#263238"></path><path d="M272.25,262.29a38.72,38.72,0,0,0,1.16,4,1.59,1.59,0,0,0,.93.71l-.12-2.46Z" style="fill:#263238"></path><path d="M273,257.26a1.74,1.74,0,0,0-1.41.54c-.59.65-.2,2.6.62,4.49l1.4.12Z" style="fill:#263238"></path><path d="M274.07,262.4c-.27.18-.69-.35-1-.7a1.21,1.21,0,0,0-2,.39,2.53,2.53,0,0,0,1.47,3c1.55.44,1.75-.55,1.75-.55l.27,5.53a5,5,0,0,0,3.81,2.72c2.72.29,2.63-2,1.71-3.06l-.05-1.55a6.63,6.63,0,0,0,2-.26,3.09,3.09,0,0,0,2-2.13c.72-1.79.76-3.73.1-7.35-.78-4.19-6-4.16-8.56-2.42S274.07,262.4,274.07,262.4Z" style="fill:#9e6767"></path><path d="M274.92,259.58c-.21,1.21-.36,3.27-.83,3.29-.14,0-.71-.87-1.06-1.17a1,1,0,0,1-.19-.64,13.36,13.36,0,0,1,0-2.19,10.65,10.65,0,0,1,.11-2.4,2.59,2.59,0,0,1,1.11-1.39c1.14-.73,2.68-.7,4-1a13,13,0,0,0,4.3-1.71l.4-.25a.58.58,0,0,1,.39-.13.42.42,0,0,1,.29.2,1,1,0,0,1,.11.34,3.68,3.68,0,0,1,0,1.1,1.78,1.78,0,0,1-.22.93l.93-.62a.35.35,0,0,1,.21-.07c.13,0,.19.17.2.3a3.3,3.3,0,0,1-1.33,2.86,6,6,0,0,1-3.06,1.09c-1.1.11-2.2,0-3.3.05a2.91,2.91,0,0,0-1.38.21A1.73,1.73,0,0,0,274.92,259.58Z" style="fill:#263238"></path><path d="M273.05,257.57l-1.72-.86a.94.94,0,0,1,1.27-.46A1,1,0,0,1,273.05,257.57Z" style="fill:#263238"></path><path d="M280,268.22a12,12,0,0,1-4-1,3.48,3.48,0,0,1-1.25-1.17,3.4,3.4,0,0,0,.73,1.4c1.25,1.4,4.51,1.58,4.51,1.58Z" style="fill:#874c4c"></path><path d="M278.82,261.65a.57.57,0,1,1-.58-.58A.58.58,0,0,1,278.82,261.65Z" style="fill:#263238"></path><path d="M278,260l-1.19.7a.73.73,0,0,1,.26-1A.67.67,0,0,1,278,260Z" style="fill:#263238"></path><path d="M278.58,264.71l2.26.77a1.17,1.17,0,0,1-1.49.79A1.26,1.26,0,0,1,278.58,264.71Z" style="fill:#874c4c"></path><path d="M279.15,265.36a1,1,0,0,0-.54.19,1.23,1.23,0,0,0,.74.72,1.1,1.1,0,0,0,.76,0A.94.94,0,0,0,279.15,265.36Z" style="fill:#f28f8f;opacity:0.6000000000000001"></path><path d="M283.64,260.11l-1.13-.82a.67.67,0,0,1,1-.17A.72.72,0,0,1,283.64,260.11Z" style="fill:#263238"></path><path d="M283.38,261.25a.57.57,0,1,1-1.13,0,.56.56,0,0,1,.55-.6A.58.58,0,0,1,283.38,261.25Z" style="fill:#263238"></path><polygon points="280.36 260.97 280.61 264 282.18 263.41 280.36 260.97" style="fill:#874c4c"></polygon><path d="M262.1,293.66c.44,1.34.91,2.67,1.46,4a10.15,10.15,0,0,0,1.14,2.13,4.09,4.09,0,0,0,1.9,1.44,2.16,2.16,0,0,0,1.33,0c.43-.13,1.27-.53,1.39-1s-.2-1-.56-1.47a14.22,14.22,0,0,1-1-1.46c-.05-.09-.54-.81-.25-.76a.48.48,0,0,1,.19.09,1.29,1.29,0,0,0,1.22.14.32.32,0,0,0,.2-.16c.05-.14-.08-.27-.2-.36a13.65,13.65,0,0,1-1.5-1.35,4.79,4.79,0,0,1-1.12-1.38c-.15-.4-1.14-6.3-1.23-7.88,0,0,2.57-4.25,4.5-6.69a3.86,3.86,0,0,0,.9-2.82c-.12-4-2.13-4.86-3.94-3.49,0,0-6.16,9.05-6.74,11.13a5.69,5.69,0,0,0,0,2.43c.46,1.9,1.09,3.75,1.68,5.61C261.71,292.46,261.9,293.06,262.1,293.66Z" style="fill:#9e6767"></path><path d="M270.85,278.2c-.45.65-3,3.89-3.73,4.71-1.88.8-5.25-1.54-5.25-3.3,0,0,1.29-2.18,3.51-5.58,1.68-2.56,3.16-3.73,6.24-3.73C272.08,272.4,272.25,276.2,270.85,278.2Z" style="fill:#455a64"></path></g></g><g id="freepik--character-1--inject-14"><g id="freepik--character--inject-14"><path d="M217.06,331.92a20.75,20.75,0,0,0-3,5.2c-.43,1.08-3.48,8.24-3.76,8.74a5.4,5.4,0,0,1-1.14,1.15,2.4,2.4,0,0,0-.76.92,1.58,1.58,0,0,0-.09.42,3.26,3.26,0,0,0,.52,1.44,4.61,4.61,0,0,1,.29,2.62,3.86,3.86,0,0,0,2.11,3.88,4,4,0,0,0,2.71.3c.36-.09.77-.3.82-.68a1.12,1.12,0,0,0-.28-.74,8.56,8.56,0,0,1-1.26-6,2.31,2.31,0,0,1,.31-.87c.75-1,5-7.17,6.87-9.51a39.33,39.33,0,0,0,3.07-5.26c.7-1.37,2.52-8.13,2.52-8.13,1,1.86,4.44,7.39,4.44,7.39a15.86,15.86,0,0,0,.11,4.19c.13,1.15,1.32,5.91,2,8.8.15.64.32,1.28.44,1.93a3.6,3.6,0,0,1-.28,1.83,2.4,2.4,0,0,0-.09,1.54,1.45,1.45,0,0,0,.2.45c.31.45.85.56,1.31.79a10.07,10.07,0,0,1,1.6,1.34,5.8,5.8,0,0,0,1.67,1.11,6.55,6.55,0,0,0,2.25.25,5.13,5.13,0,0,0,1.29-.22,3.45,3.45,0,0,0,1.14-.36.94.94,0,0,0,.47-.84c0-.39-.4-.66-.72-.88-1.83-1.27-4.49-2.83-5.15-5.08,0,0,.07-1.88.07-3,0-3.81-.17-6.87-.13-9.88,0-1.93.07-3,0-4l-.21-1.38a18.57,18.57,0,0,0-.69-2.24c-.33-1-.7-2.05-1.1-3.13-1.11-3.45-1.86-6.79-2.63-9.38l-13.46-.35c-1.75,3.82-1.12,4.91-.91,9.31C217.78,326.65,217.13,327.39,217.06,331.92Z" style="fill:#ffa8a7"></path><path d="M232.7,351.66s-.14,0-.09.35a.8.8,0,0,0,.47.7,6.48,6.48,0,0,1,2.07,1.27,4.87,4.87,0,0,0,2.33,1.82,5.77,5.77,0,0,0,4.38-.31c.71-.45.85-.62.83-1.29Z" style="fill:#263238"></path><path d="M236.66,347.6c-.16.3-1.16.53-1.58.74s-.27,1.21-.27,1.21c-.4,0-.46-.26-.64-.76a1.3,1.3,0,0,0-1.17-.86l0-.26s-.22-.05-.23.37a9.74,9.74,0,0,1-.22,1.66,3.8,3.8,0,0,0,.16,2.13,6.71,6.71,0,0,0,.95.58,6,6,0,0,1,1.93,1.39,4.57,4.57,0,0,0,4.11,1.47c2.46-.21,3.06-1.16,3.06-1.16a1.33,1.33,0,0,0-.59-1.72c-1.08-.65-1.54-.94-2.89-1.81C237,349.13,237.42,347.34,236.66,347.6Z" style="fill:#455a64"></path><path d="M236.55,354.63a5.07,5.07,0,0,0,3.12.64c2.46-.21,3.06-1.16,3.06-1.16a1.33,1.33,0,0,0-.59-1.72l-.44-.27a4.31,4.31,0,0,0-2.59.11A5.65,5.65,0,0,0,236.55,354.63Z" style="fill:#fafafa"></path><path d="M207.8,348.51a1.1,1.1,0,0,0-.24,1.19c.21.55.58,1,.78,1.43a5.38,5.38,0,0,1,0,1.95,4.35,4.35,0,0,0,1,2.87,4.16,4.16,0,0,0,2.68,1.57c1.19.18,1.92.05,2.53-.82Z" style="fill:#263238"></path><path d="M213.77,348.19c.33-.4-1.07-.1-2.26-.86-.21-.14-.35-.07-.49.15s-.28.45-.54.25a.43.43,0,0,1-.15-.34,2.6,2.6,0,0,1,0-.39c.07-.35.15-.87-.11-1.14l.2-.37s-.21-.38-.72.49-1.73,1.17-1.95,2.53a4.43,4.43,0,0,0,.53,1.42,3.55,3.55,0,0,1,.55,2.42,4.22,4.22,0,0,0,1.44,3.63,4.67,4.67,0,0,0,4.33.67,1.3,1.3,0,0,0,.24-1.87,10.46,10.46,0,0,1-1.32-2.75A5.74,5.74,0,0,1,213.77,348.19Z" style="fill:#455a64"></path><path d="M214.65,356.65a1.3,1.3,0,0,0,.24-1.87c-.21-.32-.38-.6-.52-.85a7,7,0,0,0-5,.95,3,3,0,0,0,.92,1.1A4.67,4.67,0,0,0,214.65,356.65Z" style="fill:#fafafa"></path><path d="M218.33,314c-2,3.28-1.7,4.87-1.51,11.13.1,3.38-.06,6.71-.06,6.71a22,22,0,0,0-1.82,2.79c-.18.33-.38.7-.58,1.09.57,2.31,4,4.14,6.21,3.39.63-.85,1.48-2.18,1.71-2.52a11.71,11.71,0,0,0,2.23-4.36,63.59,63.59,0,0,0,1.52-6.5s3.34,6.57,3.8,7.34c-.54,2.75.49,5.35.86,6.7,2.06.64,5.38-.41,6.57-1.33a81.43,81.43,0,0,0-.8-9.65c-.56-2.38-3.23-11.19-4.45-14.15Z" style="fill:#455a64"></path><path d="M226,325.72l.38-2.1a8.69,8.69,0,0,0,4.66-2.32,6.05,6.05,0,0,1-3.67,3.11l-.3,1.74,2.73,6.91C228.83,331.38,227.08,327.5,226,325.72Z" style="fill:#37474f"></path><path d="M245.55,304.54l-6.87.76s-5.82-4.4-8.2-6.57a6.63,6.63,0,0,1-1.92,3.53l-1.33,1.3s5.57,3.77,9.18,5.71a4.64,4.64,0,0,0,3.84.33c1.39-.34,2.18-.56,4.7-1.3l1.75-.49a26.83,26.83,0,0,1,2.79-.52,6.7,6.7,0,0,0,2.56-1,3.69,3.69,0,0,0,1.42-1.38,3.81,3.81,0,0,0,.28-2.19c-.09-.51-.41-.79-.72-.8a1.18,1.18,0,0,0-.61.23,8.85,8.85,0,0,1-2.5,1.24.42.42,0,0,1-.35,0c-.18-.13.34-.72.41-.91a.84.84,0,0,0-.32-1.09c-.16-.08-.32.35-.88.82-.72.61-1.45.81-2,1.64A1.75,1.75,0,0,1,245.55,304.54Z" style="fill:#ffa8a7"></path><path d="M228.48,298.26a5.91,5.91,0,0,1,3.82,1.35c1.34,1.16,3.61,3.31,3.61,3.31s.46,1.07-.66,2.78a5.28,5.28,0,0,1-2.41,2.15l-5.23-3.24Z" style="fill:#455a64"></path><path d="M219,298.73c-1.59.25-2.55.93-2.8,2.34a10.32,10.32,0,0,0,.2,3.86l.34,5.92,0,7.23c3.32,2.06,14.1,2.57,15.85-2,0,0-.17-9.92-.39-12.27-.39-4.07-2-5.59-3.94-5.54l-5.64.13A27.27,27.27,0,0,0,219,298.73Z" style="fill:#fafafa"></path><path d="M216.75,318.82l-2.59-6.4s3.05-6.62,4.49-9.49c.16-1.18.47-3.37-.23-3.79l-5.08,2.17a64.92,64.92,0,0,0-3.62,10,4.66,4.66,0,0,0,.72,3.79c.71,1.24,1.14,1.95,2.53,4.16.35.56.66,1.08.95,1.56.48.81.87,1.68,1.27,2.54a6.76,6.76,0,0,0,1.62,2.2,3.17,3.17,0,0,0,3.9.66.85.85,0,0,0,.58-.9,1.29,1.29,0,0,0-.39-.54,8.74,8.74,0,0,1-1.88-2.06.43.43,0,0,1-.07-.34c.08-.21.78.13,1,.14a.83.83,0,0,0,1-.6c0-.18-.42-.22-1-.63-.78-.52-1.17-1.17-2.13-1.51A1.81,1.81,0,0,1,216.75,318.82Z" style="fill:#ffa8a7"></path><path d="M219,298.73a8.21,8.21,0,0,1-.49,5.21l-2.14,4.51a3.43,3.43,0,0,1-3.23-.16,5.13,5.13,0,0,1-2.27-1.56l1.88-4.72a4.85,4.85,0,0,1,4.64-3.28Z" style="fill:#455a64"></path><path d="M219.48,291a38.38,38.38,0,0,0,1,3.94,1.55,1.55,0,0,0,.87.72v-2.37Z" style="fill:#263238"></path><path d="M220.45,286.15a1.68,1.68,0,0,0-1.38.46c-.6.6-.3,2.49.41,4.36l1.35.17Z" style="fill:#263238"></path><path d="M221.24,291.15c-.28.16-.66-.37-1-.72a1.18,1.18,0,0,0-2,.29,2.45,2.45,0,0,0,1.3,3c1.47.48,1.71-.46,1.71-.46l0,5.34a4.77,4.77,0,0,0,3.55,2.78c2.62.39,2.63-1.81,1.78-2.88l0-1.5a6.5,6.5,0,0,0,2-.16,3,3,0,0,0,2-2c.76-1.7.89-3.57.4-7.08-.57-4.07-5.57-4.27-8.16-2.69S221.24,291.15,221.24,291.15Z" style="fill:#ffa8a7"></path><path d="M222.17,288.46c-.25,1.16-.48,3.14-.94,3.14-.14,0-.64-.86-1-1.17-.15-.14-.15-.44-.16-.63a13.52,13.52,0,0,1,.05-2.11,9.89,9.89,0,0,1,.21-2.31,2.46,2.46,0,0,1,1.12-1.3,8.72,8.72,0,0,1,3.36-.71,10.51,10.51,0,0,1,3.75.11,3.86,3.86,0,0,1,1.61.72,1.94,1.94,0,0,1,.67,1.21c0,.48-.15.67-.53.94a5.75,5.75,0,0,1-3,.92,30.69,30.69,0,0,1-3.18-.08,2.76,2.76,0,0,0-1.34.15A1.61,1.61,0,0,0,222.17,288.46Z" style="fill:#263238"></path><path d="M230.69,285.68a5.28,5.28,0,0,0-3.05-3.73c-2.48-.77-6.79.66-8,2.23-1.39,1.86-1.4,3.77-.88,5.95a1.3,1.3,0,0,1,1.47.3,6.61,6.61,0,0,1,4.9-4.68C229.23,284.79,230.69,285.68,230.69,285.68Z" style="fill:#5F4799"></path><path d="M230.69,285.68a5.28,5.28,0,0,0-3.05-3.73c-2.48-.77-6.79.66-8,2.23-1.39,1.86-1.4,3.77-.88,5.95a1.3,1.3,0,0,1,1.47.3,6.61,6.61,0,0,1,4.9-4.68C229.23,284.79,230.69,285.68,230.69,285.68Z" style="opacity:0.30000000000000004"></path><path d="M227.79,284.18a1.6,1.6,0,1,1-3.19,0,1.6,1.6,0,0,1,3.19,0Z" style="fill:#fafafa"></path><path d="M226.67,297a11.49,11.49,0,0,1-3.78-1.09,3.24,3.24,0,0,1-1.15-1.18,3.28,3.28,0,0,0,.64,1.39c1.15,1.4,4.28,1.71,4.28,1.71Z" style="fill:#f28f8f"></path><path d="M225.85,290.62a.57.57,0,0,1-.56.56.57.57,0,0,1-.54-.58.55.55,0,0,1,.56-.56A.56.56,0,0,1,225.85,290.62Z" style="fill:#263238"></path><path d="M225.16,289l-1.18.63a.7.7,0,0,1,.29-.93A.65.65,0,0,1,225.16,289Z" style="fill:#263238"></path><path d="M225.49,293.56l2.15.84a1.14,1.14,0,0,1-1.48.7A1.22,1.22,0,0,1,225.49,293.56Z" style="fill:#b16668"></path><path d="M226,294.22a.88.88,0,0,0-.53.16,1.13,1.13,0,0,0,1.42.74A.9.9,0,0,0,226,294.22Z" style="fill:#f28f8f"></path><path d="M230.56,289.33l-1.05-.83a.64.64,0,0,1,.92-.13A.7.7,0,0,1,230.56,289.33Z" style="fill:#263238"></path><path d="M230.26,290.43a.56.56,0,0,1-.56.56.57.57,0,0,1-.54-.58.55.55,0,1,1,1.1,0Z" style="fill:#263238"></path><polygon points="227.36 290.03 227.47 292.96 229.01 292.46 227.36 290.03" style="fill:#f28f8f"></polygon><path d="M232.74,284.27c-.28-.64-.63-1.26-3.84-1.11s-4.11.39-5.73,1.83a10.67,10.67,0,0,0-3.38,5.13,1.42,1.42,0,0,1,.47.31s1.44-3.69,4.34-5.18S232.74,284.27,232.74,284.27Z" style="fill:#455a64"></path><path d="M220,290.24c.08-.21,2.12-6.23,6.87-6.65s6.17.11,6,1.45a5.29,5.29,0,0,1-1.82,2.6s.08-1.27-3-1.1a10.1,10.1,0,0,0-7.79,3.89Z" style="fill:#5F4799"></path><path d="M220,290.24c.08-.21,2.12-6.23,6.87-6.65s6.17.11,6,1.45a5.29,5.29,0,0,1-1.82,2.6s.08-1.27-3-1.1a10.1,10.1,0,0,0-7.79,3.89Z" style="opacity:0.4"></path></g></g></svg>