<?xml version="1.0" encoding="UTF-8"?>
<!DOCTYPE svg PUBLIC "-//W3C//DTD SVG 1.1//EN" "http://www.w3.org/Graphics/SVG/1.1/DTD/svg11.dtd">
<!-- Creator: CorelDRAW 2020 (64-Bit) -->
<svg xmlns="http://www.w3.org/2000/svg" xml:space="preserve" width="1.983in" height="0.365071in" version="1.1" shape-rendering="geometricPrecision" text-rendering="geometricPrecision" image-rendering="optimizeQuality" fill-rule="evenodd" clip-rule="evenodd"
viewBox="0 0 1072.97 197.53"
 xmlns:xlink="http://www.w3.org/1999/xlink"
 xmlns:xodm="http://www.corel.com/coreldraw/odm/2003">
 <g id="Layer_x0020_1">
  <metadata id="CorelCorpID_0Corel-Layer"/>
  <g id="_2740115056784">
   <path fill="yellow" fill-rule="nonzero" d="M18.22 105.73c0,16.59 0,30.84 -0.9,38.42 -0.72,5.23 -1.62,9.2 -5.23,9.92 -1.62,0.36 -3.79,0.72 -6.49,0.72 -2.16,0 -2.89,0.54 -2.89,1.44 0,1.26 1.26,1.8 3.61,1.8 3.61,0 8.3,-0.36 12.44,-0.36 4.33,-0.18 8.3,-0.18 10.28,-0.18 4.51,0 10.82,0.54 17.68,1.08 6.85,0.54 14.25,1.08 20.74,1.08 33.37,0 52.13,-12.8 60.42,-21.28 10.1,-10.28 19.66,-27.6 19.66,-50.32 0,-21.46 -8.48,-36.43 -17.5,-45.81 -19.66,-20.56 -49.78,-20.56 -72.33,-20.56 -10.82,0 -22.18,0.54 -27.77,0.54 -5.05,0 -16.41,-0.54 -25.97,-0.54 -2.71,0 -3.97,0.36 -3.97,1.62 0,1.26 1.08,1.62 3.07,1.62 2.53,0 5.59,0.18 7.03,0.54 5.95,1.26 7.4,4.15 7.76,10.28 0.36,5.77 0.36,10.82 0.36,38.24l0 31.74zm22.55 -34.63c0,-14.25 0,-29.94 0.18,-36.07 0,-1.98 0.54,-2.89 2.16,-3.61 1.44,-0.72 8.12,-1.26 11.72,-1.26 14.07,0 34.63,2.16 51.22,18.04 7.76,7.39 17.31,22.18 17.31,45.09 0,18.58 -3.61,34.99 -15.15,44.91 -10.82,9.38 -23.09,12.99 -41.48,12.99 -14.25,0 -21.28,-3.79 -23.63,-7.22 -1.44,-1.98 -1.8,-9.2 -1.98,-13.71 -0.18,-3.43 -0.36,-17.31 -0.36,-36.43l0 -22.73z"/>
   <path id="1" fill="yellow" fill-rule="nonzero" d="M234.47 112.04c0.9,0 1.44,0.36 1.8,1.26l14.43 37.15c0.9,2.16 -0.36,3.79 -1.62,4.15 -1.8,0.18 -2.53,0.54 -2.53,1.62 0,1.26 2.17,1.26 5.41,1.44 14.43,0.36 27.6,0.36 34.09,0.36 6.67,0 8.3,-0.36 8.3,-1.8 0,-1.26 -0.9,-1.44 -2.34,-1.44 -2.16,0 -4.87,-0.18 -7.58,-0.72 -3.79,-0.9 -9.02,-3.43 -15.87,-19.66 -11.54,-27.42 -40.4,-99.56 -44.73,-109.48 -1.8,-4.15 -2.88,-5.77 -4.51,-5.77 -1.8,0 -2.89,1.99 -5.05,7.22l-45.27 111.83c-3.61,9.02 -7.03,15.15 -15.33,16.23 -1.44,0.18 -3.97,0.36 -5.59,0.36 -1.44,0 -2.16,0.36 -2.16,1.44 0,1.44 1.08,1.8 3.43,1.8 9.38,0 19.3,-0.54 21.28,-0.54 5.59,0 13.35,0.54 19.12,0.54 1.99,0 3.07,-0.36 3.07,-1.8 0,-1.08 -0.54,-1.44 -2.71,-1.44l-2.71 0c-5.59,0 -7.22,-2.35 -7.22,-5.59 0,-2.16 0.9,-6.49 2.71,-11l9.74 -24.71c0.36,-1.08 0.72,-1.44 1.62,-1.44l40.22 0zm-36.61 -9.02c-0.72,0 -0.9,-0.54 -0.72,-1.26l16.59 -44.19c0.18,-0.72 0.54,-1.62 1.08,-1.62 0.54,0 0.72,0.9 0.9,1.62l16.23 44.37c0.18,0.54 0,1.08 -0.9,1.08l-33.19 0z"/>
   <path id="2" fill="white" fill-rule="nonzero" d="M327.9 160.56c9.56,0 19.66,-1.62 28.68,-7.39 12.99,-8.48 16.95,-20.92 16.95,-31.38 0,-17.13 -7.76,-29.58 -29.58,-45.99l-5.05 -3.79c-14.97,-11.36 -19.12,-17.68 -19.12,-25.97 0,-10.82 8.12,-18.58 21.46,-18.58 11.72,0 16.95,5.41 19.66,8.84 3.79,4.69 4.69,10.28 4.69,11.9 0,2.16 0.54,3.25 1.8,3.25 1.44,0 1.98,-1.44 1.98,-5.41 0,-14.07 0.72,-19.3 0.72,-21.64 0,-1.26 -0.9,-1.8 -2.52,-2.16 -4.69,-1.26 -12.27,-3.07 -23.99,-3.07 -25.07,0 -41.66,14.25 -41.66,34.09 0,14.61 6.85,27.24 26.69,42.75l8.3 6.49c14.97,11.72 17.68,20.02 17.68,28.86 0,9.56 -7.94,20.56 -24.17,20.56 -11.18,0 -21.82,-4.87 -25.79,-18.22 -0.9,-3.07 -1.62,-6.85 -1.62,-9.2 0,-1.44 -0.18,-3.07 -1.8,-3.07 -1.44,0 -1.98,1.98 -2.16,4.69 -0.18,2.89 -0.9,13.71 -0.9,23.63 0,3.97 0.54,4.87 3.43,6.13 7.75,3.43 15.87,4.69 26.33,4.69z"/>
   <path id="3" fill="white" fill-rule="nonzero" d="M403.83 140c-0.9,6.13 -2.35,13.17 -7.39,14.25 -2.71,0.54 -3.97,0.54 -5.41,0.54 -1.8,0 -2.89,0.36 -2.89,1.26 0,1.62 1.44,1.98 3.25,1.98 5.77,0 14.43,-0.54 17.86,-0.54 3.25,0 11.36,0.54 18.94,0.54 2.71,0 4.33,-0.36 4.33,-1.98 0,-0.9 -1.26,-1.26 -2.71,-1.26 -1.8,0 -4.33,-0.18 -7.58,-0.9 -3.07,-0.72 -5.41,-2.35 -5.41,-5.77 0,-2.88 0.18,-5.23 0.54,-8.48l9.38 -70.34 0.72 0c6.31,13.53 17.14,34.81 18.76,38.6 2.16,5.05 16.41,32.64 20.74,40.94 2.89,5.41 4.69,9.02 6.31,9.02 1.62,0 2.52,-1.62 6.67,-10.1l39.32 -80.44 0.72 0 10.82 78.46c0.72,5.05 0.18,7.39 -0.9,7.75 -1.26,0.54 -1.98,1.08 -1.98,1.99 0,1.08 1.08,1.62 5.23,1.98 7.22,0.54 32.1,0.9 36.61,0.9 2.52,0 4.69,-0.54 4.69,-1.98 0,-1.08 -1.26,-1.26 -2.89,-1.26 -2.34,0 -5.95,-0.18 -11.18,-1.8 -5.41,-1.62 -7.22,-6.86 -8.84,-18.22l-16.41 -110.38c-0.54,-3.79 -1.62,-5.59 -3.25,-5.59 -1.62,0 -2.53,1.44 -3.97,4.33l-49.06 101.54 -49.24 -100.28c-2.34,-4.69 -3.43,-5.59 -4.87,-5.59 -1.44,0 -2.52,1.62 -3.07,4.69l-17.86 116.15z"/>
   <path id="4" fill="white" fill-rule="nonzero" d="M652.37 112.04c0.9,0 1.44,0.36 1.8,1.26l14.43 37.15c0.9,2.16 -0.36,3.79 -1.62,4.15 -1.8,0.18 -2.53,0.54 -2.53,1.62 0,1.26 2.17,1.26 5.41,1.44 14.43,0.36 27.6,0.36 34.09,0.36 6.67,0 8.3,-0.36 8.3,-1.8 0,-1.26 -0.9,-1.44 -2.34,-1.44 -2.16,0 -4.87,-0.18 -7.58,-0.72 -3.79,-0.9 -9.02,-3.43 -15.87,-19.66 -11.54,-27.42 -40.4,-99.56 -44.73,-109.48 -1.8,-4.15 -2.88,-5.77 -4.51,-5.77 -1.8,0 -2.89,1.99 -5.05,7.22l-45.27 111.83c-3.61,9.02 -7.03,15.15 -15.33,16.23 -1.44,0.18 -3.97,0.36 -5.59,0.36 -1.44,0 -2.16,0.36 -2.16,1.44 0,1.44 1.08,1.8 3.43,1.8 9.38,0 19.3,-0.54 21.28,-0.54 5.59,0 13.35,0.54 19.12,0.54 1.99,0 3.07,-0.36 3.07,-1.8 0,-1.08 -0.54,-1.44 -2.71,-1.44l-2.71 0c-5.59,0 -7.22,-2.35 -7.22,-5.59 0,-2.16 0.9,-6.49 2.71,-11l9.74 -24.71c0.36,-1.08 0.72,-1.44 1.62,-1.44l40.22 0zm-36.61 -9.02c-0.72,0 -0.9,-0.54 -0.72,-1.26l16.59 -44.19c0.18,-0.72 0.54,-1.62 1.08,-1.62 0.54,0 0.72,0.9 0.9,1.62l16.23 44.37c0.18,0.54 0,1.08 -0.9,1.08l-33.19 0z"/>
   <path id="5" fill="white" fill-rule="nonzero" d="M739.36 58.29l0.54 0c3.25,3.43 23.27,25.43 42.89,44.91 18.76,18.58 41.84,42.2 53.18,53.03 1.98,1.99 4.15,3.97 6.13,3.97 1.62,0 2.34,-1.62 2.34,-5.59l1.99 -113.81c0.18,-10.1 1.62,-13.89 6.67,-15.33 2.16,-0.54 3.61,-0.54 5.41,-0.54 2.16,0 3.25,-0.54 3.25,-1.62 0,-1.44 -1.8,-1.62 -4.15,-1.62 -8.84,0 -15.69,0.54 -17.67,0.54 -3.79,0 -12.44,-0.54 -21.79,-0.54 -2.71,0 -4.69,0.18 -4.69,1.62 0,1.08 0.72,1.62 2.88,1.62 2.53,0 6.86,0 9.53,1.08 4.33,1.8 5.95,5.23 6.13,16.23l1.8 80.98 -0.9 0c-3.07,-2.88 -27.39,-28.86 -39.65,-41.12 -26.3,-26.15 -53.72,-55.01 -55.88,-57.35 -3.1,-3.25 -4.72,-5.59 -6.7,-5.59 -1.8,0 -2.34,2.53 -2.34,6.13l-1.62 106.23c-0.18,15.69 -0.9,20.92 -5.59,22.37 -2.52,0.72 -5.77,0.9 -8.12,0.9 -1.8,0 -2.89,0.36 -2.89,1.44 0,1.62 1.62,1.8 3.97,1.8 9.38,0 17.86,-0.54 19.48,-0.54 3.46,0 10.67,0.54 22.4,0.54 2.52,0 4.15,-0.36 4.15,-1.8 0,-1.08 -1.08,-1.44 -3.07,-1.44 -2.89,0 -6.31,-0.18 -9.38,-1.26 -3.61,-1.26 -5.95,-5.95 -6.31,-20.02l-1.98 -75.21z"/>
   <path id="6" fill="white" fill-rule="nonzero" d="M894.77 130.44c0,30.12 0.18,45.27 -11.9,56.99 -3.07,3.07 -5.41,4.87 -7.58,5.95 -2.71,1.26 -3.43,1.98 -3.43,2.71 0,0.72 0.54,1.44 1.26,1.44 0.72,0 2.16,-0.18 3.25,-0.72 3.43,-1.62 5.95,-2.88 7.94,-3.97 15.33,-9.02 25.07,-19.84 28.5,-29.22 3.25,-8.66 3.79,-18.4 3.79,-27.05 0,-7.76 -0.54,-15.15 -0.54,-21.64l0 -28.5c0,-23.27 0,-27.6 0.36,-32.46 0.36,-5.41 1.62,-7.58 5.95,-8.3 1.8,-0.36 2.89,-0.54 4.51,-0.54 1.98,0 2.88,-0.54 2.88,-1.62 0,-1.08 -1.08,-1.44 -3.25,-1.44 -6.31,0 -16.41,0.36 -20.2,0.36 -4.15,0 -15.69,-0.36 -23.99,-0.36 -2.35,0 -3.61,0.36 -3.61,1.44 0,1.08 1.08,1.62 2.71,1.62 2.34,0 5.05,0.18 6.31,0.54 5.05,1.44 6.49,3.07 6.85,8.3 0.18,4.87 0.18,9.2 0.18,32.46l0 44.01z"/>
   <path id="7" fill="white" fill-rule="nonzero" d="M1013.09 112.04c0.9,0 1.44,0.36 1.8,1.26l14.43 37.15c0.9,2.16 -0.36,3.79 -1.62,4.15 -1.8,0.18 -2.53,0.54 -2.53,1.62 0,1.26 2.17,1.26 5.41,1.44 14.43,0.36 27.6,0.36 34.09,0.36 6.67,0 8.3,-0.36 8.3,-1.8 0,-1.26 -0.9,-1.44 -2.34,-1.44 -2.16,0 -4.87,-0.18 -7.58,-0.72 -3.79,-0.9 -9.02,-3.43 -15.87,-19.66 -11.54,-27.42 -40.4,-99.56 -44.73,-109.48 -1.8,-4.15 -2.88,-5.77 -4.51,-5.77 -1.8,0 -2.89,1.99 -5.05,7.22l-45.27 111.83c-3.61,9.02 -7.03,15.15 -15.33,16.23 -1.44,0.18 -3.97,0.36 -5.59,0.36 -1.44,0 -2.16,0.36 -2.16,1.44 0,1.44 1.08,1.8 3.43,1.8 9.38,0 19.3,-0.54 21.28,-0.54 5.59,0 13.35,0.54 19.12,0.54 1.99,0 3.07,-0.36 3.07,-1.8 0,-1.08 -0.54,-1.44 -2.71,-1.44l-2.71 0c-5.59,0 -7.22,-2.35 -7.22,-5.59 0,-2.16 0.9,-6.49 2.71,-11l9.74 -24.71c0.36,-1.08 0.72,-1.44 1.62,-1.44l40.22 0zm-36.61 -9.02c-0.72,0 -0.9,-0.54 -0.72,-1.26l16.59 -44.19c0.18,-0.72 0.54,-1.62 1.08,-1.62 0.54,0 0.72,0.9 0.9,1.62l16.23 44.37c0.18,0.54 0,1.08 -0.9,1.08l-33.19 0z"/>
   <circle fill="yellow" stroke="yellow" stroke-width="3.76" stroke-miterlimit="2.61313" cx="903.75" cy="15.45" r="13.57"/>
  </g>
 </g>
</svg>
