<?xml version="1.0" encoding="UTF-8"?>
<!DOCTYPE svg PUBLIC "-//W3C//DTD SVG 1.1//EN" "http://www.w3.org/Graphics/SVG/1.1/DTD/svg11.dtd">
<!-- Creator: CorelDRAW 2020 (64-Bit) -->
<svg xmlns="http://www.w3.org/2000/svg" xml:space="preserve" width="1.91635in" height="0.333654in" version="1.1" shape-rendering="geometricPrecision" text-rendering="geometricPrecision" image-rendering="optimizeQuality" fill-rule="evenodd" clip-rule="evenodd"
viewBox="0 0 1022.61 178.05"
 xmlns:xlink="http://www.w3.org/1999/xlink"
 xmlns:xodm="http://www.corel.com/coreldraw/odm/2003">
 <g id="Layer_x0020_1">
  <metadata id="CorelCorpID_0Corel-Layer"/>
  <path fill="yellow" fill-rule="nonzero" d="M-0 17.6l56.56 0c13.52,0 25.47,2.58 35.84,7.74 10.38,5.16 18.44,12.42 24.19,21.79 5.75,9.37 8.63,20.28 8.63,32.73 0,12.45 -2.88,23.36 -8.63,32.73 -5.75,9.37 -13.82,16.63 -24.19,21.79 -10.38,5.16 -22.32,7.74 -35.84,7.74l-56.56 0 0 -124.51zm55.14 100.86c12.45,0 22.38,-3.47 29.79,-10.41 7.41,-6.94 11.12,-16.33 11.12,-28.19 0,-11.86 -3.71,-21.26 -11.12,-28.19 -7.41,-6.94 -17.34,-10.41 -29.79,-10.41l-26.33 0 0 77.2 26.33 0z"/>
  <path id="1" fill="yellow" fill-rule="nonzero" d="M227.15 115.43l-57.81 0 -11.03 26.68 -29.53 0 55.5 -124.51 28.46 0 55.68 124.51 -30.24 0 -11.03 -26.68zm-9.07 -21.88l-19.74 -47.67 -19.74 47.67 39.49 0z"/>
  <path id="2" fill="white" fill-rule="nonzero" d="M322.31 144.25c-9.84,0 -19.36,-1.33 -28.55,-4 -9.19,-2.67 -16.57,-6.14 -22.15,-10.41l9.78 -21.7c5.34,3.91 11.68,7.05 19.03,9.43 7.35,2.37 14.7,3.56 22.06,3.56 8.18,0 14.23,-1.21 18.14,-3.65 3.91,-2.43 5.87,-5.66 5.87,-9.7 0,-2.96 -1.16,-5.42 -3.47,-7.38 -2.31,-1.96 -5.28,-3.53 -8.89,-4.71 -3.62,-1.19 -8.51,-2.49 -14.67,-3.91 -9.49,-2.25 -17.25,-4.51 -23.3,-6.76 -6.05,-2.25 -11.24,-5.87 -15.57,-10.85 -4.33,-4.98 -6.49,-11.62 -6.49,-19.92 0,-7.24 1.96,-13.79 5.87,-19.66 3.91,-5.87 9.81,-10.53 17.7,-13.96 7.89,-3.44 17.52,-5.16 28.91,-5.16 7.95,0 15.71,0.95 23.3,2.85 7.59,1.9 14.23,4.62 19.92,8.18l-8.89 21.88c-11.5,-6.52 -23.01,-9.78 -34.51,-9.78 -8.06,0 -14.02,1.3 -17.88,3.91 -3.85,2.61 -5.78,6.05 -5.78,10.32 0,4.27 2.22,7.44 6.67,9.52 4.45,2.08 11.24,4.12 20.37,6.14 9.49,2.25 17.25,4.51 23.3,6.76 6.05,2.25 11.24,5.81 15.57,10.67 4.33,4.86 6.49,11.44 6.49,19.74 0,7.12 -1.99,13.61 -5.96,19.48 -3.97,5.87 -9.93,10.53 -17.88,13.96 -7.94,3.44 -17.61,5.16 -28.99,5.16z"/>
  <polygon id="3" fill="white" fill-rule="nonzero" points="508.19,142.11 508.01,67.41 471.37,128.95 458.39,128.95 421.92,69.01 421.92,142.11 394.88,142.11 394.88,17.6 418.72,17.6 465.32,94.98 511.22,17.6 534.87,17.6 535.23,142.11 "/>
  <path id="4" fill="white" fill-rule="nonzero" d="M646.76 115.43l-57.81 0 -11.03 26.68 -29.53 0 55.5 -124.51 28.46 0 55.68 124.51 -30.24 0 -11.03 -26.68zm-9.07 -21.88l-19.74 -47.67 -19.74 47.67 39.49 0z"/>
  <polygon id="5" fill="white" fill-rule="nonzero" points="815.21,17.6 815.21,142.11 791.55,142.11 729.47,66.52 729.47,142.11 701.01,142.11 701.01,17.6 724.84,17.6 786.75,93.2 786.75,17.6 "/>
  <path id="6" fill="white" fill-rule="nonzero" d="M835.66 178.05c-9.72,0 -17.13,-1.78 -22.23,-5.34l7.47 -20.1c3.2,2.25 7.12,3.38 11.74,3.38 3.56,0 6.34,-1.16 8.36,-3.47 2.02,-2.31 3.03,-5.78 3.03,-10.41l0 -95.7 27.75 0 0 95.52c0,11.15 -3.17,19.95 -9.52,26.41 -6.34,6.46 -15.21,9.7 -26.59,9.7zm22.24 -144.97c-5.1,0 -9.25,-1.48 -12.45,-4.45 -3.2,-2.96 -4.8,-6.64 -4.8,-11.03 0,-4.39 1.6,-8.06 4.8,-11.03 3.2,-2.96 7.35,-4.45 12.45,-4.45 5.1,0 9.25,1.42 12.45,4.27 3.2,2.85 4.8,6.4 4.8,10.67 0,4.62 -1.6,8.45 -4.8,11.47 -3.2,3.02 -7.35,4.54 -12.45,4.54z"/>
  <path id="7" fill="white" fill-rule="nonzero" d="M981.34 115.43l-57.81 0 -11.03 26.68 -29.53 0 55.5 -124.51 28.46 0 55.68 124.51 -30.24 0 -11.03 -26.68zm-9.07 -21.88l-19.74 -47.67 -19.74 47.67 39.49 0z"/>
  <ellipse fill="yellow" stroke="yellow" stroke-width="3.71" stroke-miterlimit="2.61313" cx="858.25" cy="17.25" rx="17.37" ry="15.39"/>
 </g>
</svg>
