<?xml version="1.0" encoding="UTF-8"?>
<!DOCTYPE svg PUBLIC "-//W3C//DTD SVG 1.1//EN" "http://www.w3.org/Graphics/SVG/1.1/DTD/svg11.dtd">
<!-- Creator: CorelDRAW 2020 (64-Bit) -->
<svg xmlns="http://www.w3.org/2000/svg" xml:space="preserve" width="2.47861in" height="2.38189in" version="1.1" shape-rendering="geometricPrecision" text-rendering="geometricPrecision" image-rendering="optimizeQuality" fill-rule="evenodd" clip-rule="evenodd"
viewBox="0 0 2091.53 2009.91"
 xmlns:xlink="http://www.w3.org/1999/xlink"
 xmlns:xodm="http://www.corel.com/coreldraw/odm/2003">
 <g id="Layer_x0020_1">
  <metadata id="CorelCorpID_0Corel-Layer"/>
  <g id="_2618419364272">
   <path fill="#FDF112" d="M1323.44 224.68c0.48,5.42 -0.3,2.55 3.05,8.39 10.28,17.91 17.18,33.61 24.02,53.9 7.77,23.04 12.89,47.41 15.3,73.34 13.11,141.3 -69.53,274.72 -199.2,326.84 -138.8,55.8 -292.89,7.65 -377.78,-104.35 -20.59,-27.17 -48.65,-77.51 -55.83,-119.76l-382.42 -0.87c-7.19,-0.01 -17.03,-1.98 -23.22,2.18 -0.47,0.31 -2.03,1.86 -2.31,2.35 25.8,8.08 44.24,63.74 39.65,100.83 -2.53,20.45 -10.94,42.15 -11.26,62.34 -0.39,24.7 21.37,26.89 27.86,43.99 -3.09,5.52 -6.64,8.87 -10.55,13.4 -12.07,14.01 -35.68,49.52 -46.14,65.64 -13.47,20.76 -4.91,4.06 -16.27,27.78 -4.6,9.59 -11.22,17.57 -16.87,28.76 -11.77,23.26 -37.36,72.23 -39.46,94.69 -2.93,31.44 -3.88,51.58 7.27,79.47 19.78,49.47 76.11,61.83 122.71,52.02 7.57,-1.59 27.66,-7.23 33.86,-10.24 8,-3.9 17.52,-15.89 28.56,-13.52 2.84,11.13 -28.93,44.58 -35.91,50.2 -9.99,8.04 -28.71,21.99 -34.2,31.85 -2.8,5.04 -4.12,9.91 -3.7,16.88 0.97,16.15 18.76,47.59 24.84,63.54 14.53,38.13 -1.56,47.39 -7.31,66.88 7.56,5.99 6.89,4.64 8.73,17.8 7.31,52.14 3.8,95.96 31.39,150.02 15.85,31.08 53.7,68.89 93.08,63.71 23.58,-3.1 15.6,-22.94 28.44,-23.05 10.19,-0.95 41.84,-2.72 49.13,1.52l99.92 -269.21 330.95 0c0,-45.07 -2.14,-422.43 1.12,-432.71l351.97 -0.08c3.28,13.12 1.06,80.62 0.95,99.1 -0.21,33.66 -0.09,67.32 -0.09,100.37l-322.23 -0.01 -0.02 233.34 333.67 0.21 65.33 177.35c3.13,-5.65 7.57,-3.21 23.08,-3.19l198.51 0c2.97,-20.28 6.79,-39.02 8.84,-60.59l4.94 -45.48c1.83,-6.29 3.43,-5.46 7.3,-9.09 -6.92,-20.4 -21.47,-30.8 -7.32,-67.19 26.15,-67.22 45.61,-66.94 -13.05,-111.72 -10.58,-8.08 -12.14,-12.9 -20.78,-23.23 -3.93,-4.71 -17.05,-17.7 -15.14,-27.47 16.6,-1.74 12.15,13.35 62.57,23.98 47.61,10.04 101.33,-2.29 122.65,-52.16 11.31,-26.45 9.88,-49.44 7.17,-79.25 -2.25,-24.73 -27.26,-70.15 -39.45,-94.39 -5.66,-11.27 -11.95,-19.05 -16.76,-28.93 -13.41,-27.53 -4.22,-8.07 -16.26,-27.79l-36.49 -53.26c-5.75,-7.62 -16.52,-18.53 -20.32,-25.91 6.06,-17.71 28.97,-19.08 27.78,-45.71 -1.68,-37.61 -25.59,-69.4 -0.93,-126.12 6.44,-14.82 19.17,-38.88 37.47,-35.93 4.8,19.64 4.04,39.57 10.13,61.04 6.34,22.38 8.26,37.7 25.04,47.74 12.72,7.61 7.61,9.5 12.7,22.87 3.46,9.09 10.08,10.81 19.07,16.49 69.2,43.77 41.3,29.98 53.54,54.82 5.68,11.53 10,11.85 16.22,19.37 8.88,10.74 2.74,16.68 2.85,29.51 0.12,13.62 10.5,17.14 13.92,23.25 4.45,7.93 -0.13,22.96 2.48,33.1 3.47,13.49 16.95,14.5 5.7,36.96 -11.06,22.06 -13.16,-9.51 -8.97,40.59l-0.39 66.51c-3.93,63.9 -22.29,107.71 -71.63,145.52 -52.61,40.31 -89.68,22.54 -90.74,53.66 -0.82,23.94 20.47,64.77 2.39,127.07 8.31,6.22 218.36,-3.45 239.06,3.37 12,-56.48 24.32,-101.86 36.12,-163.31 14.3,-74.52 29.64,-185.32 34.57,-263.44 0.96,-15.25 2.48,-30.41 3.26,-45.71 1.38,-26.9 1.56,-22.32 -11.57,-39.18 -14.38,-18.44 -73.7,-90.31 -91.67,-108.14l-97.62 -100.56 -105.47 -94.43c-34.83,-29.93 -73.67,-60.35 -111.89,-87.91 -9.37,-6.75 -101.72,-73.03 -114.27,-78.79 -3.59,-1.65 -1.21,-0.93 -4.94,-1.6 -13.9,-8.58 -70.08,2.92 -78.95,-5.96 -5.03,-3.74 -1.69,-30.95 -1.69,-38.95l-137.38 0c-2.58,4 -1.62,-2.3 -0.7,4.69z"/>
   <path fill="#FDF112" d="M242.77 1671.69c-4.23,-10.26 -1.38,-1.85 1.1,-5.41l83.08 0.22c7.06,2.48 1.83,-1.9 6.32,4.4l15.41 -1c2.24,8.29 3.32,17.93 12.39,19.99 11.97,2.72 18.08,-4.08 16.39,-15.16 -5.13,-9.82 -41.4,-6.75 -47.68,-36.7 -6.39,-30.49 13.19,-44.24 41.1,-43.18l-11.84 -4.79 555.48 1.46 -5.07 3.46c48.46,-2.63 49.25,34.56 47.4,37.03 -3.17,4.22 -17.65,5.89 -22.64,5.98 -7.02,-29.33 -37.85,-21.39 -37.85,16.42 0,23.25 9.81,41.93 29.86,33.74 7.08,-2.9 8.96,-5.09 7.81,-14.28l-18.73 -0.84 1.1 -23.68c5.59,-3.06 33.78,-2.4 40.88,-0.72l1.2 50.73c0.24,4.56 -0.78,1.15 3.19,2.47 2.11,-10.7 29.14,-100.22 32.46,-104.66l22.01 -0.49c-3.37,-3.84 0.25,-1.03 -4.89,-2.58 -2.24,-0.67 -2.76,-0.7 -5.08,-0.87 -2.58,-0.19 -9.09,0.23 -12.02,0.23l3.29 -0.98c9.53,-1.8 264,-1.06 266.13,-0.73 10.68,1.64 6.05,6.54 25.26,4.99 5.77,2.46 4.43,-0.62 5.01,8.43 0.57,8.85 -1.8,23.92 0.57,35.01l25.65 -0.07 0.82 -42.6 23.22 -0.76c2.91,12.41 1.75,100.42 0.65,116.94l1.46 -0.55 34.88 -116.45 23.54 -0.08 35.2 113.68 1.58 0c0.99,-18.43 -2.21,-102.9 1.38,-111.45 2.3,-1.77 -0.06,-0.82 3.82,-1.78 2.16,-0.53 2.41,-0.5 4.66,-0.64 2.68,-0.17 7.36,0.1 10.27,0.13 20.01,0.16 39.69,-2.89 50.62,10.63 6.21,7.68 8.89,20.88 6.58,33.27 -2.63,14.12 -9.35,16.55 -17.58,23.55 10.1,11.05 12.54,22.86 20.88,35.79 9.29,-20.96 23.78,-91.07 33.1,-103.08 5.96,0.27 12.43,0.66 18.16,-0.59 21.46,-4.7 37.2,-3.13 62.68,-2.79 13.66,0.19 18.24,7.05 29.55,2.13l4.31 -2.31c8.67,-3.45 116.36,-1.39 130.41,-1.39 21.13,0 66.89,-2.43 85.04,0.86l1.16 -1.56c0.16,-0.26 0.91,-1.43 1.13,-1.81 0.56,-1.01 1.62,-3.34 2.12,-4.48 22.43,-51.79 42.69,-105.21 61.64,-158.61 10.12,-28.5 19.77,-58.53 28.63,-88.25 4.38,-14.67 8.87,-29.76 13.04,-44.54 4.03,-14.3 7.81,-32.18 12.65,-45.4 -20.71,-6.81 -230.75,2.85 -239.06,-3.37 -4.7,47.02 -7.27,106.99 -16.37,151.37 -5.89,28.73 -12.11,38.1 -24.43,58.67 -10.21,17.05 -20.75,35.88 -31.63,51.34 -17.3,24.56 -15.59,23.2 -47.27,35.71 -28.37,11.2 -52.41,26.83 -76.91,4.26 -5.82,-5.36 -6.08,-5.18 -11.07,-9.26 -4.55,-3.72 -16.4,-16.16 -19.68,-20.9 -10.49,-15.18 -7.44,-51.7 2.9,-66.16 10.73,2.47 7.33,12.63 16.82,19.32 21.67,15.24 59.58,-9.33 75.04,-21.41 31.49,-24.59 37.69,-64.28 48.07,-91.18l-198.51 0c-15.51,-0.01 -19.96,-2.46 -23.08,3.19 7.37,16.73 67.72,179.03 67.91,186.05l-965.41 -0.42c0.24,-6.02 31.06,-83.41 35.94,-93.97 -7.3,-4.25 -38.95,-2.47 -49.13,-1.52 8.14,23.55 16.95,54.56 -5.25,75.27 -38.18,35.64 -39.38,41.04 -92.76,19.79 -28.06,-11.17 -33.28,-9.63 -48.98,-30.6 -16.5,-22.02 -50.87,-78.3 -57.54,-101.62 -11.58,-40.5 -13.66,-97.38 -17.79,-141.45 -5.77,-61.55 -16.2,-74.57 -2.3,-139.9 10.55,-49.57 -31.63,-23.08 -88.66,-67.21 -24.53,-18.99 -54.19,-51.95 -64.85,-94.26 -12.43,-49.34 -5.96,-83.87 -6.63,-89.82 -3.62,-32.22 3.17,-38.4 1.2,-56.99 -29.25,-23.1 -7.55,-41.37 -6.24,-44.94 4.25,-11.51 0.9,-20.42 1.97,-31.4 1.04,-10.75 9.57,-9.45 13.9,-20.47 4.51,-11.47 -2.1,-17.23 -0.44,-27.68 1.57,-9.87 9.23,-14.12 14.4,-19.32 17.64,-17.74 -0.17,-26.7 25.49,-42.22 15.36,-9.29 27.6,-18.05 42.32,-27.14 8.92,-5.52 10.76,-7.99 13.91,-20.02 4.36,-16.65 4.53,-9.43 15.33,-18.46 9.89,-8.28 8.38,-6.67 12.61,-21.24 2.54,-8.75 5.76,-16.44 8.27,-25.68 5.38,-19.85 5.08,-40.52 9.27,-58.95l8.02 1.32c0.28,-0.49 1.84,-2.04 2.31,-2.35 6.19,-4.16 16.03,-2.19 23.22,-2.18l382.42 0.87c-24.57,-78.51 1.31,-180.19 36.18,-237.65 120.3,-198.23 388.01,-206.08 523.77,-41.76 9.24,11.19 25.66,37.72 30.51,41.06 -0.91,-6.99 -1.88,-0.69 0.7,-4.69l137.38 0c0,8 -3.34,35.21 1.69,38.95 8.87,8.87 65.05,-2.62 78.95,5.96 -6.3,-10.09 -121.19,-75.37 -142,-86.85 -48.21,-26.61 -100.58,-54.75 -152.18,-78.21 -25.89,-11.77 -51.26,-24.72 -77.67,-35.73l-121.81 -51.01c-5.67,-1.85 -12.73,3.12 -19.96,5.94l-101.49 42.4c-195.81,82.55 -416.04,214.08 -575.54,344.12 -23.52,19.17 -71.74,58.39 -92.48,78.61l-29.7 27.79c-47.05,41.61 -129.05,129.65 -168.1,177.39 -6.94,8.49 -49.22,58.74 -50.42,64.6 -3.65,17.94 15.53,180.78 19.28,209.83 24.85,192.5 73.57,372.94 141.49,547.8 23.33,60.08 40.71,95.59 64.95,150.11 0.68,1.54 1.55,3.64 2.14,4.67l4.08 5.34z"/>
   <path fill="#FDF112" d="M1004.48 1850.87c5.44,-1.7 19.13,-3.16 21.53,2.09 2.14,4.68 0.9,19.29 -0.52,24.2 -4.05,0.96 -6.87,1.2 -11.12,1.16 -2.15,-0.03 -4.33,-0.18 -6.38,-0.69 -9.95,-2.45 -4.14,-25.4 -3.51,-26.76zm130.82 -90.08c28.79,-6.96 36.3,25.1 37.34,51.12 1.05,26.1 -1.9,62.21 -24.86,67.39 -30,6.77 -37.24,-26.18 -38.06,-52.07 -0.85,-26.84 1.24,-60.56 25.57,-66.44zm-72.34 0.32c27.84,-8.55 36.59,24.55 37.77,49.06 4.22,87.4 -42.7,75.9 -54.43,56.25 -6.23,-10.43 -7.82,-24.23 -8.35,-37.5 -0.99,-24.97 -0.85,-59.86 25,-67.8zm123.02 28.84c6.19,-5.13 8.45,-3.78 17.37,-14.4 8.56,-10.18 2.89,-15.76 16.01,-15.76 9.19,0 11.52,-0.55 11.52,8.11l0 101.61c0,9.96 -3.57,10.67 -22.41,7.5 -4.8,-14.09 0.34,-54.11 -1.58,-72.94 -2.03,1.39 -8.19,6.21 -11.57,7.82 -11.66,5.55 -9.59,-0.82 -9.33,-21.94zm-325.53 -0.69c7.17,-4.44 7.84,-3.48 14.23,-10.4 7.42,-8.04 4.61,-7.22 9.88,-15.55 4.83,-7.65 18.22,-3.02 19.36,-1.81 3.1,3.26 1.43,67.17 1.43,74.14 0,43.61 6.47,45.1 -22.4,41.73 -3.54,-12.65 -0.5,-56.26 -1.39,-73.13 -6.64,3.34 -11.91,11.15 -20.81,8.43l-0.29 -23.41zm67.51 9.5c-0.28,-17.95 6.61,-31.95 19.59,-36.77 32.32,-11.99 55.11,22.86 36.93,57.21 -7.69,14.53 -16.11,19.72 -23.09,32.27 9.75,0 25.97,-2.95 28.41,3.56 2.1,5.6 1.57,17.04 -0.13,21.86 -9.05,3.32 -50.88,2.4 -62.81,0.55 -8.24,-35.91 54.79,-66.47 36.65,-92.27 -22.56,-2.45 4.55,23.96 -35.55,13.58zm-431.63 -85.19c-1.81,-10.98 -1.9,-107.08 0.31,-116.9l22.45 1.01c1.99,7.61 1.98,105.87 0.3,116.32l-23.05 -0.43zm1176.36 -1.45c-0.96,-5.09 29.57,-103.48 33.88,-115.36 29.84,-0.78 22.49,-3.04 31.83,26.34l20.24 64.48c8.18,27.44 15.65,28.55 -18.05,26.31 -8.52,-30.34 -2.08,-24.84 -36.81,-24.65l-7.02 24.47c-7.1,0.49 -18.19,2.41 -24.08,-1.6zm-1065.54 0.73c-0.54,-5.79 30.51,-108.99 34.71,-116.13l22.63 0.06c4.58,12 35.42,109.08 34.97,117.34l-24.41 -0.09c-2.08,-6.96 -4.69,-19.2 -8.3,-24.92l-27.61 0c-3.53,6.68 -4.14,17.83 -9.12,24.6 -7.28,0.97 -16.01,1.63 -22.86,-0.86zm180.8 -107.53c0,-7.99 -0.41,-8.74 8.03,-8.74 16.1,0 16.03,-1.46 16.73,6.91 2.06,24.82 -8.3,83.08 10.69,86.35 29.32,5.04 9.13,-63.02 16.83,-92.83 11.96,-0.62 11.56,-1.28 23.03,0.87l0.48 58.25c0,33.3 -2.17,61.07 -39.01,60.12 -34.69,-0.9 -36.79,-27.22 -36.79,-60.12l0 -50.81zm-78.34 108.98c-11.67,0 -8.01,-2.09 -8.02,-26l-0 -67.74c-0.03,-22.45 -2.72,-23.98 8.02,-23.98 38.34,0 71.29,-5.48 71.36,59.56 0.07,61.38 -31.35,58.17 -71.36,58.17zm-291.29 -117.72c36.18,-1.54 62.27,-3.44 68.29,24.94 1.89,8.89 1.14,20.07 -2.49,27.63 -4.09,8.52 -10.59,10.15 -14.85,15.61 4.98,4.72 26.14,40.31 24.81,48.69 -24.92,2.67 -25.53,1.86 -30.97,-9.02 -9.11,-18.24 -15.46,-37.44 -28.65,-35.56l-0.83 44.95c-11.68,0.83 -12.1,1.41 -23.3,-0.81l0.45 -115.78 7.53 -0.64zm110.53 8.74c0,-7.98 -0.42,-8.74 8.01,-8.74 30.19,0 54.09,-4.66 63.85,16.04 8.34,17.7 0.84,26.56 -4.65,38.43 10.23,10.95 17.98,25.88 7.85,46.67 -8.63,17.74 -21.43,16.58 -45.03,16.58 -32.75,0 -30.03,2.27 -30.03,-9.06l0 -99.92zm-157.96 -10.44c10.49,2.38 17.5,5.57 21.96,12.15 4.6,6.78 8.18,16.51 6.53,24.94l-21.71 3.62c-4.86,-7.41 -0.2,-8.62 -7.92,-14.14 -8.75,-2.67 -14.06,-1.92 -17.18,5.89 2.52,8.56 11.24,9.45 20.91,12.68 37.58,12.52 33.24,48.6 21.2,63.57 -9.67,12.03 -34.22,18.54 -51.4,7.24 -6.48,-4.27 -11.5,-11.31 -14.36,-19.52 -6.28,-18.08 -3.47,-19.39 4.36,-20.39 -4.49,-6.3 0.74,-1.92 -6.32,-4.4l-83.08 -0.22c-2.48,3.56 -5.33,-4.86 -1.1,5.41 0.19,16.01 94.51,180.68 114.61,213.02l42.49 67.56c52.9,2.81 108.57,6.69 161.18,11.42 53.76,4.84 107.79,6.89 161.65,11.45 80.14,6.78 162.63,10.23 241.26,17.35 85.67,7.75 76.78,7.32 161.88,0.15 26.4,-2.23 53.5,-4.02 80,-5.88 53.85,-3.79 108.23,-6.71 161.9,-11.55 107.32,-9.67 216.72,-12.58 323.74,-23.12l52.69 -84.53c17.34,-28.73 34.25,-57.61 50.66,-88.14 11.51,-21.4 85.61,-164.03 90.47,-186.79 -18.15,-3.29 -63.91,-0.86 -85.04,-0.86 -14.04,0 -121.73,-2.06 -130.41,1.39l-4.31 2.31c-11.32,4.92 -15.89,-1.94 -29.55,-2.13 -25.47,-0.35 -41.21,-1.91 -62.68,2.79 -5.73,1.26 -12.2,0.87 -18.16,0.59l22.22 0.04 31.72 97.11c-0.52,-6.92 -8.26,-26.94 21.42,-22.13 1.78,8.88 0.45,11.99 4.97,18.13 10.79,-0.51 9.82,-5.66 10.03,-16.73 0.34,-18 -1.5,-65.04 1.07,-76.47l22.45 1c2.89,11.01 1.64,85.68 -1.6,96.66 -7.48,25.31 -41.4,30.07 -54.09,8.2l-3.82 -7.03c-0.11,-0.68 -0.45,-0.83 -0.71,-1.22 1.33,7.91 4.02,11.23 3.54,19.84l-24.4 -0.11c-9.04,-30.5 -1.17,-24.91 -35.94,-24.91 -3.46,6.71 -4.12,17.94 -9.15,25.18l-42.34 -0.66c-4.64,-5.68 -11.03,-19.06 -14.45,-26.08 -8.78,-18.04 -8.4,-18.61 -19.69,-19.45l-3.54 45.3c-0.54,0.16 -8.3,1.45 -20.27,0.5l-1.15 -3.59 -1.58 0c-1.19,6.06 -3.04,4.05 -24.63,3.7 -9.03,-30.5 -1.22,-24.9 -35.95,-24.9 -3.43,6.73 -4.11,17.96 -9.15,24.62 -7.71,0.98 -18.59,0.88 -23.9,-0.59l-1.46 0.55 -23.99 -0.33 -0.15 -47.3 -27 -0.15 -0.8 46.32c-2.72,1.67 -3.48,2.54 -12.49,2.25 -4.49,-0.15 -10.65,-1.57 -11.92,-1.58 -5.09,-0.06 -5.94,2.18 -25.92,1.11 -9,-30.51 -1.27,-24.9 -35.96,-24.9 -3.13,6.15 -5.24,16.28 -7.9,24.19 -10.51,2.39 -18.23,-0 -25.08,-0.08 -0.36,-0 -0.81,0.02 -1.17,0.03 -7.42,0.35 -10.76,2.86 -22.36,-0.18l-0.31 -47.62c-5.55,12.66 -4.66,35.92 -11.59,48.69l-20.33 -0.46c-8.06,-13.3 -5.59,-34.76 -11.73,-48.14l-0.93 47.36c-4.59,1.6 -6.03,1.67 -11.08,1.64l-10.63 -2.48c-2.24,-8.21 -2.16,-107.25 0.3,-113.31 2.03,-1.46 0.37,-0.79 3.88,-1.69l27.3 -0.23c5.21,15.07 5.83,43.51 13.83,56.53l12.09 -55.48c5.03,-1.92 9.39,-1.35 15.96,-1.39 1.83,-0.01 7.03,-0.15 8.51,0.04l5.56 1.77c4.68,-7.81 2.18,102.57 2.52,109.27 1.34,-1.78 0.31,0.27 2.18,-3.68l7.73 -24.64c2.72,-9.23 5.62,-18.19 8.29,-27.26 18.36,-62.64 9.99,-56.25 40.37,-55.24l36.15 111.62c0.14,-0.27 0.54,0.88 0.85,1.28 0.28,-17.46 -2.45,-102.27 1.14,-110.78l18.77 -2.14c-19.21,1.56 -14.58,-3.34 -25.26,-4.99 -2.14,-0.33 -256.6,-1.07 -266.13,0.73l-3.29 0.98c2.93,0 9.44,-0.43 12.02,-0.23 2.32,0.17 2.84,0.2 5.08,0.87 5.15,1.55 1.52,-1.26 4.89,2.58 4.31,6.86 36.06,108.84 35.52,117.41l-24.4 -0.04c-1.95,-6.74 -4.94,-19.28 -8.25,-24.95l-28.19 -0.17 -8.53 24.72c-7.29,1.05 -15.99,1.62 -23.62,-0.89l3.02 -10.93c-3.97,-1.32 -2.95,2.09 -3.19,-2.47 -1.39,0.68 -0.54,0.17 -2.63,1.65 -6.18,4.39 -7.77,7.19 -17.44,11.13 -55.3,22.52 -79.2,-44.25 -61.95,-87.34 7.04,-17.59 14.33,-23.89 33.01,-29.81l5.07 -3.46 -555.48 -1.46 11.84 4.79z"/>
   <path fill="#00AEEE" d="M997.16 343.92c1.64,3.08 2.36,6.75 3.58,10.02 18.67,49.65 -1.47,56.96 -3.3,101.39 -1.31,31.87 29.36,72.33 -0.21,94.59 3.12,6.91 5.4,6.08 7.4,15.33 1.53,7.08 0.33,10.95 6.98,14.9 7.93,4.71 24.98,9.12 15.81,23.64 -5.83,9.23 -18.56,10.98 -30.5,4.6 -15.41,-8.24 -10.96,-10.58 -19.76,-22.63 -7.88,4.89 -33.75,46.6 -90.85,26.55 -16.25,-5.7 -27.47,-14.83 -38.54,-25.85 -30.71,-30.56 -37.7,-39.03 -5.43,-76.2 41.37,-47.66 99.24,-45.22 127.58,-11.07 -3.49,-31.38 -28.71,-41.77 -35.68,-51.69 -17.84,-25.34 -20.01,-37.55 -17.4,-70.05 1.59,-19.86 -0.6,-48.26 0.53,-53.11 10.72,-3.4 15.89,4.24 20.67,9.58 -0.97,-19.68 -3.84,-36.55 2.87,-55.35 4.46,-12.51 19.63,-37.4 24.98,-8.22 5.45,29.72 10.95,40.57 25.13,64.48 2.2,3.72 4.44,5.92 6.14,9.09zm96.84 206.28c-29.51,-24.35 1.23,-61.23 -0.2,-94.87 -1.78,-41.8 -21.13,-54.98 -3.74,-100.45 12.61,-32.96 24.96,-31.16 35.32,-84.81 5.52,-28.59 21.26,-3.38 25.4,10 6,19.37 2.9,33.64 2.62,53.4 3.61,-4.23 10.32,-13.28 18.8,-8.88 5.67,4.4 1.65,15.35 1.01,25.74 -0.57,9.17 0.49,18.41 1.22,27.38 5.31,65.57 -22.71,68.42 -40.05,92.64 -5.32,7.43 -12.12,12.38 -12.84,28.68 18.36,-22.16 61.11,-33.2 93.99,-16.08 24.04,12.52 60.02,53.19 54.53,68.69 -5.6,15.82 -18.17,26.77 -28.03,36.48 -10.9,10.74 -23.05,19.35 -38.17,24.51 -18.01,6.14 -35.92,7.04 -53.49,-0.12 -23.1,-9.42 -21.86,-14.93 -36,-26.82l-2.64 4.23c-15.66,28.81 -42.19,25.88 -48.43,12.92 -7.65,-15.89 10.24,-18.23 17.67,-23.35 5.25,-3.61 4,-8.23 6.01,-15.76 2.03,-7.58 4.03,-7.93 7.03,-13.52zm-73.12 -384.75c4.05,-14.46 14.52,-50.47 20.53,-60.42 10.42,-1.21 10.44,2.23 13.03,10.55l15.94 50.18 52.44 -0.09c14.4,-0.04 19.25,5.39 10.41,13.78 -4.62,4.39 -37.74,25.12 -46.9,34.33 4.12,12.33 20.34,54.32 16.97,64.35 -8.61,1.71 -10.17,-0.23 -16.47,-5.22 -5,-3.96 -8.66,-6.36 -13.73,-10 -7.19,-5.17 -20.88,-16.8 -28.17,-19.43 -14.36,8.49 -47.28,38.68 -54.72,34.83 -11.65,-6.02 11.93,-43.12 14.14,-65.12 -7.04,-6.64 -20.89,-15.85 -29.19,-21.66 -20.83,-14.59 -24.48,-14.7 -17.65,-25.33l63.37 -0.75zm4.41 -89.88c-167.46,11.54 -305.58,153.83 -293.33,335.71 11.17,165.97 155.8,304.7 336.7,291.56 165.35,-12.01 303.93,-155.62 290.54,-336.9 -12.14,-164.41 -154.77,-302.71 -333.91,-290.37z"/>
   <path fill="#EB3237" d="M883.95 1345.86l-90.16 -77.09c-12.59,-10.32 -85.03,-74.02 -91.15,-76.75l-82.44 223.47c280.6,2.37 571.39,-0.26 852.83,-1.09l-81.65 -222.07 -76.42 76.72c-12.89,13.36 -24.53,25.45 -37.41,38.8 -7.88,8.17 -29.29,32.56 -37.87,37.61l-168.32 -135.79c-4.92,-4.1 -20.42,-17.29 -25.04,-19.09 -3.11,3.02 -6.17,5.37 -9.32,8.84l-30.96 30.01c-3.57,3.29 -6.32,5.53 -9.71,8.94 -14.59,14.64 -105.77,103.97 -112.39,107.49z"/>
   <path fill="#FDFDFD" d="M624.92 1423.26c-9.82,0 -7.93,-0.25 -11.56,9.58 -9.36,25.36 -37,89.89 -40.7,105.11l941.23 0.04c-3.12,-13.68 -34.01,-108.85 -38.82,-116.48l-850.16 1.74z"/>
   <path fill="#FDF112" d="M203.56 778.37c27.5,-6.95 38.73,36.55 10.73,43.72 -29.8,7.63 -41.37,-35.97 -10.73,-43.72zm9.43 -76.52c28.31,-9.6 42.25,34.59 13.8,43.02 -28.53,8.45 -42.61,-33.25 -13.8,-43.02zm53.84 -63.63c28.79,-9.87 40.36,34.79 13.03,42.82 -20.83,6.12 -36.57,-16.2 -26.26,-33.01 3.87,-6.32 6,-7.34 13.23,-9.81zm105.96 33.94c-9.69,-11.61 -27.53,-19.34 -26.34,-44.04 0.96,-19.95 7.99,-38.61 10.76,-57.77 2.99,-20.69 0.2,-39.84 -6.2,-57.84 -5.14,-14.43 -16.18,-37.7 -28.38,-38.01 -1.55,20.19 -4.18,39.62 -10.05,58.07 -2.93,9.19 -5.55,16.45 -7.87,25.88 -2.06,8.39 -0.92,6.94 -5.63,11.42 -22.6,21.46 -15.49,5.02 -22.18,26.87 -3.01,9.84 -7.1,13.43 -14.29,17.96 -14.86,9.37 -25.31,17.49 -39.96,26.04 -9.05,5.28 -14.05,6.2 -15.88,17.81 -4.82,30.59 -23.04,26.59 -24.36,42.38 -0.91,10.93 5.58,14.78 -0.31,27.92 -5.14,11.43 -12.39,10.81 -13.02,21.04 -0.66,10.69 1.81,19.15 -2.23,29.75 -4.17,10.95 -10.99,9.59 -7.36,22.43 3.79,13.42 7.33,10.48 14.26,17.9 0.43,11.53 -1.76,23.44 -2.63,34.99 -0.81,10.84 2.92,26.9 0.95,33.37 -4.56,15 0.98,53.37 4.27,69.93 7.79,39.21 29.64,71.24 58.75,95.25 13.33,10.99 28.18,23.2 49.24,28.63 20.8,5.37 43.37,8.4 48.68,27.55 3.31,11.94 -6.85,50.53 -8.16,67.03 -2.14,27.07 3.37,44.74 6.97,69.71 6.59,45.64 6.6,94.45 14.53,139.48 7.76,44.01 26.96,69.44 49.06,105.11 5.32,8.57 9.92,14.44 15.99,22.9 6.44,8.96 9.35,11.14 22.68,16.31 64.76,25.11 58.94,29.17 93.38,1.25 9.02,-7.32 23.03,-21.29 23.88,-34.48 0.6,-9.2 -1.05,-25.88 -4.32,-33.89l-2.38 2.63c-0.21,0.26 -0.51,0.68 -0.72,0.96 -17.9,23.69 -49.95,12.05 -71.68,-0.02 -21.63,-12.01 -37.77,-30.06 -49.86,-53.49 -20.2,-39.16 -26.14,-83.06 -29.99,-128.01 -4.31,-50.26 -6.16,-28.6 -10.7,-39.33 -2.92,-19.3 22.15,-27.47 8.34,-66.17 -19.7,-55.17 -50.86,-72.6 3.37,-114.18 22.71,-17.41 17.66,-15.4 30.87,-31.79 4.37,-5.41 4.64,-2.44 8.51,-10.46 -7.95,3.11 -7.65,5.85 -13.71,8.66 -10.06,4.68 -42.55,12.3 -53.18,13.02 -88.73,6.03 -130.15,-45.14 -120.77,-142.77 2.33,-24.21 28.08,-71.55 40.18,-95.44 5.47,-10.81 11.44,-18.87 16.05,-28.07 3.63,-7.25 2.63,-9.44 7.67,-16.01 3.03,-3.96 5.91,-7.15 9.31,-12.67l54.48 -77.87z"/>
   <path fill="#FDF112" d="M1878.49 778.37c27.76,-7.08 38.84,36.73 10.75,43.75 -29.4,7.36 -41.54,-35.9 -10.75,-43.75zm-14.07 -76.39c30.27,-9.44 39.96,35.41 13.73,43.02 -28.82,8.36 -41.58,-34.34 -13.73,-43.02zm-52 -64.13c29.5,-8.24 38.18,36.08 12.05,43.4 -28.79,8.06 -41.75,-35.1 -12.05,-43.4zm-94.49 34.86l18.79 24c16.08,21.44 31.93,48.33 44.96,65.13 5.39,6.95 3.67,7.95 7.7,16.03 4.8,9.62 10.99,17.12 16.3,27.65 5.3,10.52 9.55,19.91 15.07,30.8 7.63,15.06 23.46,46.56 25.27,64.47 9.87,97.5 -30.34,150.13 -120.38,144.21 -11.51,-0.76 -43.68,-8.75 -53.33,-12.88 -5.38,-2.31 -6.81,-5.38 -13.76,-8.94l22.29 27.51c1.9,1.76 3.02,3.25 5.01,5.11 3.13,2.93 7.94,6.55 12.13,9.92 13.63,10.93 35.56,24.48 28.32,54.22 -4.76,19.53 -17.8,40.17 -25.02,59.59 -13.99,37.61 11.68,49.55 8.29,65.53 -5.46,9.77 -6.35,-1.12 -8.49,16.89 -7.91,66.46 -9.86,164.7 -81.79,204.77 -15.98,8.9 -41.9,19.44 -61.23,9.93 -7.5,-3.69 -8.44,-8.68 -13.54,-13.51 -4.34,8.1 -4.95,22.01 -4.65,32.18 0.38,12.93 6.8,18.53 13.02,25.41 9.58,10.58 12.89,11.37 19.71,17.62 25.09,23.02 38.56,9.82 84.76,-8.14 12.14,-4.72 16.76,-8.32 22.68,-16.29 17.06,-22.96 29.17,-46.25 44.53,-70.66 30.71,-48.75 25.49,-133.47 34.97,-197.12 3.68,-24.75 9.02,-42.71 6.87,-69.33 -1.3,-16.1 -11.5,-55.54 -8.1,-67.17 9.34,-31.91 40.87,-8.96 97.86,-56.29 29.1,-24.17 50.9,-55.15 58.83,-95.26 3.15,-15.91 8.29,-55.26 4.19,-69.5 -2.04,-7.1 1.76,-22.45 0.98,-33.33 -0.84,-11.81 -3.08,-23.65 -2.66,-35.66 7.37,-7.1 10.39,-4.33 14.3,-17.71 3.46,-11.84 -3.37,-11.52 -7.29,-21.98 -4.21,-11.24 -1.62,-18.91 -2.33,-29.9 -0.65,-10.09 -8.21,-10 -12.98,-20.81 -5.43,-12.29 0.56,-17.28 -0.36,-28.11 -0.79,-9.27 -9.65,-13.53 -14.62,-19.6 -18.31,-22.35 2.32,-24.34 -26.41,-41.29 -14.31,-8.44 -25.75,-16.8 -40.14,-25.92 -7.68,-4.87 -10.58,-8.74 -13.54,-18.63 -5.26,-17.58 -3.48,-9.3 -14.7,-19.18 -20.22,-17.81 -29.05,-74.06 -30.81,-102.85 -25.04,8.57 -39.82,64.3 -34.37,98.41 2.96,18.52 10.27,38.64 10.6,57.84 0.41,23.02 -18,31.77 -26.93,42.87z"/>
   <path fill="#373435" d="M1542.17 264.9c3.73,0.67 1.36,-0.05 4.94,1.6 12.55,5.75 104.91,72.04 114.27,78.79 38.22,27.56 77.06,57.98 111.89,87.91l105.47 94.43 97.62 100.56c17.97,17.84 77.29,89.7 91.67,108.14 13.14,16.86 12.95,12.28 11.57,39.18 -0.78,15.3 -2.3,30.46 -3.26,45.71 -4.93,78.12 -20.27,188.93 -34.57,263.44 -11.79,61.45 -24.12,106.82 -36.12,163.31 -4.84,13.23 -8.62,31.11 -12.65,45.4 -4.17,14.78 -8.66,29.87 -13.04,44.54 -8.87,29.72 -18.52,59.76 -28.63,88.25 -18.95,53.41 -39.2,106.82 -61.64,158.61 -0.49,1.14 -1.56,3.47 -2.12,4.48 -0.22,0.39 -0.97,1.55 -1.13,1.81l-1.16 1.56c-4.86,22.77 -78.96,165.39 -90.47,186.79 -16.41,30.53 -33.32,59.41 -50.66,88.14l-52.69 84.53c-107.02,10.54 -216.42,13.44 -323.74,23.12 -53.68,4.84 -108.05,7.76 -161.9,11.55 -26.5,1.87 -53.6,3.66 -80,5.88 -85.09,7.17 -76.21,7.6 -161.88,-0.15 -78.63,-7.12 -161.12,-10.56 -241.26,-17.35 -53.86,-4.56 -107.89,-6.61 -161.65,-11.45 -52.61,-4.73 -108.28,-8.61 -161.18,-11.42l-42.49 -67.56c-20.1,-32.35 -114.42,-197.02 -114.61,-213.02l-4.08 -5.34c-0.59,-1.03 -1.46,-3.14 -2.14,-4.67 -24.24,-54.52 -41.61,-90.03 -64.95,-150.11 -67.92,-174.86 -116.64,-355.3 -141.49,-547.8 -3.75,-29.05 -22.93,-191.88 -19.28,-209.83 1.19,-5.86 43.47,-56.11 50.42,-64.6 39.05,-47.74 121.06,-135.78 168.1,-177.39l29.7 -27.79c20.74,-20.22 68.97,-59.44 92.48,-78.61 159.5,-130.03 379.72,-261.57 575.54,-344.12l101.49 -42.4c7.23,-2.82 14.29,-7.79 19.96,-5.94l121.81 51.01c26.41,11.01 51.78,23.96 77.67,35.73 51.6,23.46 103.96,51.6 152.18,78.21 20.81,11.48 135.7,76.76 142,86.85zm-1542.17 485.17c0,73.06 14.83,194.8 26.35,266.63 6.78,42.31 14.47,82.26 22.33,121.61 11.93,59.73 26.88,115 42.76,172.32l34.52 109.44c26.22,78.7 57.21,155.75 93.09,230.37 34.84,72.48 71.16,143.77 112.35,212.82l55.23 88.72c10.26,17.51 30.22,12.05 56.98,14.15l83.08 6.68c7.18,0.35 10.72,-0.06 17.65,0.98 6.2,0.93 10.03,0.42 16.22,0.71l167.57 11.95c6.67,0.52 8.23,1.57 17.03,1.6l101.52 6.87c21.79,1.71 44.9,4.41 67.87,4.96l32.86 2.7c18.73,2.81 45.96,1.8 66.56,4.56 4.61,0.62 29.4,3.11 34.04,2.73 87.88,-7.25 179.71,-13.12 267.98,-20.04l49.02 -3.48c7.18,-0.35 10.72,0.06 17.65,-0.98 6.21,-0.93 10.03,-0.42 16.22,-0.71l52.04 -3.85c19.37,-2.62 45.05,-3.58 66.51,-4.62 39.6,-1.91 78.05,-7.5 116.89,-8.43 8.43,-0.2 8.43,-1.56 16.87,-1.76 39.13,-0.93 42.95,1.74 55.59,-17.24 24.12,-36.22 45.61,-73.94 68.17,-111.35l25.63 -45.49c13.99,-23 25.29,-46.49 37.49,-70.89 15.97,-31.94 33.37,-64.68 46.62,-97.34l22.21 -50.61c30.08,-68.12 54.13,-139.53 77.33,-210.58 12.18,-37.29 21.12,-73.29 32.08,-111.87 5.54,-19.5 9.42,-38.22 13.91,-57.22 14,-59.16 26.58,-120.98 35.43,-181.35l16.24 -127.72c5.73,-44.04 9.66,-89.46 9.66,-134.29 0,-5.21 -42.33,-55.72 -48.73,-63.04 -4.6,-5.26 -7.97,-9.23 -12.63,-14.47l-39.27 -45.41c-4.48,-5.8 -8.62,-8.6 -13.25,-13.85 -26.38,-29.96 -54.84,-57.91 -82.98,-86.37 -5.63,-5.7 -9.72,-7.93 -15.28,-13.51 -25.46,-25.59 -51.98,-49.34 -79.66,-72.76 -3.7,-3.13 -4.63,-3.28 -8.39,-6.86 -39.37,-37.5 -145.15,-115.12 -191.28,-145.73l-67.39 -44.39c-11.25,-7.46 -22.83,-13.58 -34.58,-21.31 -35.09,-23.07 -85,-51.22 -124.61,-71.84 -53.04,-27.61 -114.25,-60.09 -168.89,-83.45 -45.9,-19.62 -91.52,-40.34 -138.2,-58.25 -4.02,-1.54 -5.82,-2.26 -9.09,-4.46 -13.94,-9.37 -18.26,-1.5 -31.23,3.72 -46.35,18.65 -92.84,37.25 -138.11,58.34 -52.16,24.31 -101.6,48.06 -151.31,73.93l-53.6 29.38c-6.78,3.44 -11.87,6.41 -18.47,10.32l-70.25 41.52c-58.27,34.87 -113.62,73.09 -168.54,112.59 -32.21,23.16 -64.74,46.99 -94.3,73.37l-104.99 91.46c-4.77,4.8 -9.54,10.22 -14.57,14.23 -19.28,15.38 -38.69,37.34 -56.56,55.21 -4.68,4.68 -9.26,8.7 -13.53,13.56l-92.36 104.09c-8.88,10.19 -16.54,20.01 -25.05,30.84 -3.94,5.02 -24.44,29 -24.44,33.14z"/>
   <path fill="#373435" d="M624.92 1423.26l850.16 -1.74c4.8,7.63 35.7,102.8 38.82,116.48l-941.23 -0.04c3.7,-15.22 31.34,-79.75 40.7,-105.11 3.63,-9.83 1.74,-9.58 11.56,-9.58zm259.03 -77.41c6.62,-3.51 97.8,-92.84 112.39,-107.49 3.39,-3.41 6.14,-5.64 9.71,-8.94l30.96 -30.01c3.15,-3.47 6.21,-5.82 9.32,-8.84 4.62,1.8 20.12,14.99 25.04,19.09l168.32 135.79c8.57,-5.04 29.98,-29.44 37.87,-37.61 12.89,-13.35 24.53,-25.45 37.41,-38.8l76.42 -76.72 81.65 222.07c-281.44,0.83 -572.23,3.46 -852.83,1.09l82.44 -223.47c6.12,2.73 78.56,66.44 91.15,76.75l90.16 77.09zm353.22 -9.5c-2.7,-4.51 -83.63,-68.68 -89.91,-73.9 -15.34,-12.74 -29.96,-24.13 -44.76,-36.51 -8.11,-6.78 -40.12,-30.86 -43.97,-36.68l324.82 -0.12c-12.17,18.05 -39.01,39.41 -54.96,56.06 -18.08,18.88 -78.41,84.49 -91.22,91.14zm-351 -0.06c-5.63,-2.14 -38.99,-30.69 -45.39,-36.62l-119.68 -102.16c-3.72,-2.86 -6.07,-5.74 -9.17,-8.22l324.72 -0.01c-4.53,7.13 -42.17,41.25 -55.75,55.58 -20.67,21.8 -62.81,57.14 -85.57,82.1 -3.47,3.81 -6.1,5.3 -9.16,9.32zm175.27 -483.72l308.65 -0.05 6.62 0.28 0 88.64 -6.62 0.14 -308.61 0 -0.04 -89.01zm0 -96.03l308.65 -0.04 6.63 0.22 0 88.67 -6.64 0.18 -308.62 0 -0.03 -89.03zm-462.53 694.64c-4.87,10.56 -35.69,87.95 -35.94,93.97l965.41 0.42c-0.19,-7.01 -60.53,-169.31 -67.91,-186.05l-65.33 -177.35 -333.67 -0.21 0.02 -233.34 322.23 0.01c0,-33.05 -0.12,-66.71 0.09,-100.37 0.11,-18.48 2.33,-85.98 -0.95,-99.1l-351.97 0.08c-3.26,10.29 -1.12,387.64 -1.12,432.71l-330.95 0 -99.92 269.21z"/>
   <polygon fill="#EB3237" points="1061.46,845.59 1370.08,845.59 1376.72,845.41 1376.72,756.73 1370.08,756.52 1061.43,756.56 "/>
   <polygon fill="#FDFDFD" points="1061.47,941.6 1370.08,941.6 1376.71,941.46 1376.71,852.82 1370.08,852.54 1061.43,852.59 "/>
   <path fill="#EB3237" d="M956.86 391.36c-16.26,-2.34 -5.55,-34.56 -33.01,-60.42 -0.15,24.79 3.76,14.11 -0.24,55.2 -4.41,45.35 18.87,55.75 42.51,83.7 11.41,13.5 12.77,31.03 12.77,52.17 -8.63,-4.17 -6.5,-17.16 -31.77,-31.52 -15.35,-8.72 -32.99,-11.48 -53.13,-6.52 -30.36,7.47 -63.27,47.05 -65.61,61.68 -3.16,19.77 78.85,103.37 133.79,43.74 3.63,-3.94 12.19,-14.37 16.7,-15.85 8.6,7.35 4.99,17.07 16.98,25.69 9.6,6.91 22.4,10.02 26.29,-3.29 -7.31,-10.19 -17.74,-6.67 -22.17,-17.73 -2.18,-5.45 -1.67,-11.61 -4.07,-16.27 -2.66,-5.15 -5.8,-5.01 -9.1,-11.73 26.27,-24.23 15.05,-36.79 6.59,-67.03 -7.71,-27.59 1.61,-54.14 6.1,-80.21 8.23,-47.8 -22.82,-68.11 -33.26,-100.93 -3.84,-12.07 -5.49,-25.02 -9.06,-36.05 -14.6,9.49 -14.44,44.6 -11.77,65.4 1.8,14.06 22.32,45.88 11.45,59.95z"/>
   <path fill="#EB3237" d="M1104.4 550.23c-3.32,6.33 -6.24,6.15 -8.89,11.67 -2.37,4.94 -2.07,11.05 -4.14,16.2 -4.71,11.73 -15.89,8.55 -22.54,17.86 4.2,13.77 16.72,10.12 26.63,3.09 13.46,-9.56 7.47,-19.39 17.9,-26.06 2.43,1.74 11.35,11.97 14.12,14.92 58.18,62.12 136.04,-22.26 135.61,-40.94 -0.25,-10.63 -32.4,-53.9 -64.31,-62.56 -31.2,-8.46 -63.24,3.62 -78.56,27.68 -3.44,5.41 -2,6.62 -7.65,9.88 0.03,-63.39 26.39,-59.49 41.93,-84.03 9.9,-15.63 14.67,-24.76 13.23,-48.23 -1.44,-23.32 -1.88,-34.57 -0.27,-57.98 -21.15,9.8 -17.85,55.99 -32.79,59.81 -11.65,-14.85 9.04,-45.27 11.16,-60.45 2.96,-21.17 2.02,-53.18 -11.16,-64.87 -3.16,4.74 -7.11,27.78 -9.59,35.6 -3.45,10.88 -9.8,21.34 -14.95,30.87 -11.78,21.83 -24.47,35.36 -18.37,70.65 4.67,27.02 14.16,50.45 6.11,79.58 -8.22,29.72 -19.27,45.04 6.53,67.31z"/>
   <path fill="#EB3237" d="M1237.17 1336.36c12.81,-6.66 73.14,-72.27 91.22,-91.14 15.95,-16.64 42.79,-38.01 54.96,-56.06l-324.82 0.12c3.84,5.82 35.86,29.9 43.97,36.68 14.8,12.38 29.42,23.76 44.76,36.51 6.28,5.22 87.21,69.38 89.91,73.9z"/>
   <path fill="#EB3237" d="M886.17 1336.3c3.06,-4.03 5.68,-5.51 9.16,-9.32 22.76,-24.96 64.9,-60.3 85.57,-82.1 13.59,-14.33 51.22,-48.45 55.75,-55.58l-324.72 0.01c3.1,2.48 5.45,5.36 9.17,8.22l119.68 102.16c6.4,5.93 39.76,34.48 45.39,36.62z"/>
   <path fill="#373435" d="M1219.26 1640.12c3.29,4.63 6.02,13.84 7.71,23.43l-13.59 -1.14 5.88 -22.29zm125.46 73.56c1.1,-16.52 2.26,-104.54 -0.65,-116.94l-23.22 0.76 -0.82 42.6 -25.65 0.07c-2.38,-11.09 -0,-26.15 -0.57,-35.01 -0.58,-9.05 0.76,-5.97 -5.01,-8.43l-18.77 2.14c-3.59,8.51 -0.86,93.31 -1.14,110.78 -0.31,-0.4 -0.72,-1.55 -0.85,-1.28l-36.15 -111.62c-30.39,-1.02 -22.01,-7.41 -40.37,55.24 -2.66,9.07 -5.56,18.03 -8.29,27.26l-7.73 24.64c-1.87,3.95 -0.84,1.9 -2.18,3.68 -0.34,-6.7 2.17,-117.08 -2.52,-109.27l-5.56 -1.77c-1.49,-0.19 -6.68,-0.05 -8.51,-0.04 -6.56,0.04 -10.93,-0.53 -15.96,1.39l-12.09 55.48c-8,-13.03 -8.62,-41.46 -13.83,-56.53l-27.3 0.23c-3.5,0.9 -1.85,0.23 -3.88,1.69 -2.46,6.06 -2.53,105.1 -0.3,113.31l10.63 2.48c5.05,0.02 6.49,-0.05 11.08,-1.64l0.93 -47.36c6.14,13.38 3.68,34.84 11.73,48.14l20.33 0.46c6.93,-12.77 6.04,-36.03 11.59,-48.69l0.31 47.62c11.6,3.04 14.95,0.53 22.36,0.18 0.36,-0.01 0.82,-0.03 1.17,-0.03 6.85,0.08 14.57,2.47 25.08,0.08 2.66,-7.91 4.77,-18.04 7.9,-24.19 34.69,0 26.96,-5.61 35.96,24.9 19.99,1.07 20.84,-1.16 25.92,-1.11 1.27,0.01 7.43,1.44 11.92,1.58 9.01,0.3 9.77,-0.57 12.49,-2.25l0.8 -46.32 27 0.15 0.15 47.3 23.99 0.33z"/>
   <path fill="#383535" d="M1724.57 1443.23c-15.37,24.4 -27.47,47.7 -44.53,70.66 -5.92,7.97 -10.54,11.56 -22.68,16.29 -46.2,17.95 -59.67,31.15 -84.76,8.14 -6.81,-6.25 -10.13,-7.04 -19.71,-17.62 -6.22,-6.88 -12.64,-12.48 -13.02,-25.41 -0.3,-10.17 0.31,-24.08 4.65,-32.18 5.11,4.83 6.05,9.82 13.54,13.51 19.34,9.51 45.26,-1.03 61.23,-9.93 71.92,-40.07 73.87,-138.31 81.79,-204.77 2.14,-18.01 3.03,-7.12 8.49,-16.89 3.39,-15.98 -22.29,-27.91 -8.29,-65.53 7.23,-19.41 20.27,-40.05 25.02,-59.59 7.24,-29.74 -14.69,-43.29 -28.32,-54.22 -4.19,-3.37 -9,-6.99 -12.13,-9.92 -1.99,-1.86 -3.11,-3.35 -5.01,-5.11l-22.29 -27.51c6.95,3.56 8.38,6.63 13.76,8.94 9.65,4.13 41.82,12.13 53.33,12.88 90.04,5.92 130.25,-46.71 120.38,-144.21 -1.81,-17.91 -17.64,-49.41 -25.27,-64.47 -5.51,-10.89 -9.77,-20.28 -15.07,-30.8 -5.3,-10.52 -11.49,-18.03 -16.3,-27.65 -4.03,-8.08 -2.32,-9.08 -7.7,-16.03 -13.03,-16.8 -28.88,-43.69 -44.96,-65.13l-18.79 -24c8.93,-11.1 27.33,-19.85 26.93,-42.87 -0.34,-19.2 -7.65,-39.32 -10.6,-57.84 -5.44,-34.11 9.34,-89.83 34.37,-98.41 1.76,28.79 10.59,85.04 30.81,102.85 11.22,9.88 9.44,1.59 14.7,19.18 2.96,9.89 5.86,13.77 13.54,18.63 14.39,9.12 25.83,17.47 40.14,25.92 28.73,16.95 8.11,18.94 26.41,41.29 4.97,6.07 13.83,10.33 14.62,19.6 0.92,10.83 -5.07,15.82 0.36,28.11 4.77,10.8 12.33,10.71 12.98,20.81 0.71,10.99 -1.88,18.66 2.33,29.9 3.92,10.46 10.75,10.14 7.29,21.98 -3.91,13.38 -6.93,10.61 -14.3,17.71 -0.41,12.01 1.82,23.85 2.66,35.66 0.78,10.88 -3.02,26.24 -0.98,33.33 4.1,14.24 -1.04,53.59 -4.19,69.5 -7.94,40.11 -29.73,71.09 -58.83,95.26 -57,47.33 -88.52,24.39 -97.86,56.29 -3.4,11.62 6.8,51.07 8.1,67.17 2.15,26.62 -3.19,44.58 -6.87,69.33 -9.48,63.66 -4.26,148.37 -34.97,197.12zm-42.51 -86.88c-10.38,26.9 -16.58,66.59 -48.07,91.18 -15.46,12.08 -53.38,36.65 -75.04,21.41 -9.49,-6.68 -6.1,-16.84 -16.82,-19.32 -10.35,14.47 -13.4,50.99 -2.9,66.16 3.28,4.74 15.13,17.18 19.68,20.9 4.99,4.08 5.25,3.9 11.07,9.26 24.49,22.57 48.54,6.94 76.91,-4.26 31.68,-12.51 29.98,-11.15 47.27,-35.71 10.88,-15.46 21.42,-34.29 31.63,-51.34 12.33,-20.58 18.54,-29.94 24.43,-58.67 9.1,-44.38 11.67,-104.35 16.37,-151.37 18.09,-62.3 -3.21,-103.13 -2.39,-127.07 1.07,-31.12 38.14,-13.35 90.74,-53.66 49.34,-37.81 67.69,-81.62 71.63,-145.52l0.39 -66.51c-4.19,-50.1 -2.09,-18.52 8.97,-40.59 11.26,-22.45 -2.23,-23.46 -5.7,-36.96 -2.61,-10.13 1.96,-25.16 -2.48,-33.1 -3.42,-6.11 -13.8,-9.63 -13.92,-23.25 -0.11,-12.83 6.03,-18.78 -2.85,-29.51 -6.22,-7.52 -10.53,-7.84 -16.22,-19.37 -12.24,-24.83 15.67,-11.05 -53.54,-54.82 -8.98,-5.68 -15.6,-7.41 -19.07,-16.49 -5.09,-13.37 0.02,-15.26 -12.7,-22.87 -16.78,-10.04 -18.7,-25.36 -25.04,-47.74 -6.09,-21.47 -5.33,-41.4 -10.13,-61.04 -18.31,-2.95 -31.03,21.1 -37.47,35.93 -24.65,56.71 -0.74,88.51 0.93,126.12 1.19,26.63 -21.72,28 -27.78,45.71 3.79,7.38 14.57,18.29 20.32,25.91l36.49 53.26c12.04,19.72 2.85,0.27 16.26,27.79 4.81,9.88 11.1,17.67 16.76,28.93 12.2,24.24 37.2,69.66 39.45,94.39 2.71,29.81 4.13,52.8 -7.17,79.25 -21.32,49.88 -75.04,62.2 -122.65,52.16 -50.42,-10.63 -45.97,-25.72 -62.57,-23.98 -1.9,9.77 11.21,22.76 15.14,27.47 8.64,10.34 10.2,15.16 20.78,23.23 58.66,44.78 39.2,44.5 13.05,111.72 -14.16,36.39 0.4,46.79 7.32,67.19 -3.87,3.63 -5.46,2.8 -7.3,9.09l-4.94 45.48c-2.05,21.57 -5.86,40.31 -8.84,60.59z"/>
   <path fill="#383535" d="M372.78 672.16l-54.48 77.87c-3.4,5.52 -6.27,8.71 -9.31,12.67 -5.04,6.57 -4.04,8.76 -7.67,16.01 -4.61,9.2 -10.57,17.26 -16.05,28.07 -12.09,23.89 -37.85,71.23 -40.18,95.44 -9.38,97.63 32.04,148.8 120.77,142.77 10.63,-0.72 43.12,-8.35 53.18,-13.02 6.06,-2.81 5.76,-5.55 13.71,-8.66 -3.87,8.02 -4.15,5.05 -8.51,10.46 -13.21,16.38 -8.16,14.37 -30.87,31.79 -54.23,41.58 -23.07,59.01 -3.37,114.18 13.82,38.7 -11.26,46.88 -8.34,66.17 4.54,10.73 6.39,-10.93 10.7,39.33 3.85,44.95 9.79,88.84 29.99,128.01 12.09,23.44 28.23,41.48 49.86,53.49 21.73,12.07 53.78,23.71 71.68,0.02 0.21,-0.28 0.51,-0.7 0.72,-0.96l2.38 -2.63c3.27,8.01 4.91,24.69 4.32,33.89 -0.85,13.19 -14.86,27.17 -23.88,34.48 -34.44,27.93 -28.62,23.86 -93.38,-1.25 -13.33,-5.17 -16.24,-7.35 -22.68,-16.31 -6.07,-8.45 -10.67,-14.33 -15.99,-22.9 -22.1,-35.67 -41.3,-61.1 -49.06,-105.11 -7.94,-45.03 -7.95,-93.83 -14.53,-139.48 -3.6,-24.97 -9.11,-42.64 -6.97,-69.71 1.31,-16.5 11.46,-55.08 8.16,-67.03 -5.31,-19.15 -27.88,-22.19 -48.68,-27.55 -21.06,-5.43 -35.91,-17.64 -49.24,-28.63 -29.11,-24.01 -50.96,-56.04 -58.75,-95.25 -3.29,-16.56 -8.82,-54.93 -4.27,-69.93 1.96,-6.46 -1.77,-22.53 -0.95,-33.37 0.87,-11.55 3.06,-23.45 2.63,-34.99 -6.93,-7.43 -10.47,-4.48 -14.26,-17.9 -3.63,-12.84 3.19,-11.48 7.36,-22.43 4.04,-10.6 1.56,-19.06 2.23,-29.75 0.63,-10.24 7.89,-9.61 13.02,-21.04 5.9,-13.14 -0.6,-16.99 0.31,-27.92 1.32,-15.79 19.54,-11.79 24.36,-42.38 1.83,-11.61 6.83,-12.53 15.88,-17.81 14.64,-8.54 25.09,-16.67 39.96,-26.04 7.19,-4.53 11.28,-8.12 14.29,-17.96 6.68,-21.85 -0.43,-5.41 22.18,-26.87 4.71,-4.48 3.57,-3.03 5.63,-11.42 2.32,-9.43 4.95,-16.69 7.87,-25.88 5.87,-18.45 8.5,-37.89 10.05,-58.07 12.21,0.31 23.25,23.58 28.38,38.01 6.4,17.99 9.19,37.15 6.2,57.84 -2.77,19.15 -9.79,37.81 -10.76,57.77 -1.19,24.7 16.65,32.43 26.34,44.04zm176.99 777.51c-12.84,0.12 -4.86,19.95 -28.44,23.05 -39.38,5.19 -77.23,-32.63 -93.08,-63.71 -27.59,-54.06 -24.08,-97.88 -31.39,-150.02 -1.84,-13.16 -1.17,-11.81 -8.73,-17.8 5.75,-19.49 21.84,-28.75 7.31,-66.88 -6.07,-15.95 -23.86,-47.38 -24.84,-63.54 -0.42,-6.97 0.9,-11.84 3.7,-16.88 5.48,-9.85 24.21,-23.81 34.2,-31.85 6.98,-5.62 38.76,-39.07 35.91,-50.2 -11.04,-2.37 -20.56,9.63 -28.56,13.52 -6.19,3.02 -26.29,8.65 -33.86,10.24 -46.6,9.8 -102.93,-2.55 -122.71,-52.02 -11.15,-27.89 -10.2,-48.03 -7.27,-79.47 2.09,-22.46 27.69,-71.44 39.46,-94.69 5.66,-11.18 12.28,-19.16 16.87,-28.76 11.37,-23.72 2.8,-7.02 16.27,-27.78 10.46,-16.12 34.07,-51.63 46.14,-65.64 3.91,-4.53 7.46,-7.88 10.55,-13.4 -6.48,-17.1 -28.25,-19.28 -27.86,-43.99 0.32,-20.19 8.73,-41.89 11.26,-62.34 4.58,-37.1 -13.85,-92.76 -39.65,-100.83l-8.02 -1.32c-4.19,18.42 -3.89,39.1 -9.27,58.95 -2.51,9.25 -5.72,16.93 -8.27,25.68 -4.23,14.57 -2.72,12.96 -12.61,21.24 -10.8,9.03 -10.96,1.81 -15.33,18.46 -3.15,12.02 -4.98,14.5 -13.91,20.02 -14.72,9.1 -26.96,17.85 -42.32,27.14 -25.66,15.52 -7.86,24.48 -25.49,42.22 -5.17,5.21 -12.84,9.45 -14.4,19.32 -1.66,10.46 4.94,16.21 0.44,27.68 -4.33,11.02 -12.86,9.72 -13.9,20.47 -1.07,10.98 2.28,19.89 -1.97,31.4 -1.32,3.57 -23.01,21.84 6.24,44.94 1.97,18.58 -4.83,24.76 -1.2,56.99 0.67,5.95 -5.8,40.47 6.63,89.82 10.66,42.32 40.32,75.27 64.85,94.26 57.02,44.14 99.21,17.64 88.66,67.21 -13.9,65.33 -3.47,78.35 2.3,139.9 4.13,44.07 6.21,100.95 17.79,141.45 6.67,23.32 41.04,79.59 57.54,101.62 15.7,20.96 20.93,19.42 48.98,30.6 53.37,21.25 54.58,15.85 92.76,-19.79 22.19,-20.71 13.39,-51.72 5.25,-75.27z"/>
   <path fill="#373435" d="M1564.73 1640.13c1.73,2.45 -0.25,-1.84 2.25,3.59 1.64,3.55 -1.13,-3.32 0.93,2.59l4.52 17.24 -13.6 -1.12 5.9 -22.3zm-98.38 -17.83c19.41,0 32.99,-4.23 26.33,19.98l-26.43 1.14 0.1 -21.12zm-24.97 87.99l1.15 3.59c11.96,0.95 19.73,-0.34 20.27,-0.5l3.54 -45.3c11.29,0.84 10.91,1.41 19.69,19.45 3.42,7.02 9.81,20.4 14.45,26.08l42.34 0.66c5.03,-7.24 5.69,-18.46 9.15,-25.18 34.77,0 26.9,-5.59 35.94,24.91l24.4 0.11c0.48,-8.61 -2.21,-11.93 -3.54,-19.84 0.26,0.39 0.6,0.54 0.71,1.22l3.82 7.03c12.69,21.87 46.62,17.11 54.09,-8.2 3.25,-10.98 4.49,-85.65 1.6,-96.66l-22.45 -1c-2.57,11.43 -0.73,58.47 -1.07,76.47 -0.21,11.07 0.76,16.22 -10.03,16.73 -4.52,-6.14 -3.19,-9.25 -4.97,-18.13 -29.67,-4.81 -21.94,15.22 -21.42,22.13l-31.72 -97.11 -22.22 -0.04c-9.32,12.01 -23.8,82.12 -33.1,103.08 -8.34,-12.93 -10.78,-24.74 -20.88,-35.79 8.23,-6.99 14.95,-9.43 17.58,-23.55 2.31,-12.39 -0.38,-25.59 -6.58,-33.27 -10.93,-13.52 -30.61,-10.48 -50.62,-10.63 -2.91,-0.03 -7.59,-0.3 -10.27,-0.13 -2.26,0.14 -2.5,0.11 -4.66,0.64 -3.88,0.95 -1.52,0.01 -3.82,1.78 -3.59,8.55 -0.39,93.02 -1.38,111.45z"/>
   <path fill="#373435" d="M1025.29 75.58c179.13,-12.34 321.77,125.96 333.91,290.37 13.39,181.29 -125.19,324.9 -290.54,336.9 -180.9,13.14 -325.53,-125.59 -336.7,-291.56 -12.25,-181.88 125.87,-324.17 293.33,-335.71zm-292.3 387.46c7.19,42.25 35.24,92.59 55.83,119.76 84.89,112 238.98,160.15 377.78,104.35 129.66,-52.12 212.31,-185.54 199.2,-326.84 -2.4,-25.93 -7.53,-50.29 -15.3,-73.34 -6.84,-20.29 -13.73,-35.99 -24.02,-53.9 -3.35,-5.83 -2.57,-2.97 -3.05,-8.39 -4.84,-3.33 -21.27,-29.87 -30.51,-41.06 -135.76,-164.32 -403.47,-156.47 -523.77,41.76 -34.87,57.46 -60.75,159.14 -36.18,237.65z"/>
   <path fill="#373535" d="M993.4 483.2c8.45,30.24 19.67,42.8 -6.59,67.03 3.29,6.72 6.44,6.57 9.1,11.73 2.41,4.65 1.89,10.82 4.07,16.27 4.43,11.06 14.86,7.54 22.17,17.73 -3.89,13.31 -16.69,10.19 -26.29,3.29 -11.99,-8.62 -8.38,-18.34 -16.98,-25.69 -4.51,1.48 -13.07,11.91 -16.7,15.85 -54.95,59.63 -136.95,-23.97 -133.79,-43.74 2.34,-14.63 35.25,-54.2 65.61,-61.68 20.14,-4.96 37.79,-2.2 53.13,6.52 25.27,14.36 23.14,27.35 31.77,31.52 0,-21.15 -1.35,-38.67 -12.77,-52.17 -23.64,-27.96 -46.92,-38.35 -42.51,-83.7 4,-41.1 0.08,-30.41 0.24,-55.2 27.46,25.86 16.75,58.08 33.01,60.42 10.87,-14.07 -9.65,-45.89 -11.45,-59.95 -2.67,-20.8 -2.83,-55.91 11.77,-65.4 3.57,11.03 5.22,23.98 9.06,36.05 10.44,32.82 41.49,53.13 33.26,100.93 -4.49,26.08 -13.81,52.62 -6.1,80.21zm-55.35 -149.28c-4.78,-5.34 -9.95,-12.98 -20.67,-9.58 -1.14,4.85 1.06,33.25 -0.53,53.11 -2.61,32.5 -0.44,44.71 17.4,70.05 6.98,9.91 32.19,20.3 35.68,51.69 -28.34,-34.15 -86.21,-36.59 -127.58,11.07 -32.27,37.17 -25.28,45.64 5.43,76.2 11.07,11.02 22.3,20.15 38.54,25.85 57.1,20.05 82.97,-21.66 90.85,-26.55 8.8,12.05 4.35,14.39 19.76,22.63 11.93,6.38 24.67,4.62 30.5,-4.6 9.17,-14.52 -7.88,-18.93 -15.81,-23.64 -6.66,-3.95 -5.45,-7.82 -6.98,-14.9 -2,-9.25 -4.28,-8.41 -7.4,-15.33 29.57,-22.26 -1.1,-62.72 0.21,-94.59 1.83,-44.43 21.97,-51.74 3.3,-101.39 -1.23,-3.27 -1.94,-6.94 -3.58,-10.02 -1.7,-3.17 -3.94,-5.37 -6.14,-9.09 -14.17,-23.91 -19.68,-34.76 -25.13,-64.48 -5.35,-29.19 -20.52,-4.29 -24.98,8.22 -6.71,18.8 -3.84,35.67 -2.87,55.35z"/>
   <path fill="#373535" d="M1104.4 550.23c-25.8,-22.27 -14.75,-37.59 -6.53,-67.31 8.06,-29.13 -1.43,-52.55 -6.11,-79.58 -6.1,-35.29 6.59,-48.83 18.37,-70.65 5.15,-9.53 11.49,-19.99 14.95,-30.87 2.48,-7.82 6.43,-30.86 9.59,-35.6 13.18,11.69 14.11,43.7 11.16,64.87 -2.12,15.18 -22.8,45.6 -11.16,60.45 14.94,-3.82 11.64,-50.01 32.79,-59.81 -1.61,23.4 -1.17,34.66 0.27,57.98 1.44,23.47 -3.33,32.61 -13.23,48.23 -15.54,24.53 -41.9,20.64 -41.93,84.03 5.65,-3.25 4.21,-4.47 7.65,-9.88 15.32,-24.06 47.36,-36.14 78.56,-27.68 31.91,8.65 64.06,51.93 64.31,62.56 0.43,18.68 -77.43,103.06 -135.61,40.94 -2.77,-2.95 -11.69,-13.18 -14.12,-14.92 -10.42,6.66 -4.44,16.5 -17.9,26.06 -9.91,7.03 -22.43,10.68 -26.63,-3.09 6.65,-9.31 17.84,-6.13 22.54,-17.86 2.07,-5.15 1.77,-11.26 4.14,-16.2 2.65,-5.51 5.57,-5.34 8.89,-11.67zm-10.4 -0.02c-3,5.59 -5,5.94 -7.03,13.52 -2.02,7.53 -0.76,12.15 -6.01,15.76 -7.44,5.12 -25.32,7.45 -17.67,23.35 6.24,12.96 32.77,15.89 48.43,-12.92l2.64 -4.23c14.14,11.89 12.9,17.4 36,26.82 17.57,7.17 35.48,6.26 53.49,0.12 15.12,-5.15 27.27,-13.77 38.17,-24.51 9.86,-9.71 22.43,-20.66 28.03,-36.48 5.48,-15.49 -30.49,-56.17 -54.53,-68.69 -32.88,-17.12 -75.63,-6.08 -93.99,16.08 0.72,-16.31 7.52,-21.26 12.84,-28.68 17.34,-24.22 45.36,-27.07 40.05,-92.64 -0.72,-8.97 -1.79,-18.21 -1.22,-27.38 0.65,-10.39 4.67,-21.34 -1.01,-25.74 -8.48,-4.4 -15.19,4.65 -18.8,8.88 0.28,-19.76 3.39,-34.03 -2.62,-53.4 -4.14,-13.38 -19.88,-38.59 -25.4,-10 -10.36,53.65 -22.71,51.85 -35.32,84.81 -17.39,45.47 1.96,58.65 3.74,100.45 1.43,33.64 -29.31,70.52 0.2,94.87z"/>
   <path fill="#EB3237" d="M1026.31 173l-63.47 -0.02c10.46,7.61 41.42,32.33 50.68,36.2l-19.22 61.36c6.88,-3.43 17.99,-12.66 25.58,-18.04 8.31,-5.88 17.79,-14.29 26.6,-18.66 7.45,6.09 15.46,11.78 24.2,17.99 8.41,5.97 16.12,12.95 25.43,17.62l-18.2 -57.97c4.87,-5.79 17.17,-14 24.23,-18.94 7.63,-5.34 21.27,-14.32 26.02,-19.66l-63.18 0.26 -19.01 -59.76c-5.83,9.19 -15.92,46.29 -19.67,59.61z"/>
   <path fill="#373435" d="M562.26 1688.57l-8.86 0 0 -22.66 7.17 0c10.52,0 22.05,-1.95 22.69,10.49 0.72,13.9 -9.41,12.17 -21,12.17zm-8.38 -48.08l-0.58 -6.39 0.1 -12.11 5.47 0c9.71,0 24.22,-2.8 20.75,11.88 -2.19,9.25 -15.97,6.62 -25.74,6.62zm-25.04 -35.18l0 99.92c0,11.34 -2.72,9.06 30.03,9.06 23.59,0 36.39,1.16 45.03,-16.58 10.12,-20.79 2.38,-35.72 -7.85,-46.67 5.49,-11.87 12.99,-20.73 4.65,-38.43 -9.75,-20.7 -33.66,-16.04 -63.85,-16.04 -8.43,0 -8.01,0.76 -8.01,8.74z"/>
   <path fill="#373435" d="M434.48 1622.31c13.95,0 29.41,-3.55 27.94,11.65 -1.15,11.84 -13.04,9.47 -28.08,9.47l0.14 -21.12zm-23.71 -25.1l-0.45 115.78c11.2,2.23 11.62,1.65 23.3,0.81l0.83 -44.95c13.19,-1.88 19.54,17.32 28.65,35.56 5.43,10.88 6.05,11.69 30.97,9.02 1.33,-8.38 -19.83,-43.97 -24.81,-48.69 4.26,-5.46 10.76,-7.09 14.85,-15.61 3.63,-7.56 4.38,-18.74 2.49,-27.63 -6.02,-28.38 -32.11,-26.48 -68.29,-24.94l-7.53 0.64z"/>
   <path fill="#373435" d="M958.46 1699.36l-1.2 -50.73c-7.09,-1.68 -35.28,-2.34 -40.88,0.72l-1.1 23.68 18.73 0.84c1.15,9.19 -0.73,11.39 -7.81,14.28 -20.04,8.19 -29.85,-10.49 -29.86,-33.74 -0,-37.81 30.83,-45.75 37.85,-16.42 4.99,-0.08 19.47,-1.76 22.64,-5.98 1.85,-2.47 1.06,-39.66 -47.4,-37.03 -18.68,5.93 -25.97,12.22 -33.01,29.81 -17.25,43.09 6.65,109.85 61.95,87.34 9.67,-3.94 11.26,-6.74 17.44,-11.13 2.09,-1.48 1.24,-0.96 2.63,-1.65z"/>
   <path fill="#373435" d="M726.22 1622.31c27.09,0.05 29.87,4.93 29.73,33.81 -0.14,29.23 -2.52,32.45 -29.83,32.45l0.1 -66.26zm-16.63 91.98c40.01,0 71.43,3.21 71.36,-58.17 -0.08,-65.04 -33.03,-59.56 -71.36,-59.56 -10.74,0 -8.05,1.53 -8.02,23.98l0 67.74c0.01,23.91 -3.65,26 8.02,26z"/>
   <path fill="#373435" d="M333.27 1670.9c-7.83,1 -10.64,2.31 -4.36,20.39 2.85,8.21 7.87,15.25 14.36,19.52 17.19,11.3 41.73,4.79 51.4,-7.24 12.04,-14.98 16.38,-51.05 -21.2,-63.57 -9.67,-3.22 -18.38,-4.12 -20.91,-12.68 3.12,-7.81 8.43,-8.56 17.18,-5.89 7.71,5.52 3.06,6.73 7.92,14.14l21.71 -3.62c1.65,-8.43 -1.93,-18.16 -6.53,-24.94 -4.47,-6.58 -11.47,-9.77 -21.96,-12.15 -27.91,-1.06 -47.49,12.69 -41.1,43.18 6.27,29.94 42.55,26.87 47.68,36.7 1.69,11.08 -4.42,17.87 -16.39,15.16 -9.07,-2.06 -10.15,-11.7 -12.39,-19.99l-15.41 1z"/>
   <path fill="#373435" d="M787.94 1605.31l0 50.81c0,32.9 2.09,59.22 36.79,60.12 36.83,0.96 39.01,-26.82 39.01,-60.12l-0.48 -58.25c-11.47,-2.15 -11.07,-1.49 -23.03,-0.87 -7.71,29.8 12.48,97.87 -16.83,92.83 -18.99,-3.26 -8.63,-61.52 -10.69,-86.35 -0.7,-8.38 -0.63,-6.91 -16.73,-6.91 -8.44,0 -8.03,0.75 -8.03,8.74z"/>
   <path fill="#373435" d="M651.9 1640.16l7.66 23.37 -13.63 -1.06 5.97 -22.32zm-44.76 72.68c6.84,2.48 15.58,1.83 22.86,0.86 4.97,-6.77 5.58,-17.91 9.12,-24.6l27.61 0c3.61,5.72 6.22,17.96 8.3,24.92l24.41 0.09c0.46,-8.26 -30.38,-105.34 -34.97,-117.34l-22.63 -0.06c-4.2,7.14 -35.25,110.34 -34.71,116.13z"/>
   <path fill="#373435" d="M1716.33 1645.07c2.11,-5.77 1.66,-3.43 2.39,-4.86l6.41 23.15 -13.62 0 4.83 -18.29zm-43.65 67.04c5.89,4.01 16.97,2.09 24.08,1.6l7.02 -24.47c34.73,-0.19 28.29,-5.7 36.81,24.65 33.7,2.25 26.23,1.13 18.05,-26.31l-20.24 -64.48c-9.34,-29.38 -2,-27.13 -31.83,-26.34 -4.31,11.88 -34.84,110.27 -33.88,115.36z"/>
   <path fill="#373435" d="M1004.15 1640.21l7.61 23.15 -13.88 -0.08 6.27 -23.07zm-42.5 61.62l-3.02 10.93c7.64,2.51 16.33,1.94 23.62,0.89l8.53 -24.72 28.19 0.17c3.3,5.67 6.3,18.21 8.25,24.95l24.4 0.04c0.54,-8.57 -31.21,-110.54 -35.52,-117.41l-22.01 0.49c-3.32,4.44 -30.35,93.96 -32.46,104.66z"/>
   <path fill="#373435" d="M1391.99 1640.11l7.71 23.44 -13.6 -1.13 5.89 -22.32zm-45.81 73.02c5.3,1.47 16.19,1.57 23.9,0.59 5.04,-6.66 5.72,-17.89 9.15,-24.62 34.73,0 26.93,-5.6 35.95,24.9 21.59,0.35 23.44,2.36 24.63,-3.7l-35.2 -113.68 -23.54 0.08 -34.88 116.45z"/>
   <path fill="#373435" d="M1140.03 1855.37c-6.79,-8.08 -10.95,-64.22 1.42,-70.75 8.52,5.05 6.82,26.36 6.81,35.77 -0.02,10.94 1.82,31.91 -8.23,34.98zm-4.73 -94.59c-24.33,5.88 -26.42,39.6 -25.57,66.44 0.82,25.89 8.06,58.84 38.06,52.07 22.96,-5.18 25.91,-41.29 24.86,-67.39 -1.05,-26.02 -8.56,-58.07 -37.34,-51.12z"/>
   <path fill="#373435" d="M1068.63 1855.22c-4.28,-3.38 -2.9,-0.45 -4.71,-8.18 -2.2,-9.35 -4.19,-54.54 4.71,-62.33 11.49,4.87 8.1,44.82 7.03,56.17 -1.6,17.12 -3.94,13.2 -7.03,14.33zm-5.67 -94.12c-25.85,7.94 -25.99,42.84 -25,67.8 0.53,13.28 2.12,27.08 8.35,37.5 11.73,19.65 58.64,31.15 54.43,-56.25 -1.18,-24.5 -9.93,-57.6 -37.77,-49.06z"/>
   <path fill="#373435" d="M927.96 1798.75c40.1,10.38 12.99,-16.03 35.55,-13.58 18.14,25.8 -44.89,56.36 -36.65,92.27 11.93,1.85 53.76,2.77 62.81,-0.55 1.7,-4.82 2.23,-16.26 0.13,-21.86 -2.44,-6.51 -18.66,-3.56 -28.41,-3.56 6.99,-12.55 15.4,-17.74 23.09,-32.27 18.19,-34.35 -4.6,-69.2 -36.93,-57.21 -12.98,4.81 -19.87,18.82 -19.59,36.77z"/>
   <path fill="#373435" d="M1026.31 173c3.75,-13.32 13.84,-50.42 19.67,-59.61l19.01 59.76 63.18 -0.26c-4.75,5.34 -18.39,14.32 -26.02,19.66 -7.06,4.94 -19.36,13.15 -24.23,18.94l18.2 57.97c-9.32,-4.67 -17.03,-11.66 -25.43,-17.62 -8.74,-6.2 -16.74,-11.9 -24.2,-17.99 -8.81,4.37 -18.29,12.77 -26.6,18.66 -7.59,5.38 -18.7,14.61 -25.58,18.04l19.22 -61.36c-9.26,-3.87 -40.22,-28.59 -50.68,-36.2l63.47 0.02zm-5.43 -7.54l-63.37 0.75c-6.83,10.63 -3.18,10.74 17.65,25.33 8.3,5.81 22.15,15.02 29.19,21.66 -2.21,22 -25.79,59.1 -14.14,65.12 7.44,3.84 40.36,-26.34 54.72,-34.83 7.29,2.63 20.98,14.26 28.17,19.43 5.07,3.64 8.73,6.04 13.73,10 6.31,4.99 7.87,6.93 16.47,5.22 3.38,-10.02 -12.85,-52.02 -16.97,-64.35 9.16,-9.22 42.28,-29.94 46.9,-34.33 8.84,-8.39 4,-13.82 -10.41,-13.78l-52.44 0.09 -15.94 -50.18c-2.59,-8.33 -2.61,-11.76 -13.03,-10.55 -6,9.95 -16.48,45.96 -20.53,60.42z"/>
   <path fill="#373435" d="M860.45 1789.25l0.29 23.41c8.9,2.72 14.17,-5.1 20.81,-8.43 0.88,16.87 -2.15,60.47 1.39,73.13 28.87,3.37 22.4,1.88 22.4,-41.73 0,-6.96 1.67,-70.88 -1.43,-74.14 -1.14,-1.2 -14.52,-5.83 -19.36,1.81 -5.27,8.33 -2.47,7.51 -9.88,15.55 -6.39,6.92 -7.06,5.96 -14.23,10.4z"/>
   <path fill="#373435" d="M1185.98 1789.94c-0.26,21.12 -2.33,27.49 9.33,21.94 3.38,-1.61 9.54,-6.43 11.57,-7.82 1.93,18.84 -3.22,58.86 1.58,72.94 18.83,3.17 22.41,2.45 22.41,-7.5l0 -101.61c0,-8.66 -2.34,-8.11 -11.52,-8.11 -13.12,0 -7.45,5.58 -16.01,15.76 -8.92,10.61 -11.18,9.27 -17.37,14.4z"/>
   <path fill="#373435" d="M496.33 1713.56l23.05 0.43c1.68,-10.45 1.69,-108.7 -0.3,-116.32l-22.45 -1.01c-2.21,9.82 -2.12,105.92 -0.31,116.9z"/>
   <path fill="#FDF112" d="M726.12 1688.57c27.3,0 29.69,-3.23 29.83,-32.45 0.14,-28.87 -2.64,-33.76 -29.73,-33.81l-0.1 66.26z"/>
   <path fill="#373435" d="M212.99 701.84c-28.82,9.77 -14.73,51.48 13.8,43.02 28.45,-8.43 14.51,-52.62 -13.8,-43.02z"/>
   <path fill="#373435" d="M1878.49 778.37c-30.79,7.86 -18.65,51.11 10.75,43.75 28.09,-7.03 17.01,-50.84 -10.75,-43.75z"/>
   <path fill="#373435" d="M203.56 778.37c-30.65,7.75 -19.07,51.35 10.73,43.72 28,-7.17 16.77,-50.68 -10.73,-43.72z"/>
   <path fill="#373435" d="M266.82 638.22c-7.23,2.48 -9.36,3.5 -13.23,9.81 -10.31,16.81 5.43,39.13 26.26,33.01 27.33,-8.03 15.75,-52.69 -13.03,-42.82z"/>
   <path fill="#373435" d="M1812.43 637.84c-29.71,8.3 -16.74,51.46 12.05,43.4 26.14,-7.32 17.45,-51.64 -12.05,-43.4z"/>
   <path fill="#373435" d="M1864.42 701.98c-27.86,8.68 -15.1,51.38 13.73,43.02 26.23,-7.61 16.54,-52.46 -13.73,-43.02z"/>
   <path fill="#FDF012" d="M1068.63 1855.22c3.1,-1.13 5.43,2.79 7.03,-14.33 1.06,-11.36 4.46,-51.3 -7.03,-56.17 -8.9,7.78 -6.91,52.98 -4.71,62.33 1.82,7.73 0.43,4.8 4.71,8.18z"/>
   <path fill="#FDF112" d="M1140.03 1855.37c10.05,-3.08 8.2,-24.04 8.23,-34.98 0.02,-9.41 1.72,-30.71 -6.81,-35.77 -12.37,6.53 -8.21,62.67 -1.42,70.75z"/>
   <path fill="#373435" d="M1004.48 1850.87c-0.62,1.36 -6.44,24.31 3.51,26.76 2.05,0.5 4.23,0.66 6.38,0.69 4.25,0.05 7.07,-0.2 11.12,-1.16 1.42,-4.92 2.66,-19.52 0.52,-24.2 -2.4,-5.25 -16.1,-3.79 -21.53,-2.09z"/>
   <path fill="#FDF112" d="M562.26 1688.57c11.59,0 21.72,1.73 21,-12.17 -0.64,-12.44 -12.17,-10.49 -22.69,-10.49l-7.17 0 0 22.66 8.86 0z"/>
   <path fill="#FDF112" d="M434.34 1643.43c15.05,0 26.94,2.37 28.08,-9.47 1.47,-15.2 -13.99,-11.65 -27.94,-11.65l-0.14 21.12z"/>
   <path fill="#FDF112" d="M1466.25 1643.43l26.43 -1.14c6.66,-24.21 -6.92,-19.98 -26.33,-19.98l-0.1 21.12z"/>
   <path fill="#FDF112" d="M553.88 1640.49c9.77,0 23.55,2.62 25.74,-6.62 3.47,-14.68 -11.03,-11.88 -20.75,-11.88l-5.47 0 -0.1 12.11 0.58 6.39z"/>
   <path fill="#FDF012" d="M1213.38 1662.41l13.59 1.14c-1.68,-9.59 -4.42,-18.8 -7.71,-23.43l-5.88 22.29z"/>
   <path fill="#FDF012" d="M1558.83 1662.43l13.6 1.12 -4.52 -17.24c-2.06,-5.91 0.71,0.97 -0.93,-2.59 -2.5,-5.43 -0.52,-1.14 -2.25,-3.59l-5.9 22.3z"/>
   <path fill="#FDF012" d="M1711.51 1663.36l13.62 0 -6.41 -23.15c-0.73,1.43 -0.28,-0.91 -2.39,4.86l-4.83 18.29z"/>
   <polygon fill="#FDF112" points="997.88,1663.28 1011.76,1663.36 1004.15,1640.21 "/>
   <polygon fill="#FDF012" points="645.93,1662.48 659.57,1663.54 651.9,1640.16 "/>
   <polygon fill="#FDF012" points="1386.1,1662.43 1399.7,1663.56 1391.99,1640.11 "/>
  </g>
 </g>
</svg>
