<?xml version="1.0" encoding="UTF-8"?>
<!DOCTYPE svg PUBLIC "-//W3C//DTD SVG 1.1//EN" "http://www.w3.org/Graphics/SVG/1.1/DTD/svg11.dtd">
<!-- Creator: CorelDRAW 2020 (64-Bit) -->
<svg xmlns="http://www.w3.org/2000/svg" xml:space="preserve" width="2.50137in" height="2.40376in" version="1.1" shape-rendering="geometricPrecision" text-rendering="geometricPrecision" image-rendering="optimizeQuality" fill-rule="evenodd" clip-rule="evenodd"
viewBox="0 0 2140.28 2056.76"
 xmlns:xlink="http://www.w3.org/1999/xlink"
 xmlns:xodm="http://www.corel.com/coreldraw/odm/2003">
 <g id="Layer_x0020_1">
  <metadata id="CorelCorpID_0Corel-Layer"/>
  <g id="_2618205622800">
   <path fill="#00A758" d="M1039.54 1917.04c2.35,3.66 3.22,22.81 -0.41,26.49 -3.53,3.58 -16.55,2.45 -18.29,2.11 -7.61,-1.48 -5.44,-6.18 -5.45,-15.23 -0.01,-11.09 -4.15,-17.22 15.84,-15.72l8.31 2.35zm94.81 -17.83c-7.61,-93.78 38.69,-93.29 55,-75.01 19.57,21.9 20.37,104.15 -6.05,119.69 -25.45,14.97 -45.99,-8.06 -48.96,-44.67zm-79.8 -1.73c-6.66,-95.81 41.25,-90.11 55.95,-72.41 7.87,9.48 11.11,24.44 12.35,39.41 2.28,27.36 0.25,69.1 -20.33,80.07 -27.43,14.63 -45.59,-12.76 -47.97,-47.07zm-195.16 -23.69c-3.71,-5.76 -2.12,-19.6 -1.8,-27.02 23.22,-9.3 24.77,-29.04 29.11,-31.36 2.91,-0.36 9.94,-0.89 12.74,-0.66 6.6,0.55 7.11,1.1 7.11,8.2l0 114.38c0,9.89 -0.6,8.25 -17.51,8.25 -11.88,0 -8.04,-10.54 -8.04,-35.98 0,-15.37 0,-30.75 0,-46.13 -6.42,3.35 -15,11.48 -21.61,10.31zm356.44 -16.76c-2.56,-2.49 -1.51,0.05 -2.18,-4.52 -4.09,-27.67 41.17,-58.28 63.84,-21.17 8.59,14.07 5.35,35.92 -1.6,49.25 -7.95,15.26 -20.22,23.68 -26.57,35.93 9.89,0.14 23.7,-1.6 31.83,1.18 2.69,11.17 1.69,7.23 1.57,19.64 0,8.71 -0.67,8.25 -8.94,8.25 -66.76,0 -66.45,4.83 -60.48,-16.68 8.99,-32.35 38.93,-50.98 42.85,-68.27 1.91,-8.4 1.06,-19.03 -8.35,-18.71 -11.59,0.4 -5.07,11.54 -10.61,17.24 -3.18,3.27 -18.16,0.56 -21.35,-2.14zm-283.43 0.67c-2.9,-45.31 47.46,-56.57 63.83,-25.76 12.77,24.04 0.44,47.98 -14.36,66.47 -4.88,6.11 -9.65,10.63 -13.9,18.18 7.26,0 14.52,-0.12 21.76,-0.15 13.11,-0.05 11.65,-1.41 11.65,20.89 0,7.92 -2.16,8.3 -9.89,8.42l-61.45 -0.7c-0.2,-33.97 24.85,-51.65 40.66,-75.08 6.11,-9.05 6.91,-17.85 0.52,-27.87 -28.56,-0.69 7.26,26.48 -38.82,15.6zm398.56 -93.79l-65.1 -0.5c-3.43,-9.34 -2.3,-110.66 -1.02,-127.82 8.19,-0.69 17.95,-1.87 25.48,0.96l0.7 99.39c53.06,0 48.04,-6.01 48.04,19.42 0,7.02 -0.84,8.55 -8.1,8.55zm-310.99 -128.93c5.85,-1.72 18.21,-1.7 24.1,-0.03 2.52,7.12 3.08,120.86 -0.39,127.93 -5.48,1.76 -17.85,1.78 -23.3,-0.03 -2.44,-4.91 -1.78,-7.52 -1.73,-14.39 0.18,-22.65 -2.02,-104.05 1.32,-113.49zm557.03 127.42c-2.91,-6.3 13.67,-53.47 16.64,-63.19 5.26,-17.2 13.31,-50.21 20.27,-64.64l25.15 -0.52c6.54,13.75 15.74,48.36 20.6,64.71 4.46,15.01 23.91,61.49 15.26,64.17l-2.68 0.82c-1.26,0.23 -5.3,0.31 -6.72,0.31 -4.56,0 -8.8,-0.12 -13.3,-0.73l-8.85 -27.3 -33.53 -0.07c-7,31.78 -7.45,28.13 -18.84,28.13 -6.02,0 -9.86,0.44 -13.99,-1.7zm-406.54 0.74l-21 0.24c-0.42,-0.12 -0.9,-0.37 -1.26,-0.51 -8.35,-3.16 11.19,-52.97 14.36,-63.22 4.68,-15.18 14.42,-53.97 20.37,-64.62l25.16 -1.09c6.3,14.77 23.47,73.45 30.42,96.03 2.73,8.88 10.91,25.48 7.66,32.57 -5.23,2.42 -19.1,2.16 -24.83,0.38 -4.57,-3.39 -4.83,-25.18 -11.69,-26.96l-27.67 0c-5.15,2.85 -4.81,6.38 -6.54,12.97 -1.55,5.93 -2.62,10.5 -4.98,14.22zm-492.77 0.46l-25.25 -0.18c-2.49,-8.93 13.6,-52.89 17.06,-64.68 5.46,-18.6 13.15,-49.01 19.99,-64.53l25.17 -0.15 37.95 119.31c1.6,5.82 1.95,4.83 0.1,9.68l-24.84 0.67c-3.47,-6.37 -6.97,-19.3 -8.64,-27.65l-33.79 -0.13 -7.74 27.66zm-131.8 -37.7c-9.71,44.17 -41.42,37.65 -69.38,38.07 -18.85,0.28 -15.31,4.85 -15.31,-38.07l-0.18 -81.65c0.04,-13.67 3.08,-10.52 17.26,-10.33 16.52,0.22 35.01,-2.09 47.94,5.94 20.72,12.88 26.66,54.2 19.66,86.04zm810.14 -6.93c-6.23,-35.35 3.86,-73.91 31.08,-84.21 37.11,-14.05 61.02,14.65 66.14,45 16.84,99.66 -83.91,114.72 -97.23,39.22zm-559.07 36.4c0,10.15 -1.05,8.55 -18.83,8.55 -11.06,0 -7.81,-8.25 -7.8,-27.61l-0.16 -92.02c0.04,-11.68 0.57,-10.32 18.36,-10.32 15.28,0 6.21,13.74 8.77,48.33l30.1 -0.19c0.56,-13.56 -1.82,-36.2 1.45,-47.54 23.89,-2.65 25.35,-1.3 25.35,8.16l0 112.65c0,10.65 -3.6,9.27 -25.09,8.12 -3.6,-10 -1.55,-40.14 -1.55,-52.38 -10.16,-1.72 -19.66,-0.94 -30.63,-0.86l0.04 45.12zm147.37 -37.76c-3.16,26.7 11.56,52.1 -20.5,46.18l-5.05 -1.93c-3.33,-3.64 -2.95,-123.25 -0.28,-126.15 3.31,-3.57 34.02,-1.88 41.67,-1.61 28.36,0.98 40.09,18.64 37.27,48.13 -2.93,30.65 -21.86,35.39 -53.11,35.39zm200.35 -82.7c2.3,7.53 2.3,18.49 0,26.02l-26.89 1.12c-0.47,16.49 2.82,92.27 -1.78,100.18 -4.85,2.89 -16.36,2.15 -23.46,1.04 -3.96,-10.77 -1.3,-82.99 -1.62,-100.62 -18.34,-3.5 -26.36,4.82 -28.4,-6.07 -0.03,-0.17 -0.03,-17.17 0,-17.34 1.32,-7.04 3.02,-5.49 11.78,-5.44 15.3,0.09 58.43,-1.69 70.36,1.1zm416.78 129.01l-22.56 -0.18c-6.88,-11.02 -18.97,-46.35 -26.1,-53.27 -5.88,9.31 -10.53,9.84 -10.42,25.77 0.04,5.76 0.32,11.91 0.25,17.61 -0.12,11.41 -0,11.11 -25.3,9.6 -3.32,-9.18 -2.44,-112.79 -0.61,-128.87 35.63,-3.97 24.45,-0.24 25.89,44.84 5.91,-5.77 11.76,-14.93 16.52,-21.83 5.65,-8.17 11.27,-15.28 16.54,-23.18l30.7 -0.06c1.36,8.51 -11.1,20.82 -19.54,31.87 -17.05,22.31 -16.35,16.46 -8.15,32.12l26.17 51.98c3.56,6.69 8.85,13.6 -3.4,13.6zm-999.34 -129.23l27.37 -0.74 20.54 41.71 19.37 -41.13 27.16 -0.49c2.85,18.02 -34.17,57.86 -33.96,88.36 0.06,8.44 1.82,33.42 -1.64,40.65 -4.23,1.13 -15.73,2.5 -21.1,0.67 -5.17,-1.76 -3.66,0.04 -4.06,-8.08 -2.68,-55.73 10.46,-26.06 -20.27,-87 -3.73,-7.4 -15.78,-26.29 -13.42,-33.95zm261.17 -863.67c0,-22.3 15.46,-6.43 20.72,-1.72l138.63 130.35c9.71,-10.75 18.77,-23.93 27.55,-35.24l54.38 -70.38c24.14,-30.34 26.65,-43.41 39.72,-26.75l97.61 115.46c4.58,5.45 9.19,12.37 14.7,16.87l119.6 -125.06c6.24,-7.01 9.36,-15.29 21.3,-13.99 6.05,11.17 2.57,239.23 2.57,273.89 0,20.88 1.68,260.32 -0.99,274.52 -4.29,1.68 -4.69,2.06 -10.78,2.06l-512.97 0c-9.93,0 -12.04,-1.26 -12.04,-11.43l0 -528.57zm-174.65 268.39c2.61,7.11 12.96,56.95 21.2,82.53 15.37,47.73 42.12,98.34 72.25,135.69 48.91,60.62 103.75,104.75 177.32,136.39 115,49.47 228.69,48.94 343.62,0.52 33.56,-14.14 70.91,-35.71 98.6,-57.37 50.98,-39.86 87.75,-84.87 120.08,-141.6 41.98,-73.66 42.43,-129.4 53.01,-156.35 9.96,-1.64 131.09,25.09 140.49,30.44 2.88,10.1 -6.03,39.17 -8.65,50.86 -15.71,70.18 -4.71,45.65 -70.32,37.03l-23.36 59.58c7.34,2.34 44.98,24.65 48.51,29.22 0.42,8.88 -13.21,27.75 -18.07,36.19 -44.44,77.18 -20.79,51.12 -85.19,22.69l-51.62 60.22c5.86,9.18 32.47,36.46 34.39,45.06 -2.41,7.26 -11.67,12.7 -17.29,17.51 -9.5,8.12 -54.19,47.05 -59.07,46.65 -10.35,-3.93 -28.6,-34.29 -39.86,-42.83 -19.31,10.57 -38.59,23.58 -60.4,33.99 10.07,37.23 32.67,51.66 9.82,60.49 -14.43,5.58 -77.44,33.98 -82.87,31.29 -6.1,-6.49 -20.35,-43.44 -24.61,-54.88 -12.49,1.89 -27.25,6.34 -40.78,8.93 -14.76,2.83 -30.43,3.66 -45.09,6.49 0,75.9 7.98,62.81 -48.96,62.81 -58.98,0 -49.24,11.04 -49.24,-62.47 -11.41,-3.25 -30.64,-4.29 -43.6,-6.65 -14.18,-2.58 -28.8,-6.93 -42.2,-9.22 -28.24,66.09 -10.8,63.89 -71.66,38.34 -9.26,-3.89 -40.3,-14.62 -45.26,-21 -2.06,-8.51 15.87,-43.14 19.2,-53.75 -16.93,-9.65 -46.42,-23.29 -59.49,-34.69 -7.04,4.3 -14.56,15.08 -20.06,21.96 -25.48,31.87 -16.95,25.09 -59.83,-8.77 -4.72,-3.73 -36.3,-29.28 -36.96,-32.47 0.44,-6.5 2.96,-9.09 6.26,-12.94l27.85 -33.85c-8.25,-11.42 -11.54,-13.38 -19.24,-21.64 -2.87,-3.09 -4.19,-5.53 -7.01,-8.67 -6.07,-6.76 -21.53,-26.58 -26.92,-29.94 -8.31,6.68 -22.91,13.69 -33.22,19.99 -20.53,12.55 -18.69,11.79 -29.81,-7.51 -4.9,-8.51 -40.95,-65.93 -38.67,-71.8 4.02,-4.55 40.56,-25.6 48.51,-28.9 -1.27,-4.75 -23.09,-57.34 -24.69,-59.24 -14.27,1.65 -44.94,12.39 -57.27,10.01 -4.68,-9.08 -11.21,-44.75 -14.18,-58.33 -2.27,-10.35 -4.73,-19.74 -6.7,-29.82 -2.71,-13.81 6.67,-12.77 19.28,-15.61 18.95,-4.26 110.7,-26.74 121.74,-24.56zm1167.02 -562.45c6.23,25.61 3.23,53.76 20.47,95.57 2.03,4.92 8.68,11.38 13.35,14.45 10.05,6.6 9.36,3.05 12.84,16.66 5.18,20.31 14.74,19.62 29.19,29.69 6.17,4.31 10.14,7.27 16.35,11.35 23.54,15.44 24.37,10.4 27.99,30.8 3.46,19.48 18.68,24.07 23.12,34.3 7.83,18.07 -12.05,22.24 10.39,44.97 8.12,8.22 4.36,11.11 4.51,25 0.31,27.69 15.98,21.74 10,42.72 -7.8,27.4 -16.84,1.75 -12.76,41.43 0.91,8.84 1.94,17.86 1.35,26.77 -1.97,29.77 -0.08,9.7 0.32,25.84 1.31,52.66 -9.64,98.2 -39.17,136.55 -14.39,18.69 -37.83,40.69 -62.89,53.29 -28.51,14.33 -73.17,8.75 -63.83,49.94 9.43,41.6 10.62,61.64 3.41,104.33 -10.25,60.69 -7.62,147.59 -29.73,202.67 -4.28,10.68 -35.82,61.36 -43.4,72.67 -23.67,35.35 -24.54,30.76 -67.97,48.14 -12.9,5.16 -29.72,13.18 -45.49,8.47 -9.3,-2.78 -28,-19.28 -33.65,-25.24 -8.37,-8.83 -20.73,-17.25 -21.48,-35.55 -0.66,-16.13 1.97,-37.89 9.46,-48.39 14.12,3.23 5.3,20.58 28.75,23.68 15.49,2.05 31.41,-4.06 42.74,-10.27 24.12,-13.22 39.43,-30.15 52.51,-54.84 19.66,-37.1 25.76,-86.99 29.47,-130.28 0.69,-8.02 1.34,-15.63 2.4,-23.61 1.81,-13.69 0.73,-10.31 8.9,-17.96 -3.57,-10.45 -9.52,-17.18 -12.24,-30.31 -10.26,-49.51 58.39,-98.36 16.37,-132.62 -31.59,-25.76 -21.6,-14.49 -46.22,-43.91 -4.02,-4.81 -17.45,-18.13 -15.49,-28.13 16.92,-1.78 12.28,13.47 64.04,24.54 48.43,10.36 103.65,-2.34 125.49,-53.39 11.51,-26.91 10.21,-50.7 7.35,-81.07 -1.86,-19.79 -17.01,-50.47 -25.23,-66.71 -5.19,-10.26 -9.94,-19.58 -15.14,-29.89 -5.8,-11.5 -12.24,-19.5 -17.16,-29.6 -13.86,-28.45 -4.73,-8.71 -16.64,-28.43l-37.33 -54.52c-5.95,-7.9 -16.8,-18.82 -20.8,-26.52 6.26,-18.14 29.71,-19.64 28.43,-46.78 -1.82,-38.86 -26.1,-71.24 -0.95,-129.06 6.44,-14.81 19.48,-39.81 38.36,-36.76zm-1425.46 212.6l-38.65 51.74c-6.81,9.63 -12.06,17.83 -18.01,27.05 -11.93,18.49 -8.46,9.08 -17.46,29.34 -4.33,9.74 -11.39,17.91 -16.66,28.3 -5.46,10.75 -9.76,20.37 -15.41,31.53 -8.21,16.21 -23.91,46.62 -25.98,65.98 -5.2,48.74 -0.54,107.13 51.25,129.13 34.28,14.57 79.64,12.31 115.07,-2.85 8.09,-3.46 19.17,-16.8 30.44,-14.37 3.69,14.64 -36.09,50.82 -48.11,60.82 -13.23,11.02 -28.64,20.27 -27.43,40.42 1.76,29.14 36.78,65.4 30.46,101.53 -2.55,14.57 -9.18,20.61 -12.52,31.92 10.72,8.49 9.08,15.9 11.15,39.92 5.91,68.37 16.12,149.31 80.04,185.67 11.06,6.29 26.24,12.73 41.89,11.65 25.28,-1.76 18.21,-17.72 29.51,-23.89 5,2.45 5.49,5.02 7.29,11.55 12.53,45.23 -1.16,64.74 -41.45,92.75 -19.23,13.37 -43.83,0.66 -62.09,-6.53 -27.73,-10.93 -35.15,-10.29 -50.62,-30.82l-31.9 -49.52c-10.05,-17 -20.97,-32.2 -27.33,-54.13 -12.09,-41.73 -14.02,-98.66 -18.38,-144.12 -6,-62.5 -16.79,-77.47 -2.81,-143.76 11.02,-52.23 -29.47,-24.66 -89.48,-69.39 -58.5,-43.61 -73.18,-95.57 -75.71,-169.5 -0.32,-9.4 2.14,-12.01 1.73,-18.23 -0.48,-7.3 -1.84,-11.57 -1.57,-19.84 0.42,-13.3 4.01,-26.79 2.63,-39.86 -30.05,-23.57 -7.69,-42.79 -6.87,-44.74 4.2,-9.85 2.02,-20.49 2.43,-31.68 0.48,-12.96 8.65,-10.43 13.76,-21.43 9.8,-21.08 -14.94,-20.82 13.94,-48.47 19.06,-18.26 0.66,-28.14 26.97,-44.06 15.41,-9.33 27.57,-18.32 42.23,-27.12 9.25,-5.56 11.75,-7.99 14.96,-19.75 4.96,-18.17 3.11,-10.12 15.08,-19.48 1.72,-1.34 7.75,-6.91 8.93,-8.44l13 -39c5.95,-21.05 5.15,-41.33 9.82,-61.2 31.8,-2.42 52.29,62.83 49.29,99.74 -1.8,22.13 -10.1,42.37 -11.75,64.57 -2.21,29.55 20.9,28.96 28.31,48.56zm664.6 -619.84c186.68,-8.26 335.59,136.59 343.8,313.04 8.66,186.27 -136.72,336.18 -312.47,344.14 -189.31,8.58 -336.33,-137.9 -344.72,-312.87 -8.94,-186.59 137.01,-336.51 313.39,-344.31zm-645.59 1928.04c54.54,3.2 110.63,6.88 165.06,11.74 55.1,4.92 110.49,6.9 165.54,11.72 82.44,7.22 165.5,10.49 246.9,17.76 88.22,7.88 77.77,7.42 165.37,0.11 81.8,-6.84 165.94,-10.46 247.03,-17.77 110.02,-9.91 222.19,-12.81 331.77,-23.74l41.54 -65.88c35.1,-55.88 86.51,-149.95 114.33,-208.02 102.38,-213.7 166.92,-409.89 209.13,-650.52 17.36,-98.96 26.54,-189.77 32.65,-290.05 1.02,-16.7 1.38,-12.6 -17.64,-36.46 -36.15,-45.35 -65.96,-76.7 -99.87,-116.8l-79.5 -81.59c-186.25,-173.95 -331.18,-276.64 -565.25,-401.8 -47.88,-25.6 -96.29,-46.99 -144.78,-70.15 -16,-7.64 -145.29,-63.88 -152.02,-63.55 -8.09,0.39 -133.03,55.44 -150.74,63.46 -48.18,21.82 -98.56,45.2 -144.98,70.04 -47.25,25.28 -93.54,50 -137.79,77.14 -118.68,72.79 -208.16,133.94 -314.33,222.85 -48.49,40.6 -95.66,84.17 -139.62,128.95l-26.94 26.73c-33.75,37.9 -69.96,74.64 -101.77,114.91 -8.09,10.24 -15.99,19.55 -24.03,29.71 -13.74,17.37 -19.22,19.54 -18.07,33.59 9.42,114.23 12.71,171.13 32.45,290.31 38.82,234.35 110.03,444.52 209.02,652.44 28.71,60.32 95.67,182.15 135.04,240.9 6,8.95 17.27,25.12 21.49,33.96z"/>
   <path fill="#EC3237" d="M830.89 1302.34c19.39,4.35 104.78,0.9 130.94,0.9l390.48 0 -0.23 -533.75c-4.48,3.1 -4.95,4.75 -8.84,8.65l-42.48 44.07c-5.79,6.52 -10.55,12.01 -16.44,18.32 -3.12,3.34 -5.6,4.93 -8.95,8.28 -3.14,3.14 -5.16,5.78 -8.21,9.15l-50.58 52.98c-3.35,-2.41 -112.04,-128.83 -121.49,-143.12 -5.69,5.67 -9.94,12.03 -14.48,18.03 -10.35,13.65 -91.27,120.81 -98.73,125.47 -4,-6.46 -13.36,-13.47 -18.87,-18.45l-113.62 -108.14c-5.8,-5.81 -13.23,-11.18 -18.5,-16.18l-0.01 533.8z"/>
   <path fill="#FEF112" d="M1020.48 562.74c2.9,6.38 5.31,6.34 7.27,14.23 1.65,6.62 0.45,11.89 6.35,16.04 7.55,5.32 25.8,8.26 17.93,23.74 -5.01,9.87 -18.34,12.7 -30.73,6.41 -16.69,-8.47 -12.08,-11.03 -21.36,-23.75 -6.7,4.16 -9.73,10.22 -15.77,15.46 -32.5,28.18 -83.95,19.44 -114.92,-12.98 -9.39,-9.83 -23.33,-21.35 -28.92,-37.05 -5.77,-16.2 32.79,-58.89 55.92,-70.79 36.35,-18.71 77.86,-5.48 96.28,16.77 -3.59,-31.98 -28.7,-42.36 -35.81,-51.86 -3.8,-5.08 -8.9,-13.15 -11.94,-19.29 -14.16,-28.61 -4.09,-52.31 -5.25,-79.43 -0.44,-10.36 -2.97,-19.04 -0.77,-28.34 10.94,-3.5 16.28,4.32 21.14,9.79 -0.88,-19.01 -3.48,-37.27 2.49,-55.32 4,-12.09 20.13,-39.83 25.75,-11.25 11.78,59.93 25.36,57 35.47,85.78 7.59,21.62 10.83,25.35 6.75,52.32 -2.56,16.91 -8.64,34.36 -9.58,51.01 -1.89,33.45 30.07,75.56 -0.3,98.51zm159.8 -221.5c9.63,-11.34 22.89,-17.33 22.01,1.43 -1.04,22.05 -3.19,10.6 -0.56,43.09 3.78,46.67 -4.84,59.61 -32.94,86.14 -10.71,10.1 -20.17,23.15 -21.14,38.77 18.57,-22.54 61.55,-33.59 95.03,-17.04 15.59,7.71 26.09,18.49 35.48,28.62 5.03,5.43 24.48,31.75 21.9,41.03 -3.58,12.86 -19.77,30.07 -27.31,36.91 -8.59,7.79 -4.25,6.32 -17.88,15.03 -23.6,15.08 -49.12,22.34 -76.49,12.07 -23.8,-8.93 -24.01,-16.11 -38.07,-27.95 -3.56,4.42 -3.53,7.95 -7.73,13.15 -10.2,12.61 -34.62,21.06 -43.89,5.54 -9.23,-15.44 7.59,-19.45 16.32,-24.42 6.43,-3.65 4.97,-6.5 6.89,-15.4 2.08,-9.59 3.98,-8.52 7.59,-15.18 -30.02,-24.53 0.57,-61.75 -0.16,-95.33 -0.84,-38.95 -27.55,-73.05 5.27,-123.14 13.15,-20.07 22.08,-41.42 26.73,-66.72 5.57,-30.3 20.91,-7.04 25.86,7.42 7.08,20.69 3.32,35.17 3.08,55.97zm-135.61 -171.92c4.14,-14.86 14.84,-51.56 21,-61.84 10.66,-1.22 10.68,2.29 13.33,10.81l16.32 51.27c12.81,0.23 57.97,-2.44 65.8,1.77 12.23,11.21 -31.93,29.85 -49.48,47.45 4.17,12.58 20.78,55.62 17.36,65.85 -8.67,1.73 -10.51,-0.31 -16.85,-5.34 -5.11,-4.05 -8.87,-6.51 -14.05,-10.23 -7.35,-5.29 -21.36,-17.19 -28.83,-19.88 -9.01,5.33 -18.41,13.26 -27.37,19.64 -6.93,4.93 -19.89,18.04 -28.61,15.99 -11.93,-6.16 12.2,-44.11 14.47,-66.63 -7.23,-6.82 -21.36,-16.19 -29.88,-22.17 -21.48,-15.07 -25.02,-15.03 -18.04,-26.31l64.84 -0.38zm4.5 -91.97c-171.17,11.94 -313.12,157.39 -300.15,343.66 11.84,170.05 159.05,311.46 344.57,298.23 169.13,-12.07 310.91,-159.44 297.27,-344.75 -12.37,-168.08 -158.45,-309.91 -341.69,-297.13z"/>
   <path fill="#EC3237" d="M514.62 1074.42l18.85 86.55 57.39 -12.4c3.9,5.54 10.91,28.26 14.29,36.33 4.55,10.86 12.52,25.45 15,34.69l-50.27 29.17c2.57,7.87 41.02,71.79 42.85,73.93 1.53,1.78 1.34,1.52 2.48,2.47 8.13,-4.96 44.97,-27.82 51.99,-29.12l29.51 34.63c3.01,3.25 4.32,5.32 7.07,8.64 5.82,7.03 13.86,13.44 23.5,25.92l-36.89 44.67c9.03,8.47 61.73,53.43 69.54,56.73 3.66,-6.94 11.55,-15.5 17.42,-22.22 6,-6.88 11.75,-15.56 18.75,-22.88 9.31,3.81 24.39,14.79 34.94,20.91 11.14,6.47 26.57,12.97 36.99,20.03l-21.08 53.55c8.96,6.63 67.52,29.07 81.79,34.6l23.71 -57.04c14.52,2.26 32.02,7.93 47.3,10.78 16.31,3.04 33.49,4.78 50.44,6.61l0 62.4 83.2 0 -0.01 -62.47c17.13,-1.79 34.06,-3.53 50.43,-6.59 13.54,-2.53 35.31,-9.39 46.63,-10.27l24.14 56.56 81.76 -33.64 -21.8 -54.2c10.53,-7.01 25.77,-13.6 36.73,-19.83 12.18,-6.94 24.52,-15.86 35.14,-21.22 7.01,5.02 28.57,35.77 38.13,44.28 6.8,-2.95 58.63,-47.21 67.75,-55.5 -2.65,-5.42 -31.23,-40.19 -36.3,-44.62l30.15 -34.11c10.31,-10.8 19.03,-23.87 30.24,-35.86l53.18 30.1 44.26 -76.28c-13.76,-11.68 -39.67,-20.5 -50.5,-31.59l29.32 -69.26 57.21 12.39 19.19 -86.95c-20.23,-3.06 -43.91,-9.46 -64.15,-14.03l-48.23 -10.71c-5.7,-1.34 -11.55,-3.83 -16.87,-1.28 -7.8,25.86 -6.66,40.41 -21.13,81.98 -9.67,27.78 -19.97,48.98 -32.64,73.04 -29.74,56.48 -53.68,76.63 -92.65,117.1 -29.05,30.16 -90.37,64.88 -128.25,81.44 -44.92,19.64 -114.45,37.12 -173.33,37.22 -110.46,0.18 -225.13,-49.01 -301.43,-118.72 -36.61,-33.44 -64.19,-65.99 -92.97,-116.84 -25.59,-45.21 -44.01,-98.13 -54.16,-157.18l-128.62 28.1z"/>
   <path fill="#FEF112" d="M1922.27 796.51c28.43,-7.25 39.75,37.59 11.01,44.78 -30.1,7.53 -42.51,-36.74 -11.01,-44.78zm-14.39 -78.17c30.99,-9.66 40.9,36.24 14.05,44.03 -29.5,8.56 -42.57,-35.15 -14.05,-44.03zm-53.21 -65.63c30.19,-8.44 39.09,36.92 12.33,44.42 -29.47,8.25 -42.73,-35.92 -12.33,-44.42zm-96.69 35.67l65.24 91.21c5.52,7.11 3.76,8.14 7.88,16.41 4.91,9.85 11.24,17.53 16.67,28.29 11.44,22.71 39.13,76.22 41.28,97.48 10.08,99.77 -30.99,153.61 -123.19,147.56 -11.78,-0.77 -44.7,-8.95 -54.57,-13.18 -5.52,-2.37 -6.95,-5.51 -14.09,-9.15 3.21,6.63 20.54,26.45 27.94,33.38 17.93,16.77 50.11,29.83 41.39,65.64 -4.87,20 -18.21,41.09 -25.61,60.97 -14.31,38.49 11.97,50.75 8.48,67.05 -4.74,12.61 -6.61,-11.2 -10.96,41.14 -1.36,16.39 -2.96,32.44 -5.57,48.49 -8.62,52.97 -27.68,110.35 -75.85,137.2 -16.35,9.11 -42.87,19.9 -62.66,10.16 -7.68,-3.78 -8.64,-8.88 -13.86,-13.83 -4.45,8.29 -5.06,22.54 -4.76,32.9 0.46,15.46 12.05,25.45 22.93,35.54 12.37,11.48 24.14,22.29 39.06,20.99 12.57,-1.1 45.23,-15.74 58.23,-20.78 20.08,-7.8 26.94,-20.3 39.38,-40.38 10.02,-16.16 19.11,-32.26 29.4,-48.59 11.35,-18.02 16.49,-34.18 20.85,-58.87 8.07,-45.74 8.01,-96.34 14.93,-142.85 3.77,-25.33 9.23,-43.68 7.03,-70.95 -1.33,-16.49 -11.77,-56.81 -8.28,-68.73 9.54,-32.65 41.84,-9.17 100.14,-57.6 29.85,-24.8 52.03,-56.41 60.21,-97.51 3.24,-16.26 8.47,-56.56 4.28,-71.09 -2.09,-7.27 1.8,-22.97 1,-34.11 -0.87,-12.08 -3.15,-24.19 -2.73,-36.49 7.55,-7.26 10.63,-4.45 14.64,-18.13 3.55,-12.12 -3.45,-11.78 -7.46,-22.49 -4.31,-11.5 -1.66,-19.34 -2.39,-30.59 -0.67,-10.32 -8.4,-10.24 -13.28,-21.29 -5.55,-12.57 0.58,-17.69 -0.36,-28.77 -1.38,-16.27 -18.95,-10.29 -25.13,-44.96 -1.71,-9.57 -8.26,-12.28 -16.85,-17.35 -14.64,-8.64 -26.36,-17.19 -41.07,-26.52 -7.87,-4.98 -10.83,-8.95 -13.86,-19.07 -5.38,-18.01 -3.55,-9.51 -15.04,-19.63 -20.67,-18.19 -29.74,-75.81 -31.53,-105.24 -25.62,8.76 -40.74,65.8 -35.17,100.7 3.03,18.95 10.5,39.54 10.85,59.19 0.41,23.53 -18.4,32.52 -27.56,43.86z"/>
   <path fill="#FEF112" d="M208.3 796.5c28.16,-7.12 39.64,37.42 10.98,44.75 -30.5,7.81 -42.34,-36.82 -10.98,-44.75zm9.65 -78.3c28.99,-9.82 43.24,35.4 14.13,44.04 -29.21,8.66 -43.62,-34.04 -14.13,-44.04zm55.09 -65.11c29.48,-10.11 41.32,35.61 13.35,43.83 -21.32,6.26 -37.43,-16.58 -26.88,-33.79 3.96,-6.45 6.14,-7.51 13.54,-10.04zm286.73 844.16c-6.47,6.03 -3.46,8.21 -12.86,13.07 -20.44,10.56 -45.16,0.57 -62.53,-8.81 -63.34,-34.17 -77.01,-117.76 -82.69,-184.62 -4.64,-54.54 -6.13,-30.22 -11.1,-41.96 -2.92,-19.41 22.18,-28.27 8.99,-66.43 -19.27,-55.7 -52.89,-75.17 1.98,-117.38 19.8,-15.23 18.99,-15.03 31.87,-32.27 4.81,-6.44 5.38,-3.29 9.45,-11.72 -15.09,5.85 3.12,3.48 -29.89,13.79 -38.98,12.17 -79.38,13.54 -114.55,-5.99 -49.16,-27.3 -52.02,-80.86 -47.72,-130.15 3.1,-35.55 39.3,-93.5 57.06,-126.78 3.18,-5.96 3.73,-10.84 6.93,-15.57 3.28,-4.85 6.48,-7.81 9.7,-12.77 6.32,-9.74 11.31,-18.33 18.37,-28.48l38.7 -53.35c-9.43,-11.33 -27.48,-19.68 -27.02,-43.29 0.74,-38.34 23.65,-64.85 5.18,-118.78 -5.24,-15.3 -16.85,-39.86 -29.5,-40.19 -2.28,29.99 -9.11,63.7 -19.78,91.39 -1.51,3.93 -9.51,11.57 -13.37,14.43 -9.44,7 -8.78,1.26 -12.52,15.17 -5.45,20.28 -17.99,23.62 -43.76,41.2 -5.6,3.82 -11.61,7.07 -17.28,10.48 -19.19,11.57 -6.85,18.96 -20.05,37.17 -4.55,6.29 -8.54,7.04 -13.69,13.98 -9.77,13.17 7.92,24.63 -7.91,44.12 -8.75,10.76 -9.09,2.76 -8.56,20.93 1.04,36.25 -12.79,28.9 -11.01,42.33 3.63,27.32 18.24,5.43 14.73,39.34 -0.88,8.52 -1.97,17.15 -2.26,25.82 -0.24,7.14 2.65,22.12 2.43,23.94 -0.94,7.41 -3.55,-1.93 -1.9,24.66 2.71,43.51 5.75,76.55 31.22,110.65 17.64,23.61 31.87,38.07 58.12,54.52 24.5,15.36 66.19,14.29 75.3,37.29 7.73,19.53 -12.68,53.85 -7.01,102.35 1.88,16.07 5.74,31.43 7.72,47.81 5.63,46.55 7.92,110.97 17.46,152.39 7.49,32.49 23.42,50.44 37.78,74.78 7.8,13.23 12.4,21.65 21.51,33.96 11.59,15.65 11.49,15.94 33.18,24.01 44.91,16.7 56.6,33.05 95.29,-7.11 5.41,-5.62 8.71,-7.76 13.3,-14.43 8.1,-11.8 6.4,-35.59 0.68,-49.5z"/>
   <path fill="#363435" d="M409.2 1997.75c-4.22,-8.84 -15.49,-25.01 -21.49,-33.96 -39.37,-58.75 -106.33,-180.58 -135.04,-240.9 -98.99,-207.92 -170.2,-418.09 -209.02,-652.44 -19.74,-119.18 -23.03,-176.07 -32.45,-290.31 -1.16,-14.05 4.32,-16.22 18.07,-33.59 8.04,-10.16 15.94,-19.46 24.03,-29.71 31.81,-40.27 68.02,-77.01 101.77,-114.91l26.94 -26.73c43.96,-44.79 91.14,-88.35 139.62,-128.95 106.17,-88.91 195.66,-150.06 314.33,-222.85 44.25,-27.13 90.54,-51.86 137.79,-77.14 46.43,-24.84 96.8,-48.22 144.98,-70.04 17.72,-8.02 142.65,-63.07 150.74,-63.46 6.73,-0.32 136.02,55.91 152.02,63.55 48.49,23.16 96.9,44.55 144.78,70.15 234.07,125.16 379,227.85 565.25,401.8l79.5 81.59c33.91,40.1 63.72,71.45 99.87,116.8 19.01,23.86 18.65,19.76 17.64,36.46 -6.1,100.28 -15.29,191.08 -32.65,290.05 -42.21,240.63 -106.75,436.82 -209.13,650.52 -27.82,58.07 -79.23,152.14 -114.33,208.02l-41.54 65.88c-109.59,10.93 -221.75,13.83 -331.77,23.74 -81.09,7.3 -165.23,10.93 -247.03,17.77 -87.61,7.32 -77.15,7.77 -165.37,-0.11 -81.41,-7.28 -164.46,-10.54 -246.9,-17.76 -55.05,-4.82 -110.44,-6.8 -165.54,-11.72 -54.44,-4.86 -110.53,-8.54 -165.06,-11.74zm-409.2 -1230.21c0,74.76 15.18,199.34 26.97,272.85 6.95,43.3 14.81,84.18 22.86,124.45 12.21,61.12 27.51,117.68 43.76,176.34l35.32 111.98c26.83,80.53 58.54,159.38 95.26,235.75 35.66,74.16 72.82,147.12 114.97,217.77l56.52 90.79c10.5,17.92 30.92,12.33 58.31,14.48l85.02 6.83c7.34,0.36 10.97,-0.06 18.06,1.01 6.35,0.95 10.27,0.43 16.6,0.73l171.48 12.23c6.83,0.53 8.42,1.61 17.43,1.63l103.89 7.03c22.29,1.75 45.95,4.51 69.45,5.07l33.63 2.77c19.16,2.88 47.03,1.85 68.11,4.67 4.72,0.63 30.09,3.19 34.83,2.8 89.93,-7.42 183.9,-13.42 274.22,-20.51l50.16 -3.56c7.34,-0.35 10.97,0.06 18.06,-1.01 6.35,-0.95 10.27,-0.43 16.6,-0.73l53.25 -3.94c19.82,-2.68 46.09,-3.67 68.06,-4.73 40.52,-1.96 79.87,-7.68 119.62,-8.63 8.63,-0.21 8.63,-1.59 17.26,-1.8 40.03,-0.95 43.95,1.79 56.88,-17.64 24.68,-37.07 46.68,-75.66 69.76,-113.94l26.23 -46.55c14.32,-23.54 25.88,-47.57 38.37,-72.55 16.34,-32.68 34.14,-66.18 47.7,-99.6l22.73 -51.79c30.78,-69.7 55.39,-142.78 79.13,-215.48 12.46,-38.16 21.61,-74.99 32.83,-114.48 5.67,-19.96 9.63,-39.11 14.23,-58.55 14.33,-60.54 27.21,-123.8 36.25,-185.57l16.61 -130.69c5.87,-45.07 9.89,-91.55 9.89,-137.42 0,-5.34 -43.32,-57.02 -49.87,-64.51 -4.71,-5.39 -8.16,-9.45 -12.93,-14.81l-40.18 -46.46c-4.58,-5.94 -8.82,-8.8 -13.55,-14.18 -27,-30.66 -56.12,-59.25 -84.92,-88.39 -5.76,-5.83 -9.95,-8.11 -15.64,-13.83 -26.06,-26.19 -53.19,-50.5 -81.51,-74.46 -3.79,-3.2 -4.74,-3.36 -8.58,-7.02 -40.29,-38.37 -148.53,-117.8 -195.74,-149.13l-68.96 -45.42c-11.51,-7.64 -23.36,-13.9 -35.38,-21.81 -35.91,-23.61 -86.98,-52.41 -127.52,-73.51 -54.28,-28.26 -116.91,-61.49 -172.82,-85.4 -46.97,-20.08 -93.65,-41.28 -141.42,-59.61 -4.11,-1.58 -5.96,-2.32 -9.3,-4.56 -14.26,-9.59 -18.68,-1.53 -31.96,3.81 -47.43,19.09 -95.01,38.12 -141.33,59.7 -53.38,24.87 -103.96,49.18 -154.83,75.66l-54.85 30.07c-6.94,3.52 -12.15,6.56 -18.91,10.55l-71.89 42.49c-59.63,35.68 -116.26,74.79 -172.47,115.21 -32.96,23.7 -66.25,48.09 -96.5,75.07l-107.43 93.59c-4.88,4.91 -9.76,10.45 -14.91,14.56 -19.73,15.74 -39.6,38.21 -57.88,56.5 -4.79,4.79 -9.48,8.91 -13.85,13.88l-94.51 106.52c-9.09,10.42 -16.93,20.47 -25.63,31.56 -4.03,5.13 -25.01,29.67 -25.01,33.91z"/>
   <path fill="#363535" d="M1563.33 1218.13c10.83,11.09 36.74,19.91 50.5,31.59l-44.26 76.28 -53.18 -30.1c-11.21,11.99 -19.93,25.06 -30.24,35.86l-30.15 34.11c5.07,4.44 33.65,39.2 36.3,44.62 -9.13,8.29 -60.95,52.55 -67.75,55.5 -9.56,-8.51 -31.11,-39.26 -38.13,-44.28 -10.62,5.36 -22.96,14.28 -35.14,21.22 -10.95,6.24 -26.19,12.83 -36.73,19.83l21.8 54.2 -81.76 33.64 -24.14 -56.56c-11.31,0.88 -33.08,7.74 -46.63,10.27 -16.37,3.06 -33.31,4.81 -50.43,6.59l0.01 62.47 -83.2 0 0 -62.4c-16.95,-1.84 -34.13,-3.57 -50.44,-6.61 -15.28,-2.85 -32.78,-8.51 -47.3,-10.78l-23.71 57.04c-14.27,-5.53 -72.83,-27.97 -81.79,-34.6l21.08 -53.55c-10.43,-7.07 -25.85,-13.56 -36.99,-20.03 -10.54,-6.12 -25.63,-17.1 -34.94,-20.91 -7,7.32 -12.75,16 -18.75,22.88 -5.87,6.72 -13.76,15.28 -17.42,22.22 -7.8,-3.3 -60.5,-48.26 -69.54,-56.73l36.89 -44.67c-9.65,-12.48 -17.68,-18.89 -23.5,-25.92 -2.75,-3.32 -4.06,-5.4 -7.07,-8.64l-29.51 -34.63c-7.02,1.3 -43.86,24.16 -51.99,29.12 -1.14,-0.95 -0.95,-0.69 -2.48,-2.47 -1.83,-2.15 -40.28,-66.07 -42.85,-73.93l50.27 -29.17c-2.48,-9.24 -10.45,-23.84 -15,-34.69 -3.38,-8.07 -10.39,-30.79 -14.29,-36.33l-57.39 12.4 -18.85 -86.55 128.62 -28.1c10.15,59.05 28.57,111.97 54.16,157.18 28.78,50.85 56.36,83.4 92.97,116.84 76.31,69.71 190.98,118.9 301.43,118.72 58.87,-0.09 128.41,-17.58 173.33,-37.22 37.87,-16.56 99.2,-51.28 128.25,-81.44 38.97,-40.46 62.91,-60.62 92.65,-117.1 12.67,-24.06 22.97,-45.26 32.64,-73.04 14.47,-41.57 13.33,-56.12 21.13,-81.98 5.32,-2.55 11.17,-0.06 16.87,1.28l48.23 10.71c20.25,4.57 43.93,10.97 64.15,14.03l-19.19 86.95 -57.21 -12.39 -29.32 69.26zm-783.83 235.34c5.5,-6.88 13.03,-17.67 20.06,-21.96 13.07,11.4 42.56,25.04 59.49,34.69 -3.32,10.61 -21.26,45.24 -19.2,53.75 4.96,6.38 36,17.12 45.26,21 60.85,25.54 43.42,27.75 71.66,-38.34 13.4,2.28 28.02,6.63 42.2,9.22 12.96,2.36 32.19,3.41 43.6,6.65 0,73.51 -9.74,62.47 49.24,62.47 56.94,0 48.96,13.09 48.96,-62.81 14.66,-2.84 30.33,-3.67 45.09,-6.49 13.53,-2.59 28.29,-7.04 40.78,-8.93 4.26,11.44 18.51,48.39 24.61,54.88 5.42,2.69 68.44,-25.71 82.87,-31.29 22.84,-8.83 0.25,-23.26 -9.82,-60.49 21.81,-10.4 41.08,-23.41 60.4,-33.99 11.26,8.54 29.52,38.9 39.86,42.83 4.88,0.4 49.58,-38.54 59.07,-46.65 5.62,-4.81 14.89,-10.25 17.29,-17.51 -1.92,-8.6 -28.53,-35.88 -34.39,-45.06l51.62 -60.22c64.4,28.42 40.75,54.49 85.19,-22.69 4.85,-8.44 18.48,-27.31 18.07,-36.19 -3.53,-4.57 -41.16,-26.88 -48.51,-29.22l23.36 -59.58c65.61,8.62 54.61,33.16 70.32,-37.03 2.61,-11.69 11.53,-40.75 8.65,-50.86 -9.41,-5.35 -130.53,-32.08 -140.49,-30.44 -10.58,26.95 -11.03,82.69 -53.01,156.35 -32.33,56.73 -69.1,101.73 -120.08,141.6 -27.7,21.65 -65.05,43.23 -98.6,57.37 -114.94,48.42 -228.63,48.96 -343.62,-0.52 -73.57,-31.65 -128.41,-75.77 -177.32,-136.39 -30.14,-37.35 -56.88,-87.96 -72.25,-135.69 -8.24,-25.58 -18.59,-75.42 -21.2,-82.53 -11.04,-2.18 -102.79,20.29 -121.74,24.56 -12.61,2.84 -21.98,1.8 -19.28,15.61 1.97,10.09 4.43,19.47 6.7,29.82 2.97,13.58 9.51,49.25 14.18,58.33 12.33,2.38 43,-8.36 57.27,-10.01 1.6,1.9 23.42,54.5 24.69,59.24 -7.95,3.3 -44.49,24.35 -48.51,28.9 -2.28,5.87 33.77,63.29 38.67,71.8 11.12,19.29 9.29,20.06 29.81,7.51 10.3,-6.3 24.9,-13.31 33.22,-19.99 5.39,3.37 20.85,23.18 26.92,29.94 2.82,3.14 4.14,5.59 7.01,8.67 7.7,8.27 11,10.22 19.24,21.64l-27.85 33.85c-3.3,3.86 -5.82,6.44 -6.26,12.94 0.66,3.19 32.24,28.74 36.96,32.47 42.88,33.86 34.35,40.64 59.83,8.77z"/>
   <path fill="#EC3237" d="M994.14 523.81c-2.4,-3.92 -3.94,-5.18 -7.22,-8.43 -34.68,-34.36 -81.46,-27.82 -113.49,4.32 -3.92,3.93 -24.14,30.23 -26.29,37.67 -3.39,11.72 34.58,54.35 65.59,63.52 50.36,14.9 68.09,-13.93 87.23,-33.75 10.52,5.13 6.44,17.99 18.9,26.34 9.88,6.62 24.23,11.38 27.53,-3.64 -5.63,-10 -18.17,-6.13 -22.77,-18.37 -2.14,-5.69 -1.72,-11.33 -4.18,-16.71 -3.44,-7.54 -6.03,-4.21 -9.03,-11.72 26.98,-28.21 15.25,-35.24 6.49,-68.86 -12.92,-49.6 19.33,-82.88 3.35,-123.01 -2.28,-5.72 -3.8,-11.77 -7.08,-17.16 -18.55,-30.46 -25.73,-41.27 -32.94,-82.39 -5.39,3.31 -6.59,6.26 -9.28,12.89 -20.97,51.75 21.69,95.38 8.23,115.43 -6.52,-0.29 -4.21,0.77 -7.09,-4.84l-8.51 -27.87c-4.15,-12.16 -10.01,-24.96 -18.63,-29.09 0.03,10.79 2.21,19.28 1.76,30.85 -0.39,9.91 -1.63,19.43 -2.06,29.4 -3.26,76.54 56.76,49.14 56.81,135.19 -4.97,-2.8 -4.27,-4.81 -7.3,-9.78z"/>
   <path fill="#EC3237" d="M1129.61 563.05c-2.41,8.18 -5.05,5.51 -8.77,11.77 -2.64,4.44 -2.4,10.69 -4.34,16.44 -4.36,12.93 -17.65,8.02 -22.89,18.59 2.87,14.64 16.56,10.5 26.51,4.11 14.6,-9.38 8.63,-18.51 18.46,-26.7 5.51,2.47 44.05,65.31 108.94,24.11 9.17,-5.82 10.84,-7.34 18.24,-14.7 5.94,-5.9 28.83,-26.23 26.96,-38.47 -0.99,-6.49 -19.62,-31.54 -26.19,-38.18 -25.39,-25.64 -60.75,-36.85 -94.65,-19.04 -7.12,3.74 -22.02,15.43 -26.02,22.51 -3.88,6.85 -1.24,7.17 -7.32,10.35 0.01,-18.96 2.2,-40.23 12.16,-52.29 15.32,-18.54 23.83,-22.01 31.07,-32.99 20.32,-30.82 12.45,-47.05 11.46,-81.34 -0.24,-8.25 3.77,-23.32 0.81,-28.59 -13.15,9.23 -18.85,32.23 -23.08,47.11 -4.21,14.79 -4.19,13.54 -9.85,14.41 -10.74,-14.18 10.29,-47.07 11.94,-62.57 2.69,-25.33 2.64,-49.51 -11.94,-65.93l-10.16 36.9c-5.35,16.84 -15.54,30.77 -24.02,45.28 -29.04,49.66 10.17,89.98 -4.26,141.38 -9,32.06 -19.13,42.23 6.93,67.85z"/>
   <path fill="#363535" d="M1800.55 1275.15c-6.92,46.51 -6.86,97.11 -14.93,142.85 -4.36,24.69 -9.5,40.85 -20.85,58.87 -10.29,16.33 -19.39,32.43 -29.4,48.59 -12.44,20.07 -19.3,32.58 -39.38,40.38 -13,5.05 -45.67,19.68 -58.23,20.78 -14.92,1.3 -26.69,-9.51 -39.06,-20.99 -10.87,-10.09 -22.46,-20.08 -22.93,-35.54 -0.31,-10.36 0.31,-24.61 4.76,-32.9 5.22,4.95 6.18,10.06 13.86,13.83 19.79,9.74 46.31,-1.05 62.66,-10.16 48.17,-26.85 67.23,-84.23 75.85,-137.2 2.61,-16.04 4.2,-32.1 5.57,-48.49 4.35,-52.34 6.22,-28.53 10.96,-41.14 3.49,-16.3 -22.8,-28.56 -8.48,-67.05 7.39,-19.88 20.73,-40.98 25.61,-60.97 8.72,-35.8 -23.46,-48.86 -41.39,-65.64 -7.4,-6.93 -24.73,-26.75 -27.94,-33.38 7.14,3.63 8.56,6.78 14.09,9.15 9.87,4.23 42.79,12.41 54.57,13.18 92.19,6.05 133.26,-47.8 123.19,-147.56 -2.15,-21.27 -29.84,-74.77 -41.28,-97.48 -5.43,-10.77 -11.76,-18.45 -16.67,-28.29 -4.13,-8.27 -2.36,-9.29 -7.88,-16.41l-65.24 -91.21c9.16,-11.35 27.97,-20.33 27.56,-43.86 -0.34,-19.65 -7.82,-40.25 -10.85,-59.19 -5.57,-34.9 9.55,-91.93 35.17,-100.7 1.79,29.43 10.86,87.05 31.53,105.24 11.49,10.12 9.66,1.62 15.04,19.63 3.03,10.12 5.99,14.08 13.86,19.07 14.71,9.33 26.43,17.88 41.07,26.52 8.59,5.07 15.14,7.77 16.85,17.35 6.19,34.67 23.76,28.69 25.13,44.96 0.94,11.07 -5.18,16.2 0.36,28.77 4.88,11.05 12.62,10.97 13.28,21.29 0.73,11.25 -1.92,19.09 2.39,30.59 4.01,10.71 11.01,10.37 7.46,22.49 -4.01,13.68 -7.09,10.86 -14.64,18.13 -0.42,12.3 1.86,24.41 2.73,36.49 0.8,11.15 -3.1,26.85 -1,34.11 4.19,14.54 -1.04,54.83 -4.28,71.09 -8.18,41.1 -30.36,72.7 -60.21,97.51 -58.3,48.43 -90.6,24.95 -100.14,57.6 -3.49,11.92 6.95,52.24 8.28,68.73 2.19,27.27 -3.26,45.62 -7.03,70.95zm-69.03 36.54c-3.7,43.29 -9.81,93.17 -29.47,130.28 -13.09,24.7 -28.4,41.62 -52.51,54.84 -11.33,6.21 -27.25,12.32 -42.74,10.27 -23.45,-3.1 -14.63,-20.45 -28.75,-23.68 -7.49,10.5 -10.12,32.26 -9.46,48.39 0.75,18.3 13.11,26.72 21.48,35.55 5.65,5.96 24.35,22.46 33.65,25.24 15.78,4.71 32.59,-3.31 45.49,-8.47 43.43,-17.39 44.29,-12.79 67.97,-48.14 7.57,-11.31 39.11,-61.99 43.4,-72.67 22.11,-55.08 19.47,-141.98 29.73,-202.67 7.22,-42.69 6.02,-62.73 -3.41,-104.33 -9.34,-41.19 35.32,-35.61 63.83,-49.94 25.06,-12.6 48.49,-34.6 62.89,-53.29 29.53,-38.34 40.48,-83.88 39.17,-136.55 -0.4,-16.15 -2.29,3.92 -0.32,-25.84 0.59,-8.9 -0.44,-17.92 -1.35,-26.77 -4.08,-39.69 4.96,-14.04 12.76,-41.43 5.97,-20.98 -9.7,-15.02 -10,-42.72 -0.15,-13.89 3.61,-16.78 -4.51,-25 -22.44,-22.74 -2.56,-26.9 -10.39,-44.97 -4.43,-10.23 -19.66,-14.81 -23.12,-34.3 -3.62,-20.4 -4.45,-15.36 -27.99,-30.8 -6.21,-4.08 -10.18,-7.04 -16.35,-11.35 -14.44,-10.08 -24.01,-9.39 -29.19,-29.69 -3.48,-13.61 -2.8,-10.06 -12.84,-16.66 -4.67,-3.07 -11.33,-9.53 -13.35,-14.45 -17.23,-41.81 -14.24,-69.96 -20.47,-95.57 -18.88,-3.05 -31.92,21.96 -38.36,36.76 -25.15,57.82 -0.87,90.2 0.95,129.06 1.27,27.15 -22.18,28.64 -28.43,46.78 4,7.7 14.85,18.62 20.8,26.52l37.33 54.52c11.91,19.72 2.79,-0.02 16.64,28.43 4.92,10.1 11.36,18.11 17.16,29.6 5.2,10.31 9.94,19.63 15.14,29.89 8.22,16.24 23.37,46.92 25.23,66.71 2.86,30.37 4.16,54.16 -7.35,81.07 -21.84,51.05 -77.06,63.75 -125.49,53.39 -51.76,-11.07 -47.12,-26.32 -64.04,-24.54 -1.96,10 11.47,23.32 15.49,28.13 24.62,29.42 14.63,18.15 46.22,43.91 42.02,34.27 -26.63,83.12 -16.37,132.62 2.72,13.12 8.67,19.86 12.24,30.31 -8.17,7.64 -7.09,4.27 -8.9,17.96 -1.05,7.97 -1.71,15.59 -2.4,23.61z"/>
   <path fill="#363535" d="M559.77 1497.24c5.72,13.91 7.42,37.7 -0.68,49.5 -4.58,6.67 -7.89,8.82 -13.3,14.43 -38.69,40.16 -50.38,23.81 -95.29,7.11 -21.69,-8.06 -21.59,-8.36 -33.18,-24.01 -9.12,-12.31 -13.71,-20.73 -21.51,-33.96 -14.36,-24.35 -30.29,-42.29 -37.78,-74.78 -9.54,-41.42 -11.83,-105.84 -17.46,-152.39 -1.98,-16.38 -5.85,-31.74 -7.72,-47.81 -5.67,-48.49 14.75,-82.82 7.01,-102.35 -9.11,-23 -50.8,-21.94 -75.3,-37.29 -26.24,-16.45 -40.48,-30.91 -58.12,-54.52 -25.47,-34.1 -28.52,-67.14 -31.22,-110.65 -1.65,-26.59 0.96,-17.25 1.9,-24.66 0.23,-1.82 -2.66,-16.79 -2.43,-23.94 0.28,-8.68 1.37,-17.3 2.26,-25.82 3.51,-33.91 -11.1,-12.02 -14.73,-39.34 -1.79,-13.43 12.05,-6.08 11.01,-42.33 -0.53,-18.17 -0.19,-10.17 8.56,-20.93 15.83,-19.49 -1.86,-30.94 7.91,-44.12 5.15,-6.94 9.13,-7.69 13.69,-13.98 13.2,-18.21 0.86,-25.6 20.05,-37.17 5.67,-3.42 11.68,-6.66 17.28,-10.48 25.77,-17.58 38.3,-20.92 43.76,-41.2 3.74,-13.91 3.08,-8.17 12.52,-15.17 3.86,-2.86 11.86,-10.5 13.37,-14.43 10.67,-27.69 17.5,-61.4 19.78,-91.39 12.65,0.33 24.26,24.89 29.5,40.19 18.47,53.93 -4.44,80.45 -5.18,118.78 -0.45,23.6 17.59,31.96 27.02,43.29l-38.7 53.35c-7.07,10.14 -12.05,18.73 -18.37,28.48 -3.22,4.97 -6.42,7.92 -9.7,12.77 -3.2,4.74 -3.76,9.62 -6.93,15.57 -17.76,33.27 -53.96,91.23 -57.06,126.78 -4.3,49.29 -1.45,102.85 47.72,130.15 35.17,19.53 75.57,18.17 114.55,5.99 33.01,-10.31 14.81,-7.94 29.89,-13.79 -4.07,8.43 -4.64,5.28 -9.45,11.72 -12.88,17.24 -12.07,17.04 -31.87,32.27 -54.88,42.21 -21.25,61.68 -1.98,117.38 13.2,38.16 -11.91,47.02 -8.99,66.43 4.98,11.74 6.46,-12.58 11.1,41.96 5.69,66.86 19.36,150.45 82.69,184.62 17.38,9.38 42.09,19.37 62.53,8.81 9.4,-4.86 6.39,-7.04 12.86,-13.07zm-169.58 -807.68c-7.41,-19.61 -30.51,-19.01 -28.31,-48.56 1.66,-22.2 9.95,-42.44 11.75,-64.57 3,-36.91 -17.48,-102.16 -49.29,-99.74 -4.67,19.87 -3.87,40.15 -9.82,61.2l-13 39c-1.18,1.54 -7.21,7.1 -8.93,8.44 -11.97,9.36 -10.13,1.31 -15.08,19.48 -3.2,11.76 -5.7,14.19 -14.96,19.75 -14.66,8.81 -26.81,17.8 -42.23,27.12 -26.31,15.92 -7.91,25.8 -26.97,44.06 -28.88,27.66 -4.14,27.39 -13.94,48.47 -5.12,11 -13.29,8.48 -13.76,21.43 -0.41,11.18 1.77,21.82 -2.43,31.68 -0.83,1.95 -23.19,21.17 6.87,44.74 1.38,13.07 -2.21,26.56 -2.63,39.86 -0.27,8.27 1.09,12.54 1.57,19.84 0.41,6.23 -2.05,8.83 -1.73,18.23 2.52,73.93 17.21,125.88 75.71,169.5 60.01,44.74 100.49,17.16 89.48,69.39 -13.98,66.3 -3.19,81.27 2.81,143.76 4.36,45.46 6.28,102.39 18.38,144.12 6.36,21.92 17.28,37.13 27.33,54.13l31.9 49.52c15.47,20.53 22.89,19.89 50.62,30.82 18.26,7.2 42.87,19.9 62.09,6.53 40.29,-28.01 53.98,-47.52 41.45,-92.75 -1.81,-6.53 -2.29,-9.11 -7.29,-11.55 -11.3,6.17 -4.23,22.13 -29.51,23.89 -15.65,1.09 -30.83,-5.35 -41.89,-11.65 -63.91,-36.36 -74.13,-117.3 -80.04,-185.67 -2.07,-24.02 -0.43,-31.43 -11.15,-39.92 3.34,-11.32 9.97,-17.36 12.52,-31.92 6.32,-36.14 -28.7,-72.39 -30.46,-101.53 -1.21,-20.15 14.2,-29.41 27.43,-40.42 12.02,-10 51.8,-46.19 48.11,-60.82 -11.26,-2.43 -22.34,10.91 -30.44,14.37 -35.44,15.15 -80.79,17.41 -115.07,2.85 -51.79,-22 -56.45,-80.39 -51.25,-129.13 2.06,-19.36 17.77,-49.77 25.98,-65.98 5.65,-11.16 9.95,-20.77 15.41,-31.53 5.27,-10.39 12.34,-18.56 16.66,-28.3 8.99,-20.26 5.52,-10.85 17.46,-29.34 5.95,-9.22 11.19,-17.42 18.01,-27.05l38.65 -51.74z"/>
   <path fill="#363636" d="M830.89 768.54c5.27,5 12.7,10.37 18.5,16.18l113.62 108.14c5.51,4.98 14.87,11.99 18.87,18.45 7.46,-4.66 88.38,-111.82 98.73,-125.47 4.54,-5.99 8.8,-12.36 14.48,-18.03 9.46,14.29 118.15,140.72 121.49,143.12l50.58 -52.98c3.05,-3.37 5.07,-6.01 8.21,-9.15 3.35,-3.35 5.82,-4.94 8.95,-8.28 5.89,-6.31 10.65,-11.8 16.44,-18.32l42.48 -44.07c3.89,-3.91 4.36,-5.55 8.84,-8.65l0.23 533.75 -390.48 0c-26.16,0 -111.55,3.45 -130.94,-0.9l0.01 -533.8zm-7.62 2.48l0 528.57c0,10.17 2.11,11.43 12.04,11.43l512.97 0c6.08,0 6.48,-0.38 10.78,-2.06 2.67,-14.2 0.99,-253.64 0.99,-274.52 0,-34.67 3.48,-262.73 -2.57,-273.89 -11.94,-1.3 -15.06,6.98 -21.3,13.99l-119.6 125.06c-5.52,-4.49 -10.13,-11.42 -14.7,-16.87l-97.61 -115.46c-13.07,-16.65 -15.58,-3.59 -39.72,26.75l-54.38 70.38c-8.78,11.31 -17.84,24.49 -27.55,35.24l-138.63 -130.35c-5.26,-4.71 -20.72,-20.58 -20.72,1.72z"/>
   <path fill="#363535" d="M1049.18 77.34c183.25,-12.78 329.32,129.05 341.69,297.13 13.64,185.32 -128.14,332.69 -297.27,344.75 -185.53,13.24 -332.73,-128.17 -344.57,-298.23 -12.97,-186.27 128.98,-331.72 300.15,-343.66zm5.61 -7.63c-176.38,7.8 -322.33,157.72 -313.39,344.31 8.39,174.97 155.41,321.46 344.72,312.87 175.75,-7.96 321.14,-157.87 312.47,-344.14 -8.21,-176.45 -157.12,-321.3 -343.8,-313.04z"/>
   <path fill="#FEF112" d="M984.6 177.03c7.27,6.16 45.95,34.91 52.7,37.63l-20.03 62.65c10.89,-5.26 39.37,-29.41 52.7,-37.45l53 37.41 -19.66 -63.02c5.12,-2.08 47.59,-32.46 52.1,-37.44l-65.42 -0 -19.31 -59.18 -16.59 45.54c-0.57,1.77 -2,6.78 -2.47,7.87 -3.64,8.5 0.52,3.28 -4.87,5.81l-62.14 0.19z"/>
   <path fill="#373434" d="M980.21 271.63c7.2,41.12 14.38,51.93 32.94,82.39 3.28,5.38 4.81,11.43 7.08,17.16 15.98,40.12 -16.27,73.4 -3.35,123.01 8.76,33.62 20.48,40.66 -6.49,68.86 3,7.51 5.6,4.18 9.03,11.72 2.46,5.38 2.04,11.02 4.18,16.71 4.6,12.24 17.14,8.37 22.77,18.37 -3.3,15.02 -17.65,10.26 -27.53,3.64 -12.46,-8.35 -8.38,-21.21 -18.9,-26.34 -19.14,19.82 -36.87,48.65 -87.23,33.75 -31.01,-9.17 -68.98,-51.81 -65.59,-63.52 2.15,-7.44 22.37,-33.74 26.29,-37.67 32.03,-32.14 78.81,-38.68 113.49,-4.32 3.27,3.24 4.82,4.5 7.22,8.43 3.03,4.97 2.33,6.97 7.3,9.78 -0.05,-86.06 -60.07,-58.65 -56.81,-135.19 0.42,-9.96 1.67,-19.49 2.06,-29.4 0.45,-11.57 -1.73,-20.06 -1.76,-30.85 8.62,4.13 14.48,16.92 18.63,29.09l8.51 27.87c2.88,5.62 0.58,4.55 7.09,4.84 13.47,-20.05 -29.19,-63.67 -8.23,-115.43 2.69,-6.63 3.89,-9.58 9.28,-12.89zm7.93 3.5c-5.62,-28.58 -21.76,-0.84 -25.75,11.25 -5.97,18.05 -3.37,36.31 -2.49,55.32 -4.86,-5.47 -10.2,-13.29 -21.14,-9.79 -2.2,9.3 0.33,17.99 0.77,28.34 1.16,27.12 -8.91,50.82 5.25,79.43 3.04,6.14 8.14,14.21 11.94,19.29 7.11,9.49 32.22,19.88 35.81,51.86 -18.42,-22.25 -59.93,-35.47 -96.28,-16.77 -23.13,11.9 -61.69,54.59 -55.92,70.79 5.59,15.69 19.54,27.22 28.92,37.05 30.97,32.42 82.41,41.16 114.92,12.98 6.04,-5.24 9.07,-11.3 15.77,-15.46 9.28,12.72 4.67,15.29 21.36,23.75 12.39,6.29 25.72,3.46 30.73,-6.41 7.87,-15.48 -10.39,-18.42 -17.93,-23.74 -5.9,-4.15 -4.7,-9.43 -6.35,-16.04 -1.97,-7.89 -4.38,-7.85 -7.27,-14.23 30.37,-22.95 -1.59,-65.06 0.3,-98.51 0.94,-16.65 7.02,-34.1 9.58,-51.01 4.08,-26.97 0.84,-30.7 -6.75,-52.32 -10.11,-28.79 -23.7,-25.85 -35.47,-85.78z"/>
   <path fill="#373434" d="M1129.61 563.05c-26.06,-25.62 -15.93,-35.79 -6.93,-67.85 14.43,-51.4 -24.77,-91.72 4.26,-141.38 8.48,-14.51 18.67,-28.45 24.02,-45.28l10.16 -36.9c14.58,16.42 14.63,40.61 11.94,65.93 -1.65,15.5 -22.68,48.39 -11.94,62.57 5.66,-0.88 5.64,0.37 9.85,-14.41 4.23,-14.87 9.93,-37.87 23.08,-47.11 2.95,5.27 -1.05,20.34 -0.81,28.59 0.99,34.29 8.86,50.52 -11.46,81.34 -7.24,10.98 -15.75,14.45 -31.07,32.99 -9.96,12.05 -12.15,33.32 -12.16,52.29 6.08,-3.17 3.44,-3.5 7.32,-10.35 4.01,-7.08 18.9,-18.77 26.02,-22.51 33.9,-17.81 69.26,-6.6 94.65,19.04 6.57,6.64 25.19,31.69 26.19,38.18 1.88,12.24 -21.02,32.58 -26.96,38.47 -7.41,7.36 -9.07,8.87 -18.24,14.7 -64.89,41.2 -103.43,-21.64 -108.94,-24.11 -9.83,8.19 -3.86,17.32 -18.46,26.7 -9.95,6.39 -23.64,10.53 -26.51,-4.11 5.24,-10.57 18.53,-5.66 22.89,-18.59 1.93,-5.74 1.69,-11.99 4.34,-16.44 3.72,-6.26 6.36,-3.59 8.77,-11.77zm50.67 -221.8c0.25,-20.8 4.01,-35.28 -3.08,-55.97 -4.95,-14.47 -20.29,-37.72 -25.86,-7.42 -4.65,25.29 -13.57,46.65 -26.73,66.72 -32.82,50.09 -6.11,84.19 -5.27,123.14 0.72,33.58 -29.86,70.8 0.16,95.33 -3.6,6.67 -5.51,5.59 -7.59,15.18 -1.92,8.91 -0.46,11.76 -6.89,15.4 -8.73,4.96 -25.55,8.98 -16.32,24.42 9.28,15.52 33.69,7.06 43.89,-5.54 4.2,-5.2 4.17,-8.72 7.73,-13.15 14.05,11.84 14.27,19.02 38.07,27.95 27.36,10.27 52.88,3.01 76.49,-12.07 13.63,-8.71 9.3,-7.24 17.88,-15.03 7.54,-6.84 23.73,-24.05 27.31,-36.91 2.58,-9.27 -16.87,-35.6 -21.9,-41.03 -9.4,-10.14 -19.89,-20.92 -35.48,-28.62 -33.48,-16.55 -76.46,-5.5 -95.03,17.04 0.96,-15.62 10.43,-28.66 21.14,-38.77 28.1,-26.53 36.73,-39.47 32.94,-86.14 -2.63,-32.49 -0.48,-21.04 0.56,-43.09 0.88,-18.76 -12.38,-12.77 -22.01,-1.43z"/>
   <path fill="#363435" d="M1399.06 1661.44c34.58,-11.8 37.62,66.34 11.74,75.04 -19.03,6.4 -27.44,-13.44 -28.84,-29.83 -1.47,-17.1 -0.31,-39.27 17.1,-45.21zm-43.03 57.53c13.32,75.5 114.06,60.44 97.23,-39.22 -5.12,-30.35 -29.03,-59.04 -66.14,-45 -27.22,10.3 -37.31,48.86 -31.08,84.21z"/>
   <path fill="#363435" d="M488.04 1661.91c30.5,0.05 33.65,5.91 33.46,37.99 -0.23,39.02 -10.45,36.05 -33.61,36.05l0.15 -74.04zm57.85 64c7,-31.84 1.05,-73.16 -19.66,-86.04 -12.93,-8.03 -31.42,-5.72 -47.94,-5.94 -14.19,-0.19 -17.22,-3.34 -17.26,10.33l0.18 81.65c0,42.92 -3.55,38.36 15.31,38.07 27.95,-0.42 59.67,6.1 69.38,-38.07z"/>
   <path fill="#363435" d="M1561.45 1763.91c12.25,0 6.96,-6.91 3.4,-13.6l-26.17 -51.98c-8.2,-15.65 -8.9,-9.8 8.15,-32.12 8.45,-11.05 20.91,-23.36 19.54,-31.87l-30.7 0.06c-5.27,7.9 -10.89,15 -16.54,23.18 -4.77,6.9 -10.61,16.06 -16.52,21.83 -1.44,-45.08 9.74,-48.81 -25.89,-44.84 -1.83,16.07 -2.71,119.69 0.61,128.87 25.29,1.5 25.17,1.8 25.3,-9.6 0.06,-5.7 -0.21,-11.84 -0.25,-17.61 -0.11,-15.93 4.54,-16.47 10.42,-25.77 7.13,6.92 19.22,42.25 26.1,53.27l22.56 0.18z"/>
   <path fill="#363435" d="M796.92 1710.25c10.98,-0.07 20.47,-0.86 30.63,0.86 0,12.24 -2.05,42.37 1.55,52.38 21.49,1.15 25.09,2.53 25.09,-8.12l0 -112.65c0,-9.46 -1.46,-10.81 -25.35,-8.16 -3.26,11.34 -0.89,33.99 -1.45,47.54l-30.1 0.19c-2.56,-34.59 6.51,-48.33 -8.77,-48.33 -17.79,0 -18.32,-1.36 -18.36,10.32l0.16 92.02c-0.01,19.36 -3.26,27.61 7.8,27.61 17.78,0 18.83,1.61 18.83,-8.55l-0.04 -45.12z"/>
   <path fill="#363435" d="M1195.8 1680.9l7.61 26.97 -16.09 -0.11 8.48 -26.86zm-25.35 82.25c2.36,-3.72 3.43,-8.29 4.98,-14.22 1.72,-6.59 1.38,-10.12 6.54,-12.97l27.67 0c6.86,1.79 7.12,23.58 11.69,26.96 5.73,1.78 19.6,2.03 24.83,-0.38 3.25,-7.09 -4.93,-23.7 -7.66,-32.57 -6.95,-22.58 -24.12,-81.25 -30.42,-96.03l-25.16 1.09c-5.95,10.66 -15.69,49.44 -20.37,64.62 -3.16,10.25 -22.71,60.06 -14.36,63.22 0.35,0.13 0.84,0.38 1.26,0.51l21 -0.24z"/>
   <path fill="#363435" d="M1625.76 1680.58c4.12,5.75 7.89,19.14 8.28,27.48l-15.62 -0.14 7.35 -27.34zm-48.75 81.83c4.13,2.14 7.98,1.7 13.99,1.7 11.39,0 11.84,3.65 18.84,-28.13l33.53 0.07 8.85 27.3c4.5,0.61 8.74,0.73 13.3,0.73 1.42,0 5.46,-0.08 6.72,-0.31l2.68 -0.82c8.65,-2.68 -10.81,-49.16 -15.26,-64.17 -4.86,-16.35 -14.05,-50.95 -20.6,-64.71l-25.15 0.52c-6.96,14.42 -15.01,47.43 -20.27,64.64 -2.97,9.72 -19.56,56.89 -16.64,63.19z"/>
   <path fill="#363435" d="M701.87 1682.24l7.95 25.81 -15.83 -0.56 7.88 -25.25zm-16.45 53.7l33.79 0.13c1.68,8.35 5.17,21.27 8.64,27.65l24.84 -0.67c1.85,-4.85 1.51,-3.86 -0.1,-9.68l-37.95 -119.31 -25.17 0.15c-6.84,15.53 -14.53,45.93 -19.99,64.53 -3.46,11.79 -19.55,55.75 -17.06,64.68l25.25 0.18 7.74 -27.66z"/>
   <path fill="#363435" d="M943.99 1661.91c10.86,0 15.25,-0.22 23.78,2.55 7.5,22.87 -0.91,25.15 -24,25.2l0.22 -27.75zm0.33 55.7c31.25,0 50.18,-4.74 53.11,-35.39 2.82,-29.49 -8.91,-47.14 -37.27,-48.13 -7.65,-0.26 -38.36,-1.96 -41.67,1.61 -2.67,2.89 -3.05,122.51 0.28,126.15l5.05 1.93c32.06,5.92 17.34,-19.48 20.5,-46.18z"/>
   <path fill="#363435" d="M1169.37 1920.98c-14.92,-4.63 -9.6,-67.65 -3.67,-79.04 12.61,1.98 10.8,20.53 10.84,38.2 0.03,12.92 1.3,34.58 -7.17,40.84zm-35.02 -21.77c2.97,36.61 23.5,59.65 48.96,44.67 26.42,-15.54 25.62,-97.78 6.05,-119.69 -16.32,-18.27 -62.61,-18.77 -55,75.01z"/>
   <path fill="#363435" d="M1089.69 1921c-14.92,-4.92 -9.56,-67.52 -3.65,-79.03 8.21,1.2 8.72,5.31 9.89,14.89 1.77,14.53 3.48,57.14 -6.24,64.15zm-35.14 -23.52c2.38,34.31 20.54,61.69 47.97,47.07 20.58,-10.97 22.61,-52.7 20.33,-80.07 -1.24,-14.97 -4.49,-29.93 -12.35,-39.41 -14.69,-17.7 -62.6,-23.4 -55.95,72.41z"/>
   <path fill="#363435" d="M1215.82 1857.03c3.19,2.71 18.17,5.41 21.35,2.14 5.54,-5.7 -0.98,-16.85 10.61,-17.24 9.41,-0.32 10.26,10.3 8.35,18.71 -3.92,17.28 -33.86,35.92 -42.85,68.27 -5.98,21.51 -6.28,16.68 60.48,16.68 8.28,0 8.94,0.46 8.94,-8.25 0.12,-12.41 1.12,-8.47 -1.57,-19.64 -8.13,-2.77 -21.94,-1.03 -31.83,-1.18 6.35,-12.25 18.62,-20.67 26.57,-35.93 6.95,-13.34 10.19,-35.19 1.6,-49.25 -22.66,-37.11 -67.93,-6.5 -63.84,21.17 0.67,4.57 -0.38,2.03 2.18,4.52z"/>
   <path fill="#363435" d="M932.39 1857.7c46.08,10.87 10.26,-16.29 38.82,-15.6 6.39,10.02 5.6,18.82 -0.52,27.87 -15.81,23.43 -40.87,41.12 -40.66,75.08l61.45 0.7c7.73,-0.12 9.89,-0.5 9.89,-8.42 0,-22.3 1.46,-20.93 -11.65,-20.89 -7.24,0.02 -14.5,0.15 -21.76,0.15 4.25,-7.55 9.01,-12.07 13.9,-18.18 14.8,-18.49 27.13,-42.43 14.36,-66.47 -16.37,-30.81 -66.72,-19.55 -63.83,25.76z"/>
   <path fill="#363435" d="M610.02 1675.65l-20.54 -41.71 -27.37 0.74c-2.36,7.66 9.69,26.55 13.42,33.95 30.73,60.94 17.58,31.26 20.27,87 0.39,8.12 -1.12,6.33 4.06,8.08 5.37,1.83 16.87,0.45 21.1,-0.67 3.46,-7.24 1.7,-32.22 1.64,-40.65 -0.21,-30.5 36.81,-70.34 33.96,-88.36l-27.16 0.49 -19.37 41.13z"/>
   <path fill="#363435" d="M1062.53 1656.59c2.04,10.89 10.07,2.57 28.4,6.07 0.32,17.62 -2.34,89.84 1.62,100.62 7.09,1.1 18.61,1.85 23.46,-1.04 4.6,-7.91 1.3,-83.69 1.78,-100.18l26.89 -1.12c2.3,-7.53 2.3,-18.49 0,-26.02 -11.93,-2.79 -55.06,-1.01 -70.36,-1.1 -8.76,-0.05 -10.45,-1.6 -11.78,5.44 -0.03,0.17 -0.03,17.17 0,17.34z"/>
   <path fill="#373434" d="M984.6 177.03l62.14 -0.19c5.39,-2.53 1.23,2.68 4.87,-5.81 0.47,-1.09 1.9,-6.1 2.47,-7.87l16.59 -45.54 19.31 59.18 65.42 0c-4.51,4.98 -46.98,35.36 -52.1,37.44l19.66 63.02 -53 -37.41c-13.33,8.05 -41.81,32.2 -52.7,37.45l20.03 -62.65c-6.75,-2.72 -45.43,-31.47 -52.7,-37.63zm60.08 -7.71l-64.84 0.38c-6.98,11.28 -3.45,11.24 18.04,26.31 8.52,5.98 22.64,15.34 29.88,22.17 -2.26,22.52 -26.4,60.46 -14.47,66.63 8.72,2.05 21.68,-11.07 28.61,-15.99 8.97,-6.38 18.36,-14.31 27.37,-19.64 7.46,2.69 21.47,14.59 28.83,19.88 5.18,3.73 8.94,6.18 14.05,10.23 6.34,5.03 8.18,7.07 16.85,5.34 3.43,-10.22 -13.19,-53.27 -17.36,-65.85 17.55,-17.6 61.7,-36.24 49.48,-47.45 -7.83,-4.2 -52.99,-1.54 -65.8,-1.77l-16.32 -51.27c-2.65,-8.52 -2.67,-12.03 -13.33,-10.81 -6.15,10.28 -16.85,46.98 -21,61.84z"/>
   <path fill="#363435" d="M1330.96 1763.91c7.26,0 8.1,-1.53 8.1,-8.55 0,-25.43 5.02,-19.42 -48.04,-19.42l-0.7 -99.39c-7.54,-2.84 -17.3,-1.65 -25.48,-0.96 -1.28,17.15 -2.41,118.47 1.02,127.82l65.1 0.5z"/>
   <path fill="#363435" d="M859.39 1873.79c6.62,1.17 15.19,-6.96 21.61,-10.31 0,15.37 0,30.75 0,46.13 0,25.44 -3.84,35.98 8.04,35.98 16.91,0 17.51,1.64 17.51,-8.25l0 -114.38c0,-7.1 -0.51,-7.65 -7.11,-8.2 -2.8,-0.23 -9.83,0.3 -12.74,0.66 -4.34,2.31 -5.89,22.05 -29.11,31.36 -0.32,7.42 -1.91,21.26 1.8,27.02z"/>
   <path fill="#363435" d="M1019.97 1634.99c-3.34,9.43 -1.15,90.83 -1.32,113.49 -0.05,6.88 -0.71,9.48 1.73,14.39 5.46,1.8 17.82,1.78 23.3,0.03 3.47,-7.07 2.92,-120.81 0.39,-127.93 -5.9,-1.68 -18.25,-1.69 -24.1,0.03z"/>
   <path fill="#00A758" d="M1399.06 1661.44c-17.41,5.94 -18.57,28.11 -17.1,45.21 1.4,16.39 9.82,36.22 28.84,29.83 25.87,-8.7 22.84,-86.84 -11.74,-75.04z"/>
   <path fill="#00A758" d="M487.88 1735.95c23.16,0 33.38,2.97 33.61,-36.05 0.19,-32.09 -2.96,-37.94 -33.46,-37.99l-0.15 74.04z"/>
   <path fill="#373434" d="M217.95 718.2c-29.49,9.99 -15.08,52.69 14.13,44.04 29.12,-8.63 14.87,-53.86 -14.13,-44.04z"/>
   <path fill="#373434" d="M1922.27 796.51c-31.5,8.04 -19.09,52.31 11.01,44.78 28.74,-7.19 17.42,-52.04 -11.01,-44.78z"/>
   <path fill="#373434" d="M208.3 796.5c-31.36,7.93 -19.52,52.56 10.98,44.75 28.66,-7.33 17.18,-51.88 -10.98,-44.75z"/>
   <path fill="#373434" d="M273.03 653.08c-7.39,2.54 -9.58,3.59 -13.54,10.04 -10.55,17.21 5.56,40.05 26.88,33.79 27.97,-8.22 16.13,-53.94 -13.35,-43.83z"/>
   <path fill="#373434" d="M1854.66 652.71c-30.4,8.5 -17.14,52.67 12.33,44.42 26.76,-7.49 17.86,-52.86 -12.33,-44.42z"/>
   <path fill="#373434" d="M1907.87 718.34c-28.51,8.89 -15.45,52.59 14.05,44.03 26.85,-7.8 16.93,-53.69 -14.05,-44.03z"/>
   <path fill="#00A758" d="M1169.37 1920.98c8.47,-6.26 7.2,-27.92 7.17,-40.84 -0.04,-17.68 1.77,-36.22 -10.84,-38.2 -5.93,11.39 -11.25,74.41 3.67,79.04z"/>
   <path fill="#00A758" d="M1089.69 1921c9.72,-7.01 8,-49.62 6.24,-64.15 -1.17,-9.58 -1.68,-13.68 -9.89,-14.89 -5.91,11.51 -11.27,74.11 3.65,79.03z"/>
   <path fill="#363535" d="M1031.22 1914.69c-19.99,-1.5 -15.85,4.63 -15.84,15.72 0.01,9.05 -2.16,13.75 5.45,15.23 1.74,0.34 14.75,1.47 18.29,-2.11 3.63,-3.68 2.76,-22.83 0.41,-26.49l-8.31 -2.35z"/>
   <path fill="#00A758" d="M943.77 1689.66c23.09,-0.05 31.5,-2.33 24,-25.2 -8.53,-2.77 -12.92,-2.55 -23.78,-2.55l-0.22 27.75z"/>
   <path fill="#02A257" d="M1618.41 1707.92l15.62 0.14c-0.39,-8.34 -4.16,-21.74 -8.28,-27.48l-7.35 27.34z"/>
   <polygon fill="#02A257" points="1187.33,1707.76 1203.42,1707.87 1195.8,1680.9 "/>
   <polygon fill="#02A257" points="693.99,1707.5 709.82,1708.05 701.87,1682.24 "/>
  </g>
 </g>
</svg>
