<?xml version="1.0" encoding="UTF-8"?>
<!DOCTYPE svg PUBLIC "-//W3C//DTD SVG 1.1//EN" "http://www.w3.org/Graphics/SVG/1.1/DTD/svg11.dtd">
<!-- Creator: CorelDRAW 2020 (64-Bit) -->
<svg xmlns="http://www.w3.org/2000/svg" xml:space="preserve" width="1.38461in" height="1.37078in" version="1.1" shape-rendering="geometricPrecision" text-rendering="geometricPrecision" image-rendering="optimizeQuality" fill-rule="evenodd" clip-rule="evenodd"
viewBox="0 0 1115.95 1104.8"
 xmlns:xlink="http://www.w3.org/1999/xlink"
 xmlns:xodm="http://www.corel.com/coreldraw/odm/2003">
 <g id="Layer_x0020_1">
  <metadata id="CorelCorpID_0Corel-Layer"/>
  <path fill="white" d="M351.1 273.92c0,68.52 25.74,128.76 53.98,189.67 23.54,50.76 44.97,99.49 56.62,155.25 2.25,10.77 9.46,43.17 13.5,51.58l65.07 0c1.83,-22.01 1.57,-36.43 1.48,-59.06 -0.04,-10.93 1.6,-16.72 1.55,-28.71l1.47 -151.38c-0.1,-26.51 6.38,-89.4 6.1,-114.97l4.56 -86.24c0.45,-9.22 3,-19.03 3,-28.78l1.51 0c0,17.51 2.67,34.49 4.31,50.17 1.77,16.96 1.82,36.38 3.18,52.82 2.86,34.55 -0.81,74.65 2.88,107.59l1.74 108.74c-0.01,17.39 -0.93,37.43 -0.01,54.49 0.45,8.32 2.51,14.83 1.3,25.5 -1.82,16.05 -1.29,38.88 -1.29,56.21 0,23.07 40.29,14.46 47.98,15.51 2.82,0.39 16.55,2.95 20.12,1.14 3.07,-1.56 3.25,0.04 4.52,-10.61 0.67,-5.62 1.03,-8.62 1.95,-14.69 7.19,-47.14 35.81,-126.26 57.59,-169.42l29.55 -67.3c31.63,-79.26 48.95,-145.26 8.29,-227.3 -15.63,-31.54 -46.25,-67.29 -72.78,-90.66 -19.39,-17.07 -41.7,-33.29 -58.21,-47.72l-31.82 -28.71c-4.22,-4.2 -11.69,-11.19 -13.24,-17.03 -9.74,0.81 -27.97,19.18 -35.45,25.09 -11.08,8.76 -98.44,78.3 -108.72,89.53 -2.82,3.08 -3.71,4.92 -6.78,8.35 -4.89,5.45 -8.58,11.04 -13.14,17.12 -13.89,18.52 -25.72,36.44 -33.6,58.71 -3.04,8.6 -4.87,13.24 -7.6,22.67 -4.46,15.41 -9.6,33.57 -9.6,52.44z"/>
  <path fill="white" d="M155.88 478.22c6.35,1.48 32.08,15.96 34.81,19.67 -5.83,0.13 -38.66,6.73 -41.05,8.89 -7.23,6.52 -4.38,32.5 -11.91,38.03l-16.63 -34.82c-13.86,0.01 -28.82,4.55 -42.39,4.55 2.45,-10.51 25.73,-30.09 25.73,-33.3 0,-6.77 -11.52,-27.3 -13.62,-36.32 10.38,2.42 29.93,15.14 36.32,15.14 7.47,0 20.15,-18.78 33.29,-25.73 -0.32,14.25 -4.54,21.91 -4.54,43.89zm-155.88 39.35c0,34.84 1.23,55.53 14.69,86.7 4.33,10.04 9.77,18.79 15.55,26.82 30.4,42.21 92.12,66.57 143.79,66.57 0,-32.47 2.76,-60.91 14.63,-82.22 11.32,-20.31 32.1,-40.36 58.01,-40.36l13.62 0c46.52,0 88.91,57.1 101.6,101.19 1.01,3.5 1.25,7.5 2.83,10.79 12.68,0 63.18,-8.73 80.45,-10.35 8.04,-0.76 8.84,0.89 8.84,-7.81 0,-35.13 -22.5,-113.32 -38.34,-146.29 -16.68,-34.73 -37.11,-76.22 -63.41,-104.57 -15.99,-17.23 -28.78,-32.37 -48.95,-46.39 -30.63,-21.3 -70.68,-40.23 -109.6,-40.23 -54.67,0 -99.24,18.22 -135.07,54.1 -14.2,14.22 -21.28,22.61 -30.88,40.25 -3.29,6.04 -5.82,9.3 -8.53,15.68 -8.93,21.07 -19.23,47.02 -19.23,76.11z"/>
  <path fill="white" d="M936.77 444.93c31.55,2.63 34.57,38.47 60.53,-10.59 15.32,10.26 3.03,19.16 3.03,42.37 6.6,1.54 33.62,17.5 36.32,21.19 -8.01,0 -37.73,4.17 -40.99,7.43 -2.64,2.64 -7.45,33.04 -8.95,39.48 -4.65,-3.41 -8.14,-11.28 -10.38,-16.86 -2.9,-7.21 -5.89,-13.03 -9.29,-19.46 -12.61,1.05 -28.66,4.54 -42.38,4.54 4.46,-6.66 25.27,-22.04 28.75,-27.24l-16.65 -40.86zm-273.92 222.46c0,15.25 -1.62,7.73 37.19,14.27 21.19,3.57 29.05,5.41 50.59,5.41 0.27,-12.32 18.67,-46.11 25.25,-57.99 3.86,-6.97 7.21,-10.78 11.92,-16.83 37.91,-48.68 153.51,-71.12 153.51,74.82 0,8.85 -4.7,12.11 9.08,12.11 10.47,0 25.91,-3.82 34.81,-6.05 11.14,-2.79 20.69,-5.52 31.15,-9.72 20.59,-8.24 34.5,-16.95 50.24,-31.48l19.37 -21.49c51.39,-71.16 35.39,-191.4 -37.64,-253.17 -78.05,-66.01 -191.57,-50.27 -261.78,17.31 -22.96,22.1 -26.52,28.23 -43.91,51.44l-28.85 45.3c-23.48,46.3 -50.93,123.18 -50.93,176.07z"/>
  <path fill="white" d="M410.12 960.98c0,30.72 38.67,62.54 49.3,76.31 9.84,12.75 10.68,10.19 18.45,17.87l18.98 17.34c3.23,2.73 7.1,5.88 10.12,8.04 54.04,38.76 66.71,28.92 121.96,-14.26 21.86,-17.09 79.33,-77.17 79.33,-100.76 0,-26.42 -30.86,-53.78 -47.49,-103.84 -5.78,-17.4 -8.01,-26.25 -10.24,-44.25 -2.48,-20.08 -4.33,-10.65 -40.64,-10.81 -14.39,-0.06 -22.87,1.51 -36.32,1.51l-10.61 124.08c-0.37,14.78 -3.01,27.88 -3.01,42.39 -0.83,-1.2 -0.77,-0.64 -1.64,-2.9 -1.01,-2.59 -0.63,-1.41 -1.27,-4.79l-6.17 -51.34c-0.8,-25.59 -3.05,-34.32 -3.03,-65.07 0.01,-13.06 -0.55,-34.07 -4.54,-42.38 -74.28,0 -67.84,-20.23 -81.72,36.32 -17.69,72.08 -51.45,97.88 -51.45,116.53z"/>
  <path fill="white" d="M664.37 802.08c0,31.68 27.65,97.61 47.36,120.62 15.4,17.98 38.06,38.28 64.63,38.28 34.55,0 51.24,-7.21 74.56,-31.37 12.01,-12.45 28.34,-41.73 28.34,-65.49 -10.69,0.24 -18.04,4.54 -30.26,4.54 -32.42,0 -52.21,-0.24 -79.07,-23.84 -9.74,-8.55 -19.12,-25.52 -24.3,-37.75 -2.3,-5.43 -3.28,-10.78 -5.59,-15.6l-37.19 5.18c-11.97,1.68 -27.23,5.17 -38.47,5.42z"/>
  <path fill="white" d="M284.51 870.18c-25.39,0 -34.75,-5.82 -45.4,-6.05 0,27.51 15.92,50.67 30.02,68.35 14.49,18.16 42.74,28.51 68.35,28.51 65.38,0 96.12,-78.78 111.02,-129.6 2.27,-7.74 5.51,-20.52 5.51,-29.3 -13,-1.08 -66.8,-10.59 -75.67,-10.59 -5.06,9.56 -7.64,19.89 -12.6,29.78 -14.48,28.92 -44.8,48.92 -81.23,48.92z"/>
  <ellipse fill="white" cx="558.8" cy="738.96" rx="184.81" ry="38.23"/>
 </g>
</svg>
